NotoSerifBengali-CondensedBold.ufo
<glyph name="exclam" format="2">
  <advance width="318"/>
  <unicode hex="0021"/>
  <outline>
    <contour>
      <point x="130" y="224" type="line"/>
      <point x="187" y="224" type="line"/>
      <point x="233" y="714" type="line"/>
      <point x="84" y="714" type="line"/>
    </contour>
    <contour>
      <point x="160" y="-8" type="curve" smooth="yes"/>
      <point x="196" y="-8"/>
      <point x="227" y="10"/>
      <point x="227" y="66" type="curve" smooth="yes"/>
      <point x="227" y="122"/>
      <point x="196" y="140"/>
      <point x="160" y="140" type="curve" smooth="yes"/>
      <point x="121" y="140"/>
      <point x="92" y="122"/>
      <point x="92" y="66" type="curve" smooth="yes"/>
      <point x="92" y="10"/>
      <point x="121" y="-8"/>
    </contour>
  </outline>
</glyph>
<glyph name="quotedbl" format="2">
  <advance width="426"/>
  <unicode hex="0022"/>
  <outline>
    <contour>
      <point x="276" y="452" type="line"/>
      <point x="332" y="452" type="line"/>
      <point x="370" y="714" type="line"/>
      <point x="237" y="714" type="line"/>
    </contour>
    <contour>
      <point x="95" y="452" type="line"/>
      <point x="150" y="452" type="line"/>
      <point x="189" y="714" type="line"/>
      <point x="56" y="714" type="line"/>
    </contour>
  </outline>
</glyph>
<glyph name="numbersign" format="2">
  <advance width="456"/>
  <unicode hex="0023"/>
  <outline>
    <contour>
      <point x="49" y="0" type="line"/>
      <point x="118" y="0" type="line"/>
      <point x="156" y="202" type="line"/>
      <point x="239" y="202" type="line"/>
      <point x="202" y="0" type="line"/>
      <point x="271" y="0" type="line"/>
      <point x="308" y="202" type="line"/>
      <point x="413" y="202" type="line"/>
      <point x="413" y="268" type="line"/>
      <point x="322" y="268" type="line"/>
      <point x="356" y="451" type="line"/>
      <point x="445" y="451" type="line"/>
      <point x="445" y="518" type="line"/>
      <point x="368" y="518" type="line"/>
      <point x="406" y="714" type="line"/>
      <point x="336" y="714" type="line"/>
      <point x="299" y="518" type="line"/>
      <point x="216" y="518" type="line"/>
      <point x="253" y="714" type="line"/>
      <point x="183" y="714" type="line"/>
      <point x="147" y="518" type="line"/>
      <point x="43" y="518" type="line"/>
      <point x="43" y="451" type="line"/>
      <point x="134" y="451" type="line"/>
      <point x="99" y="268" type="line"/>
      <point x="11" y="268" type="line"/>
      <point x="11" y="202" type="line"/>
      <point x="87" y="202" type="line"/>
    </contour>
    <contour>
      <point x="168" y="268" type="line"/>
      <point x="204" y="451" type="line"/>
      <point x="288" y="451" type="line"/>
      <point x="253" y="268" type="line"/>
    </contour>
  </outline>
</glyph>
<glyph name="percent" format="2">
  <advance width="740"/>
  <unicode hex="0025"/>
  <outline>
    <contour>
      <point x="197" y="0" type="line"/>
      <point x="262" y="0" type="line"/>
      <point x="541" y="714" type="line"/>
      <point x="476" y="714" type="line"/>
    </contour>
    <contour>
      <point x="175" y="280" type="curve" smooth="yes"/>
      <point x="276" y="280"/>
      <point x="324" y="369"/>
      <point x="324" y="503" type="curve" smooth="yes"/>
      <point x="324" y="637"/>
      <point x="276" y="724"/>
      <point x="176" y="724" type="curve" smooth="yes"/>
      <point x="70" y="724"/>
      <point x="26" y="637"/>
      <point x="26" y="503" type="curve" smooth="yes"/>
      <point x="26" y="369"/>
      <point x="70" y="280"/>
    </contour>
    <contour>
      <point x="175" y="325" type="curve" smooth="yes"/>
      <point x="133" y="325"/>
      <point x="118" y="389"/>
      <point x="118" y="503" type="curve" smooth="yes"/>
      <point x="118" y="615"/>
      <point x="133" y="678"/>
      <point x="176" y="678" type="curve" smooth="yes"/>
      <point x="218" y="678"/>
      <point x="231" y="615"/>
      <point x="231" y="503" type="curve" smooth="yes"/>
      <point x="231" y="389"/>
      <point x="218" y="325"/>
    </contour>
    <contour>
      <point x="565" y="-10" type="curve" smooth="yes"/>
      <point x="665" y="-10"/>
      <point x="714" y="79"/>
      <point x="714" y="213" type="curve" smooth="yes"/>
      <point x="714" y="347"/>
      <point x="665" y="434"/>
      <point x="566" y="434" type="curve" smooth="yes"/>
      <point x="460" y="434"/>
      <point x="416" y="347"/>
      <point x="416" y="213" type="curve" smooth="yes"/>
      <point x="416" y="79"/>
      <point x="460" y="-10"/>
    </contour>
    <contour>
      <point x="565" y="35" type="curve" smooth="yes"/>
      <point x="523" y="35"/>
      <point x="508" y="99"/>
      <point x="508" y="213" type="curve" smooth="yes"/>
      <point x="508" y="325"/>
      <point x="523" y="388"/>
      <point x="565" y="388" type="curve" smooth="yes"/>
      <point x="608" y="388"/>
      <point x="621" y="325"/>
      <point x="621" y="213" type="curve" smooth="yes"/>
      <point x="621" y="99"/>
      <point x="608" y="35"/>
    </contour>
  </outline>
</glyph>
<glyph name="parenleft" format="2">
  <advance width="332"/>
  <unicode hex="0028"/>
  <outline>
    <contour>
      <point x="307" y="-136" type="curve"/>
      <point x="307" y="-77" type="line"/>
      <point x="207" y="5"/>
      <point x="185" y="159"/>
      <point x="185" y="318" type="curve" smooth="yes"/>
      <point x="185" y="476"/>
      <point x="207" y="628"/>
      <point x="307" y="711" type="curve"/>
      <point x="307" y="768" type="line"/>
      <point x="120" y="685"/>
      <point x="46" y="540"/>
      <point x="46" y="318" type="curve" smooth="yes"/>
      <point x="46" y="94"/>
      <point x="120" y="-51"/>
    </contour>
  </outline>
</glyph>
<glyph name="parenright" format="2">
  <advance width="332"/>
  <unicode hex="0029"/>
  <outline>
    <contour>
      <point x="26" y="-136" type="line"/>
      <point x="213" y="-51"/>
      <point x="286" y="94"/>
      <point x="286" y="318" type="curve" smooth="yes"/>
      <point x="286" y="540"/>
      <point x="213" y="685"/>
      <point x="26" y="768" type="curve"/>
      <point x="26" y="711" type="line"/>
      <point x="125" y="628"/>
      <point x="148" y="476"/>
      <point x="148" y="318" type="curve" smooth="yes"/>
      <point x="148" y="159"/>
      <point x="125" y="5"/>
      <point x="26" y="-77" type="curve"/>
    </contour>
  </outline>
</glyph>
<glyph name="asterisk" format="2">
  <advance width="401"/>
  <unicode hex="002A"/>
  <outline>
    <contour>
      <point x="156" y="368" type="line"/>
      <point x="248" y="368" type="line"/>
      <point x="219" y="532" type="line"/>
      <point x="338" y="431" type="line"/>
      <point x="376" y="521" type="line"/>
      <point x="253" y="564" type="line"/>
      <point x="376" y="607" type="line"/>
      <point x="338" y="697" type="line"/>
      <point x="219" y="595" type="line"/>
      <point x="249" y="760" type="line"/>
      <point x="156" y="760" type="line"/>
      <point x="184" y="594" type="line"/>
      <point x="65" y="699" type="line"/>
      <point x="28" y="608" type="line"/>
      <point x="151" y="564" type="line"/>
      <point x="28" y="520" type="line"/>
      <point x="65" y="429" type="line"/>
      <point x="183" y="533" type="line"/>
    </contour>
  </outline>
</glyph>
<glyph name="plus" format="2">
  <advance width="425"/>
  <unicode hex="002B"/>
  <outline>
    <contour>
      <point x="177" y="143" type="line"/>
      <point x="247" y="143" type="line"/>
      <point x="247" y="324" type="line"/>
      <point x="387" y="324" type="line"/>
      <point x="387" y="391" type="line"/>
      <point x="247" y="391" type="line"/>
      <point x="247" y="572" type="line"/>
      <point x="177" y="572" type="line"/>
      <point x="177" y="391" type="line"/>
      <point x="38" y="391" type="line"/>
      <point x="38" y="324" type="line"/>
      <point x="177" y="324" type="line"/>
    </contour>
  </outline>
</glyph>
<glyph name="comma" format="2">
  <advance width="245"/>
  <unicode hex="002C"/>
  <outline>
    <contour>
      <point x="41" y="-154" type="line"/>
      <point x="145" y="-121"/>
      <point x="184" y="-48"/>
      <point x="184" y="33" type="curve" smooth="yes"/>
      <point x="184" y="99"/>
      <point x="160" y="140"/>
      <point x="113" y="140" type="curve" smooth="yes"/>
      <point x="79" y="140"/>
      <point x="52" y="117"/>
      <point x="52" y="77" type="curve" smooth="yes"/>
      <point x="52" y="5"/>
      <point x="109" y="11"/>
      <point x="109" y="-25" type="curve" smooth="yes"/>
      <point x="109" y="-61"/>
      <point x="85" y="-87"/>
      <point x="41" y="-107" type="curve"/>
    </contour>
  </outline>
</glyph>
<glyph name="period" format="2">
  <advance width="245"/>
  <unicode hex="002E"/>
  <outline>
    <contour>
      <point x="123" y="-8" type="curve" smooth="yes"/>
      <point x="159" y="-8"/>
      <point x="191" y="10"/>
      <point x="191" y="66" type="curve" smooth="yes"/>
      <point x="191" y="122"/>
      <point x="159" y="140"/>
      <point x="123" y="140" type="curve" smooth="yes"/>
      <point x="84" y="140"/>
      <point x="54" y="122"/>
      <point x="54" y="66" type="curve" smooth="yes"/>
      <point x="54" y="10"/>
      <point x="84" y="-8"/>
    </contour>
  </outline>
</glyph>
<glyph name="zero" format="2">
  <advance width="456"/>
  <unicode hex="0030"/>
  <outline>
    <contour>
      <point x="228" y="-10" type="curve" smooth="yes"/>
      <point x="373" y="-10"/>
      <point x="429" y="130"/>
      <point x="429" y="358" type="curve" smooth="yes"/>
      <point x="429" y="588"/>
      <point x="375" y="724"/>
      <point x="229" y="724" type="curve" smooth="yes"/>
      <point x="75" y="724"/>
      <point x="26" y="585"/>
      <point x="26" y="359" type="curve" smooth="yes"/>
      <point x="26" y="128"/>
      <point x="76" y="-10"/>
    </contour>
    <contour>
      <point x="228" y="50" type="curve" smooth="yes"/>
      <point x="169" y="50"/>
      <point x="158" y="163"/>
      <point x="158" y="358" type="curve" smooth="yes"/>
      <point x="158" y="553"/>
      <point x="169" y="664"/>
      <point x="229" y="664" type="curve" smooth="yes"/>
      <point x="286" y="664"/>
      <point x="298" y="553"/>
      <point x="298" y="358" type="curve" smooth="yes"/>
      <point x="298" y="163"/>
      <point x="286" y="50"/>
    </contour>
  </outline>
</glyph>
<glyph name="one" format="2">
  <advance width="456"/>
  <unicode hex="0031"/>
  <outline>
    <contour>
      <point x="70" y="0" type="line"/>
      <point x="411" y="0" type="line"/>
      <point x="411" y="50" type="line"/>
      <point x="366" y="50" type="line" smooth="yes"/>
      <point x="331" y="50"/>
      <point x="310" y="68"/>
      <point x="310" y="116" type="curve" smooth="yes"/>
      <point x="310" y="718" type="line"/>
      <point x="215" y="718" type="line"/>
      <point x="158" y="669" type="line" smooth="yes"/>
      <point x="103" y="621"/>
      <point x="64" y="604"/>
      <point x="31" y="594" type="curve"/>
      <point x="31" y="552"/>
      <point x="52" y="527"/>
      <point x="79" y="527" type="curve" smooth="yes"/>
      <point x="112" y="527"/>
      <point x="145" y="563"/>
      <point x="185" y="620" type="curve"/>
      <point x="185" y="116" type="line" smooth="yes"/>
      <point x="185" y="61"/>
      <point x="160" y="50"/>
      <point x="128" y="50" type="curve" smooth="yes"/>
      <point x="70" y="50" type="line"/>
    </contour>
  </outline>
</glyph>
<glyph name="two" format="2">
  <advance width="456"/>
  <unicode hex="0032"/>
  <outline>
    <contour>
      <point x="28" y="0" type="line"/>
      <point x="421" y="0" type="line"/>
      <point x="425" y="199" type="line"/>
      <point x="374" y="199" type="line"/>
      <point x="367" y="171" type="line" smooth="yes"/>
      <point x="356" y="124"/>
      <point x="330" y="101"/>
      <point x="299" y="101" type="curve" smooth="yes"/>
      <point x="118" y="101" type="line"/>
      <point x="240" y="242" type="line" smooth="yes"/>
      <point x="338" y="348"/>
      <point x="406" y="439"/>
      <point x="406" y="552" type="curve" smooth="yes"/>
      <point x="406" y="654"/>
      <point x="339" y="724"/>
      <point x="213" y="724" type="curve" smooth="yes"/>
      <point x="91" y="724"/>
      <point x="32" y="657"/>
      <point x="32" y="587" type="curve" smooth="yes"/>
      <point x="32" y="523"/>
      <point x="83" y="506"/>
      <point x="137" y="506" type="curve"/>
      <point x="137" y="609"/>
      <point x="158" y="666"/>
      <point x="213" y="666" type="curve" smooth="yes"/>
      <point x="251" y="666"/>
      <point x="276" y="628"/>
      <point x="276" y="547" type="curve" smooth="yes"/>
      <point x="276" y="451"/>
      <point x="247" y="373"/>
      <point x="149" y="247" type="curve" smooth="yes"/>
      <point x="28" y="88" type="line"/>
    </contour>
  </outline>
</glyph>
<glyph name="three" format="2">
  <advance width="456"/>
  <unicode hex="0033"/>
  <outline>
    <contour>
      <point x="204" y="-10" type="curve"/>
      <point x="319" y="-10"/>
      <point x="425" y="43"/>
      <point x="425" y="201" type="curve" smooth="yes"/>
      <point x="425" y="317"/>
      <point x="352" y="365"/>
      <point x="283" y="379" type="curve"/>
      <point x="352" y="406"/>
      <point x="405" y="468"/>
      <point x="405" y="558" type="curve" smooth="yes"/>
      <point x="405" y="664"/>
      <point x="332" y="724"/>
      <point x="216" y="724" type="curve" smooth="yes"/>
      <point x="95" y="724"/>
      <point x="36" y="660"/>
      <point x="36" y="590" type="curve" smooth="yes"/>
      <point x="36" y="535"/>
      <point x="77" y="516"/>
      <point x="135" y="516" type="curve"/>
      <point x="135" y="595"/>
      <point x="155" y="666"/>
      <point x="209" y="666" type="curve" smooth="yes"/>
      <point x="251" y="666"/>
      <point x="275" y="621"/>
      <point x="275" y="548" type="curve" smooth="yes"/>
      <point x="275" y="457"/>
      <point x="249" y="399"/>
      <point x="179" y="399" type="curve"/>
      <point x="123" y="399" type="line"/>
      <point x="123" y="342" type="line"/>
      <point x="175" y="342" type="line" smooth="yes"/>
      <point x="256" y="342"/>
      <point x="295" y="286"/>
      <point x="295" y="202" type="curve" smooth="yes"/>
      <point x="295" y="90"/>
      <point x="251" y="55"/>
      <point x="200" y="55" type="curve" smooth="yes"/>
      <point x="141" y="55"/>
      <point x="100" y="106"/>
      <point x="100" y="186" type="curve"/>
      <point x="59" y="186"/>
      <point x="23" y="161"/>
      <point x="23" y="113" type="curve" smooth="yes"/>
      <point x="23" y="44"/>
      <point x="73" y="-10"/>
    </contour>
  </outline>
</glyph>
<glyph name="four" format="2">
  <advance width="456"/>
  <unicode hex="0034"/>
  <outline>
    <contour>
      <point x="144" y="0" type="line"/>
      <point x="435" y="0" type="line"/>
      <point x="435" y="50" type="line"/>
      <point x="425" y="50" type="line" smooth="yes"/>
      <point x="388" y="50"/>
      <point x="357" y="59"/>
      <point x="357" y="122" type="curve" smooth="yes"/>
      <point x="357" y="189" type="line"/>
      <point x="439" y="189" type="line"/>
      <point x="439" y="252" type="line"/>
      <point x="357" y="252" type="line"/>
      <point x="357" y="714" type="line"/>
      <point x="235" y="714" type="line"/>
      <point x="11" y="244" type="line"/>
      <point x="11" y="189" type="line"/>
      <point x="233" y="189" type="line"/>
      <point x="233" y="122" type="line" smooth="yes"/>
      <point x="233" y="59"/>
      <point x="204" y="50"/>
      <point x="166" y="50" type="curve" smooth="yes"/>
      <point x="144" y="50" type="line"/>
    </contour>
    <contour>
      <point x="75" y="252" type="line"/>
      <point x="175" y="465" type="line" smooth="yes"/>
      <point x="196" y="511"/>
      <point x="224" y="579"/>
      <point x="239" y="621" type="curve"/>
      <point x="234" y="559"/>
      <point x="233" y="496"/>
      <point x="233" y="438" type="curve" smooth="yes"/>
      <point x="233" y="252" type="line"/>
    </contour>
  </outline>
</glyph>
<glyph name="six" format="2">
  <advance width="456"/>
  <unicode hex="0036"/>
  <outline>
    <contour>
      <point x="239" y="-10" type="curve" smooth="yes"/>
      <point x="365" y="-10"/>
      <point x="429" y="88"/>
      <point x="429" y="230" type="curve" smooth="yes"/>
      <point x="429" y="359"/>
      <point x="365" y="436"/>
      <point x="267" y="436" type="curve" smooth="yes"/>
      <point x="210" y="436"/>
      <point x="179" y="414"/>
      <point x="157" y="394" type="curve"/>
      <point x="163" y="570"/>
      <point x="194" y="668"/>
      <point x="255" y="668" type="curve" smooth="yes"/>
      <point x="298" y="668"/>
      <point x="319" y="614"/>
      <point x="319" y="543" type="curve"/>
      <point x="386" y="543"/>
      <point x="412" y="572"/>
      <point x="412" y="615" type="curve" smooth="yes"/>
      <point x="412" y="672"/>
      <point x="366" y="724"/>
      <point x="259" y="724" type="curve" smooth="yes"/>
      <point x="108" y="724"/>
      <point x="35" y="583"/>
      <point x="35" y="335" type="curve" smooth="yes"/>
      <point x="35" y="97"/>
      <point x="117" y="-10"/>
    </contour>
    <contour>
      <point x="239" y="50" type="curve" smooth="yes"/>
      <point x="183" y="50"/>
      <point x="159" y="143"/>
      <point x="157" y="335" type="curve"/>
      <point x="173" y="353"/>
      <point x="198" y="377"/>
      <point x="236" y="377" type="curve" smooth="yes"/>
      <point x="280" y="377"/>
      <point x="307" y="331"/>
      <point x="307" y="220" type="curve" smooth="yes"/>
      <point x="307" y="103"/>
      <point x="282" y="50"/>
    </contour>
  </outline>
</glyph>
<glyph name="seven" format="2">
  <advance width="456"/>
  <unicode hex="0037"/>
  <outline>
    <contour>
      <point x="125" y="0" type="line"/>
      <point x="205" y="0" type="line"/>
      <point x="422" y="671" type="line"/>
      <point x="422" y="714" type="line"/>
      <point x="42" y="714" type="line"/>
      <point x="37" y="513" type="line"/>
      <point x="90" y="513" type="line"/>
      <point x="96" y="561" type="line" smooth="yes"/>
      <point x="99" y="597"/>
      <point x="112" y="614"/>
      <point x="142" y="614" type="curve"/>
      <point x="345" y="614" type="line"/>
    </contour>
  </outline>
</glyph>
<glyph name="eight" format="2">
  <advance width="456"/>
  <unicode hex="0038"/>
  <outline>
    <contour>
      <point x="224" y="-10" type="curve" smooth="yes"/>
      <point x="356" y="-10"/>
      <point x="433" y="65"/>
      <point x="433" y="182" type="curve" smooth="yes"/>
      <point x="433" y="284"/>
      <point x="392" y="335"/>
      <point x="304" y="385" type="curve"/>
      <point x="371" y="421"/>
      <point x="412" y="469"/>
      <point x="412" y="559" type="curve" smooth="yes"/>
      <point x="412" y="653"/>
      <point x="351" y="724"/>
      <point x="233" y="724" type="curve" smooth="yes"/>
      <point x="97" y="724"/>
      <point x="42" y="644"/>
      <point x="42" y="545" type="curve" smooth="yes"/>
      <point x="42" y="455"/>
      <point x="84" y="405"/>
      <point x="147" y="364" type="curve"/>
      <point x="78" y="330"/>
      <point x="23" y="277"/>
      <point x="23" y="174" type="curve" smooth="yes"/>
      <point x="23" y="73"/>
      <point x="85" y="-10"/>
    </contour>
    <contour>
      <point x="227" y="47" type="curve" smooth="yes"/>
      <point x="174" y="47"/>
      <point x="137" y="92"/>
      <point x="137" y="180" type="curve" smooth="yes"/>
      <point x="137" y="249"/>
      <point x="158" y="299"/>
      <point x="194" y="332" type="curve"/>
      <point x="271" y="282"/>
      <point x="310" y="234"/>
      <point x="310" y="166" type="curve" smooth="yes"/>
      <point x="310" y="90"/>
      <point x="276" y="47"/>
    </contour>
    <contour>
      <point x="251" y="414" type="curve"/>
      <point x="196" y="448"/>
      <point x="162" y="487"/>
      <point x="162" y="561" type="curve" smooth="yes"/>
      <point x="162" y="626"/>
      <point x="186" y="667"/>
      <point x="230" y="667" type="curve" smooth="yes"/>
      <point x="278" y="667"/>
      <point x="302" y="617"/>
      <point x="302" y="556" type="curve" smooth="yes"/>
      <point x="302" y="486"/>
      <point x="284" y="443"/>
    </contour>
  </outline>
</glyph>
<glyph name="nine" format="2">
  <advance width="456"/>
  <unicode hex="0039"/>
  <outline>
    <contour>
      <point x="185" y="-10" type="curve"/>
      <point x="354" y="-10"/>
      <point x="422" y="156"/>
      <point x="422" y="388" type="curve"/>
      <point x="422" y="630"/>
      <point x="333" y="724"/>
      <point x="214" y="724" type="curve" smooth="yes"/>
      <point x="96" y="724"/>
      <point x="27" y="626"/>
      <point x="27" y="485" type="curve" smooth="yes"/>
      <point x="27" y="351"/>
      <point x="93" y="279"/>
      <point x="186" y="279" type="curve" smooth="yes"/>
      <point x="242" y="279"/>
      <point x="277" y="307"/>
      <point x="300" y="340" type="curve"/>
      <point x="295" y="148"/>
      <point x="260" y="51"/>
      <point x="192" y="51" type="curve" smooth="yes"/>
      <point x="134" y="51"/>
      <point x="112" y="97"/>
      <point x="96" y="152" type="curve"/>
      <point x="62" y="145"/>
      <point x="49" y="118"/>
      <point x="49" y="90" type="curve" smooth="yes"/>
      <point x="49" y="38"/>
      <point x="87" y="-10"/>
    </contour>
    <contour>
      <point x="222" y="342" type="curve"/>
      <point x="173" y="343"/>
      <point x="149" y="395"/>
      <point x="149" y="488" type="curve" smooth="yes"/>
      <point x="149" y="602"/>
      <point x="174" y="663"/>
      <point x="221" y="663" type="curve" smooth="yes"/>
      <point x="271" y="663"/>
      <point x="299" y="591"/>
      <point x="301" y="400" type="curve"/>
      <point x="283" y="370"/>
      <point x="260" y="343"/>
    </contour>
  </outline>
</glyph>
<glyph name="colon" format="2">
  <advance width="244"/>
  <unicode hex="003A"/>
  <outline>
    <contour>
      <point x="122" y="392" type="curve" smooth="yes"/>
      <point x="158" y="392"/>
      <point x="190" y="410"/>
      <point x="190" y="465" type="curve" smooth="yes"/>
      <point x="190" y="521"/>
      <point x="158" y="539"/>
      <point x="122" y="539" type="curve" smooth="yes"/>
      <point x="84" y="539"/>
      <point x="54" y="521"/>
      <point x="54" y="465" type="curve" smooth="yes"/>
      <point x="54" y="410"/>
      <point x="84" y="392"/>
    </contour>
    <contour>
      <point x="122" y="-8" type="curve" smooth="yes"/>
      <point x="158" y="-8"/>
      <point x="190" y="10"/>
      <point x="190" y="66" type="curve" smooth="yes"/>
      <point x="190" y="122"/>
      <point x="158" y="140"/>
      <point x="122" y="140" type="curve" smooth="yes"/>
      <point x="84" y="140"/>
      <point x="54" y="122"/>
      <point x="54" y="66" type="curve" smooth="yes"/>
      <point x="54" y="10"/>
      <point x="84" y="-8"/>
    </contour>
  </outline>
</glyph>
<glyph name="semicolon" format="2">
  <advance width="243"/>
  <unicode hex="003B"/>
  <outline>
    <contour>
      <point x="41" y="-154" type="line"/>
      <point x="146" y="-121"/>
      <point x="185" y="-48"/>
      <point x="185" y="33" type="curve" smooth="yes"/>
      <point x="185" y="99"/>
      <point x="161" y="140"/>
      <point x="113" y="140" type="curve" smooth="yes"/>
      <point x="80" y="140"/>
      <point x="53" y="117"/>
      <point x="53" y="77" type="curve" smooth="yes"/>
      <point x="53" y="5"/>
      <point x="110" y="11"/>
      <point x="110" y="-25" type="curve" smooth="yes"/>
      <point x="110" y="-63"/>
      <point x="87" y="-87"/>
      <point x="41" y="-107" type="curve"/>
    </contour>
    <contour>
      <point x="119" y="392" type="curve" smooth="yes"/>
      <point x="156" y="392"/>
      <point x="187" y="410"/>
      <point x="187" y="465" type="curve" smooth="yes"/>
      <point x="187" y="521"/>
      <point x="156" y="539"/>
      <point x="119" y="539" type="curve" smooth="yes"/>
      <point x="81" y="539"/>
      <point x="51" y="521"/>
      <point x="51" y="465" type="curve" smooth="yes"/>
      <point x="51" y="410"/>
      <point x="81" y="392"/>
    </contour>
  </outline>
</glyph>
<glyph name="equal" format="2">
  <advance width="425"/>
  <unicode hex="003D"/>
  <outline>
    <contour>
      <point x="36" y="414" type="line"/>
      <point x="389" y="414" type="line"/>
      <point x="389" y="481" type="line"/>
      <point x="36" y="481" type="line"/>
    </contour>
    <contour>
      <point x="36" y="233" type="line"/>
      <point x="389" y="233" type="line"/>
      <point x="389" y="300" type="line"/>
      <point x="36" y="300" type="line"/>
    </contour>
  </outline>
</glyph>
<glyph name="question" format="2">
  <advance width="451"/>
  <unicode hex="003F"/>
  <outline>
    <contour>
      <point x="177" y="222" type="line"/>
      <point x="232" y="222" type="line"/>
      <point x="249" y="323" type="line"/>
      <point x="359" y="376"/>
      <point x="410" y="435"/>
      <point x="410" y="543" type="curve" smooth="yes"/>
      <point x="410" y="658"/>
      <point x="332" y="724"/>
      <point x="209" y="724" type="curve" smooth="yes"/>
      <point x="88" y="724"/>
      <point x="31" y="668"/>
      <point x="31" y="607" type="curve" smooth="yes"/>
      <point x="31" y="554"/>
      <point x="72" y="537"/>
      <point x="143" y="537" type="curve"/>
      <point x="143" y="618"/>
      <point x="163" y="667"/>
      <point x="209" y="667" type="curve" smooth="yes"/>
      <point x="251" y="667"/>
      <point x="274" y="617"/>
      <point x="274" y="550" type="curve" smooth="yes"/>
      <point x="274" y="467"/>
      <point x="253" y="395"/>
      <point x="160" y="348" type="curve"/>
    </contour>
    <contour>
      <point x="203" y="-8" type="curve" smooth="yes"/>
      <point x="240" y="-8"/>
      <point x="272" y="10"/>
      <point x="272" y="66" type="curve" smooth="yes"/>
      <point x="272" y="122"/>
      <point x="240" y="140"/>
      <point x="203" y="140" type="curve" smooth="yes"/>
      <point x="165" y="140"/>
      <point x="136" y="122"/>
      <point x="136" y="66" type="curve" smooth="yes"/>
      <point x="136" y="10"/>
      <point x="165" y="-8"/>
    </contour>
  </outline>
</glyph>
<glyph name="bracketleft" format="2">
  <advance width="344"/>
  <unicode hex="005B"/>
  <outline>
    <contour>
      <point x="81" y="-128" type="line"/>
      <point x="314" y="-128" type="line"/>
      <point x="314" y="-78" type="line"/>
      <point x="279" y="-78" type="line" smooth="yes"/>
      <point x="243" y="-78"/>
      <point x="212" y="-69"/>
      <point x="212" y="-6" type="curve" smooth="yes"/>
      <point x="212" y="638" type="line" smooth="yes"/>
      <point x="212" y="701"/>
      <point x="243" y="710"/>
      <point x="279" y="710" type="curve" smooth="yes"/>
      <point x="314" y="710" type="line"/>
      <point x="314" y="760" type="line"/>
      <point x="81" y="760" type="line"/>
    </contour>
  </outline>
</glyph>
<glyph name="bracketright" format="2">
  <advance width="344"/>
  <unicode hex="005D"/>
  <outline>
    <contour>
      <point x="31" y="-128" type="line"/>
      <point x="263" y="-128" type="line"/>
      <point x="263" y="760" type="line"/>
      <point x="31" y="760" type="line"/>
      <point x="31" y="710" type="line"/>
      <point x="65" y="710" type="line" smooth="yes"/>
      <point x="102" y="710"/>
      <point x="132" y="701"/>
      <point x="132" y="638" type="curve" smooth="yes"/>
      <point x="132" y="-6" type="line" smooth="yes"/>
      <point x="132" y="-69"/>
      <point x="102" y="-78"/>
      <point x="65" y="-78" type="curve" smooth="yes"/>
      <point x="31" y="-78" type="line"/>
    </contour>
  </outline>
</glyph>
<glyph name="asciicircum" format="2">
  <advance width="424"/>
  <unicode hex="005E"/>
  <outline>
    <contour>
      <point x="21" y="264" type="line"/>
      <point x="86" y="264" type="line"/>
      <point x="211" y="610" type="line"/>
      <point x="337" y="264" type="line"/>
      <point x="403" y="264" type="line"/>
      <point x="229" y="714" type="line"/>
      <point x="194" y="714" type="line"/>
    </contour>
  </outline>
</glyph>
<glyph name="braceleft" format="2">
  <advance width="361"/>
  <unicode hex="007B"/>
  <outline>
    <contour>
      <point x="259" y="-126" type="curve" smooth="yes"/>
      <point x="340" y="-126" type="line"/>
      <point x="340" y="-76" type="line"/>
      <point x="307" y="-76" type="line" smooth="yes"/>
      <point x="261" y="-76"/>
      <point x="250" y="-40"/>
      <point x="250" y="24" type="curve" smooth="yes"/>
      <point x="250" y="195" type="line" smooth="yes"/>
      <point x="250" y="258"/>
      <point x="222" y="299"/>
      <point x="161" y="316" type="curve"/>
      <point x="161" y="322" type="line"/>
      <point x="224" y="338"/>
      <point x="250" y="378"/>
      <point x="250" y="440" type="curve" smooth="yes"/>
      <point x="250" y="611" type="line" smooth="yes"/>
      <point x="250" y="676"/>
      <point x="261" y="710"/>
      <point x="307" y="710" type="curve" smooth="yes"/>
      <point x="340" y="710" type="line"/>
      <point x="340" y="760" type="line"/>
      <point x="259" y="760" type="line" smooth="yes"/>
      <point x="165" y="760"/>
      <point x="116" y="707"/>
      <point x="116" y="615" type="curve" smooth="yes"/>
      <point x="116" y="442" type="line" smooth="yes"/>
      <point x="116" y="366"/>
      <point x="75" y="348"/>
      <point x="22" y="346" type="curve"/>
      <point x="22" y="291" type="line"/>
      <point x="75" y="288"/>
      <point x="116" y="271"/>
      <point x="116" y="192" type="curve" smooth="yes"/>
      <point x="116" y="21" type="line" smooth="yes"/>
      <point x="116" y="-70"/>
      <point x="165" y="-126"/>
    </contour>
  </outline>
</glyph>
<glyph name="bar" format="2">
  <advance width="456"/>
  <unicode hex="007C"/>
  <outline>
    <contour>
      <point x="197" y="-240" type="line"/>
      <point x="258" y="-240" type="line"/>
      <point x="258" y="760" type="line"/>
      <point x="197" y="760" type="line"/>
    </contour>
  </outline>
</glyph>
<glyph name="braceright" format="2">
  <advance width="361"/>
  <unicode hex="007D"/>
  <outline>
    <contour>
      <point x="22" y="-126" type="line"/>
      <point x="103" y="-126" type="line"/>
      <point x="197" y="-126"/>
      <point x="245" y="-70"/>
      <point x="245" y="21" type="curve" smooth="yes"/>
      <point x="245" y="192" type="line" smooth="yes"/>
      <point x="245" y="271"/>
      <point x="287" y="288"/>
      <point x="340" y="291" type="curve"/>
      <point x="340" y="346" type="line"/>
      <point x="287" y="348"/>
      <point x="245" y="366"/>
      <point x="245" y="442" type="curve" smooth="yes"/>
      <point x="245" y="615" type="line" smooth="yes"/>
      <point x="245" y="707"/>
      <point x="197" y="760"/>
      <point x="103" y="760" type="curve" smooth="yes"/>
      <point x="22" y="760" type="line"/>
      <point x="22" y="710" type="line"/>
      <point x="55" y="710" type="line" smooth="yes"/>
      <point x="101" y="710"/>
      <point x="111" y="676"/>
      <point x="111" y="611" type="curve" smooth="yes"/>
      <point x="111" y="440" type="line" smooth="yes"/>
      <point x="111" y="378"/>
      <point x="138" y="338"/>
      <point x="202" y="322" type="curve"/>
      <point x="202" y="316" type="line"/>
      <point x="138" y="299"/>
      <point x="111" y="258"/>
      <point x="111" y="195" type="curve" smooth="yes"/>
      <point x="111" y="24" type="line" smooth="yes"/>
      <point x="111" y="-40"/>
      <point x="101" y="-76"/>
      <point x="55" y="-76" type="curve" smooth="yes"/>
      <point x="22" y="-76" type="line"/>
    </contour>
  </outline>
</glyph>
<glyph name="asciitilde" format="2">
  <advance width="425"/>
  <unicode hex="007E"/>
  <outline>
    <contour>
      <point x="18" y="264" type="curve"/>
      <point x="83" y="264" type="line"/>
      <point x="86" y="347"/>
      <point x="101" y="381"/>
      <point x="131" y="381" type="curve" smooth="yes"/>
      <point x="150" y="381"/>
      <point x="163" y="367"/>
      <point x="196" y="329" type="curve" smooth="yes"/>
      <point x="244" y="273"/>
      <point x="268" y="264"/>
      <point x="299" y="264" type="curve" smooth="yes"/>
      <point x="381" y="264"/>
      <point x="406" y="353"/>
      <point x="408" y="449" type="curve"/>
      <point x="343" y="449" type="line"/>
      <point x="341" y="365"/>
      <point x="327" y="332"/>
      <point x="297" y="332" type="curve" smooth="yes"/>
      <point x="276" y="332"/>
      <point x="265" y="349"/>
      <point x="235" y="382" type="curve" smooth="yes"/>
      <point x="191" y="429"/>
      <point x="165" y="449"/>
      <point x="128" y="449" type="curve" smooth="yes"/>
      <point x="46" y="449"/>
      <point x="21" y="361"/>
    </contour>
  </outline>
</glyph>
<glyph name="uni00AD" format="2">
  <advance width="254"/>
  <unicode hex="00AD"/>
  <outline>
    <contour>
      <point x="21" y="224" type="line"/>
      <point x="233" y="224" type="line"/>
      <point x="233" y="321" type="line"/>
      <point x="21" y="321" type="line"/>
    </contour>
  </outline>
</glyph>
<glyph name="multiply" format="2">
  <advance width="425"/>
  <unicode hex="00D7"/>
  <outline>
    <contour>
      <point x="89" y="158" type="line"/>
      <point x="213" y="308" type="line"/>
      <point x="335" y="160" type="line"/>
      <point x="384" y="202" type="line"/>
      <point x="255" y="359" type="line"/>
      <point x="384" y="516" type="line"/>
      <point x="334" y="557" type="line"/>
      <point x="213" y="410" type="line"/>
      <point x="90" y="559" type="line"/>
      <point x="40" y="518" type="line"/>
      <point x="171" y="359" type="line"/>
      <point x="40" y="200" type="line"/>
    </contour>
  </outline>
</glyph>
<glyph name="uni02BC" format="2">
  <advance width="232"/>
  <unicode hex="02BC"/>
  <outline>
    <contour>
      <point x="39" y="415" type="line"/>
      <point x="146" y="450"/>
      <point x="186" y="526"/>
      <point x="186" y="611" type="curve" smooth="yes"/>
      <point x="186" y="675"/>
      <point x="157" y="714"/>
      <point x="109" y="714" type="curve" smooth="yes"/>
      <point x="76" y="714"/>
      <point x="50" y="691"/>
      <point x="50" y="648" type="curve" smooth="yes"/>
      <point x="50" y="573"/>
      <point x="110" y="585"/>
      <point x="110" y="546" type="curve"/>
      <point x="110" y="507"/>
      <point x="85" y="485"/>
      <point x="39" y="464" type="curve"/>
    </contour>
  </outline>
</glyph>
<glyph name="udatta-deva" format="2">
  <unicode hex="0951"/>
  <outline>
    <contour>
      <point x="-152" y="676" type="line"/>
      <point x="-66" y="676" type="line"/>
      <point x="-66" y="876" type="line"/>
      <point x="-152" y="876" type="line"/>
    </contour>
  </outline>
</glyph>
<glyph name="anudatta-deva" format="2">
  <unicode hex="0952"/>
  <outline>
    <contour>
      <point x="-405" y="-162" type="line"/>
      <point x="-28" y="-162" type="line"/>
      <point x="-28" y="-70" type="line"/>
      <point x="-405" y="-70" type="line"/>
    </contour>
  </outline>
</glyph>
<glyph name="danda-deva" format="2">
  <advance width="349"/>
  <unicode hex="0964"/>
  <outline>
    <contour>
      <point x="293" y="-35" type="line"/>
      <point x="301" y="-32" type="line"/>
      <point x="301" y="588" type="line"/>
      <point x="214" y="625" type="line"/>
      <point x="211" y="625" type="line"/>
      <point x="211" y="2" type="line"/>
    </contour>
  </outline>
</glyph>
<glyph name="dbldanda-deva" format="2">
  <advance width="501"/>
  <unicode hex="0965"/>
  <outline>
    <contour>
      <point x="446" y="-35" type="line"/>
      <point x="453" y="-32" type="line"/>
      <point x="453" y="588" type="line"/>
      <point x="367" y="625" type="line"/>
      <point x="364" y="625" type="line"/>
      <point x="364" y="2" type="line"/>
    </contour>
    <contour>
      <point x="293" y="-35" type="line"/>
      <point x="301" y="-32" type="line"/>
      <point x="301" y="588" type="line"/>
      <point x="214" y="625" type="line"/>
      <point x="211" y="625" type="line"/>
      <point x="211" y="2" type="line"/>
    </contour>
  </outline>
</glyph>
<glyph name="anji-beng" format="2">
  <advance width="482"/>
  <unicode hex="0980"/>
  <outline>
    <contour>
      <point x="399" y="-33" type="curve" smooth="yes"/>
      <point x="448" y="-33"/>
      <point x="477" y="-1"/>
      <point x="477" y="47" type="curve" smooth="yes"/>
      <point x="477" y="93"/>
      <point x="446" y="124"/>
      <point x="408" y="124" type="curve" smooth="yes"/>
      <point x="367" y="124"/>
      <point x="352" y="91"/>
      <point x="351" y="62" type="curve"/>
      <point x="388" y="57" type="line"/>
      <point x="388" y="472" type="line" smooth="yes"/>
      <point x="388" y="563"/>
      <point x="326" y="631"/>
      <point x="230" y="631" type="curve" smooth="yes"/>
      <point x="126" y="631"/>
      <point x="36" y="540"/>
      <point x="36" y="408" type="curve" smooth="yes"/>
      <point x="36" y="279"/>
      <point x="107" y="210"/>
      <point x="190" y="210" type="curve" smooth="yes"/>
      <point x="245" y="210"/>
      <point x="279" y="248"/>
      <point x="279" y="304" type="curve" smooth="yes"/>
      <point x="279" y="357"/>
      <point x="250" y="390"/>
      <point x="209" y="390" type="curve" smooth="yes"/>
      <point x="168" y="390"/>
      <point x="141" y="360"/>
      <point x="141" y="314" type="curve" smooth="yes"/>
      <point x="141" y="296"/>
      <point x="144" y="279"/>
      <point x="148" y="270" type="curve"/>
      <point x="190" y="292" type="line"/>
      <point x="180" y="289"/>
      <point x="169" y="288"/>
      <point x="159" y="288" type="curve" smooth="yes"/>
      <point x="133" y="288"/>
      <point x="118" y="318"/>
      <point x="118" y="372" type="curve" smooth="yes"/>
      <point x="118" y="465"/>
      <point x="203" y="538"/>
      <point x="256" y="538" type="curve" smooth="yes"/>
      <point x="289" y="538"/>
      <point x="302" y="518"/>
      <point x="302" y="480" type="curve" smooth="yes"/>
      <point x="302" y="89" type="line" smooth="yes"/>
      <point x="302" y="19"/>
      <point x="338" y="-33"/>
    </contour>
  </outline>
</glyph>
<glyph name="anusvara-beng" format="2">
  <advance width="317"/>
  <unicode hex="0982"/>
  <outline>
    <contour>
      <point x="157" y="335" type="curve" smooth="yes"/>
      <point x="229" y="335"/>
      <point x="281" y="396"/>
      <point x="281" y="481" type="curve" smooth="yes"/>
      <point x="281" y="559"/>
      <point x="235" y="622"/>
      <point x="164" y="622" type="curve" smooth="yes"/>
      <point x="92" y="622"/>
      <point x="40" y="560"/>
      <point x="40" y="476" type="curve" smooth="yes"/>
      <point x="40" y="399"/>
      <point x="88" y="335"/>
    </contour>
    <contour>
      <point x="136" y="407" type="curve" smooth="yes"/>
      <point x="122" y="407"/>
      <point x="111" y="419"/>
      <point x="111" y="443" type="curve" smooth="yes"/>
      <point x="111" y="489"/>
      <point x="158" y="548"/>
      <point x="189" y="548" type="curve" smooth="yes"/>
      <point x="204" y="548"/>
      <point x="212" y="534"/>
      <point x="212" y="517" type="curve" smooth="yes"/>
      <point x="212" y="473"/>
      <point x="168" y="407"/>
    </contour>
    <contour>
      <point x="264" y="-67" type="curve"/>
      <point x="312" y="-49" type="line"/>
      <point x="256" y="100"/>
      <point x="183" y="231"/>
      <point x="99" y="298" type="curve"/>
      <point x="40" y="180" type="line"/>
      <point x="120" y="130"/>
      <point x="176" y="82"/>
    </contour>
  </outline>
</glyph>
<glyph name="visarga-beng" format="2">
  <advance width="321"/>
  <unicode hex="0983"/>
  <outline>
    <contour>
      <point x="157" y="335" type="curve" smooth="yes"/>
      <point x="229" y="335"/>
      <point x="281" y="396"/>
      <point x="281" y="481" type="curve" smooth="yes"/>
      <point x="281" y="559"/>
      <point x="235" y="622"/>
      <point x="164" y="622" type="curve" smooth="yes"/>
      <point x="92" y="622"/>
      <point x="40" y="560"/>
      <point x="40" y="476" type="curve" smooth="yes"/>
      <point x="40" y="399"/>
      <point x="88" y="335"/>
    </contour>
    <contour>
      <point x="136" y="407" type="curve" smooth="yes"/>
      <point x="122" y="407"/>
      <point x="111" y="419"/>
      <point x="111" y="443" type="curve" smooth="yes"/>
      <point x="111" y="489"/>
      <point x="158" y="548"/>
      <point x="189" y="548" type="curve" smooth="yes"/>
      <point x="204" y="548"/>
      <point x="212" y="534"/>
      <point x="212" y="517" type="curve" smooth="yes"/>
      <point x="212" y="473"/>
      <point x="168" y="407"/>
    </contour>
    <contour>
      <point x="157" y="-17" type="curve" smooth="yes"/>
      <point x="229" y="-17"/>
      <point x="281" y="43"/>
      <point x="281" y="129" type="curve" smooth="yes"/>
      <point x="281" y="207"/>
      <point x="235" y="269"/>
      <point x="164" y="269" type="curve" smooth="yes"/>
      <point x="92" y="269"/>
      <point x="40" y="207"/>
      <point x="40" y="123" type="curve" smooth="yes"/>
      <point x="40" y="46"/>
      <point x="88" y="-17"/>
    </contour>
    <contour>
      <point x="136" y="55" type="curve" smooth="yes"/>
      <point x="122" y="55"/>
      <point x="111" y="66"/>
      <point x="111" y="91" type="curve" smooth="yes"/>
      <point x="111" y="137"/>
      <point x="158" y="196"/>
      <point x="189" y="196" type="curve" smooth="yes"/>
      <point x="204" y="196"/>
      <point x="212" y="182"/>
      <point x="212" y="165" type="curve" smooth="yes"/>
      <point x="212" y="121"/>
      <point x="168" y="55"/>
    </contour>
  </outline>
</glyph>
<glyph name="a-beng" format="2">
  <advance width="663"/>
  <unicode hex="0985"/>
  <anchor x="611" y="0" name="bottom"/>
  <anchor x="612" y="87" name="bottom.rakaar"/>
  <anchor x="611" y="11" name="bottom.rvocalic"/>
  <anchor x="595" y="14" name="bottom.virama"/>
  <anchor x="611" y="550" name="top"/>
  <anchor x="611" y="550" name="topright"/>
  <outline>
    <contour>
      <point x="600" y="-24" type="line"/>
      <point x="609" y="-22" type="line"/>
      <point x="609" y="550" type="line"/>
      <point x="694" y="550" type="line"/>
      <point x="656" y="622" type="line"/>
      <point x="-31" y="622" type="line"/>
      <point x="7" y="550" type="line"/>
      <point x="523" y="550" type="line"/>
      <point x="523" y="95" type="line"/>
      <point x="541" y="94" type="line"/>
      <point x="519" y="160"/>
      <point x="482" y="210"/>
      <point x="439" y="244" type="curve"/>
      <point x="404" y="160" type="line"/>
      <point x="459" y="127"/>
      <point x="505" y="80"/>
      <point x="541" y="14" type="curve"/>
    </contour>
    <contour>
      <point x="294" y="53" type="curve" smooth="yes"/>
      <point x="389" y="53"/>
      <point x="473" y="128"/>
      <point x="473" y="277" type="curve" smooth="yes"/>
      <point x="473" y="401"/>
      <point x="408" y="500"/>
      <point x="285" y="500" type="curve" smooth="yes"/>
      <point x="209" y="500"/>
      <point x="162" y="454"/>
      <point x="162" y="380" type="curve" smooth="yes"/>
      <point x="162" y="315"/>
      <point x="202" y="269"/>
      <point x="263" y="269" type="curve" smooth="yes"/>
      <point x="323" y="269"/>
      <point x="354" y="316"/>
      <point x="354" y="379" type="curve" smooth="yes"/>
      <point x="354" y="464"/>
      <point x="297" y="531"/>
      <point x="260" y="563" type="curve"/>
      <point x="103" y="562" type="line"/>
      <point x="232" y="531"/>
      <point x="278" y="460"/>
      <point x="287" y="374" type="curve"/>
      <point x="297" y="382"/>
      <point x="315" y="390"/>
      <point x="336" y="390" type="curve" smooth="yes"/>
      <point x="370" y="390"/>
      <point x="407" y="364"/>
      <point x="407" y="294" type="curve" smooth="yes"/>
      <point x="407" y="216"/>
      <point x="357" y="181"/>
      <point x="292" y="181" type="curve" smooth="yes"/>
      <point x="191" y="181"/>
      <point x="110" y="254"/>
      <point x="62" y="483" type="curve"/>
      <point x="7" y="471" type="line"/>
      <point x="58" y="184"/>
      <point x="146" y="53"/>
    </contour>
  </outline>
</glyph>
<glyph name="aa-beng" format="2">
  <advance width="867"/>
  <unicode hex="0986"/>
  <anchor x="609" y="0" name="bottom"/>
  <anchor x="608" y="87" name="bottom.rakaar"/>
  <anchor x="608" y="11" name="bottom.rvocalic"/>
  <anchor x="592" y="14" name="bottom.virama"/>
  <anchor x="815" y="550" name="top"/>
  <anchor x="815" y="531" name="topright"/>
  <outline>
    <contour>
      <point x="600" y="-24" type="line"/>
      <point x="609" y="-22" type="line"/>
      <point x="609" y="550" type="line"/>
      <point x="682" y="550" type="line"/>
      <point x="643" y="622" type="line"/>
      <point x="-31" y="622" type="line"/>
      <point x="7" y="550" type="line"/>
      <point x="523" y="550" type="line"/>
      <point x="523" y="95" type="line"/>
      <point x="541" y="94" type="line"/>
      <point x="519" y="160"/>
      <point x="482" y="210"/>
      <point x="439" y="244" type="curve"/>
      <point x="404" y="160" type="line"/>
      <point x="459" y="127"/>
      <point x="505" y="80"/>
      <point x="541" y="14" type="curve"/>
    </contour>
    <contour>
      <point x="294" y="53" type="curve" smooth="yes"/>
      <point x="389" y="53"/>
      <point x="473" y="128"/>
      <point x="473" y="277" type="curve" smooth="yes"/>
      <point x="473" y="401"/>
      <point x="408" y="500"/>
      <point x="285" y="500" type="curve" smooth="yes"/>
      <point x="209" y="500"/>
      <point x="162" y="454"/>
      <point x="162" y="380" type="curve" smooth="yes"/>
      <point x="162" y="315"/>
      <point x="202" y="269"/>
      <point x="263" y="269" type="curve" smooth="yes"/>
      <point x="323" y="269"/>
      <point x="354" y="316"/>
      <point x="354" y="379" type="curve" smooth="yes"/>
      <point x="354" y="464"/>
      <point x="297" y="531"/>
      <point x="260" y="563" type="curve"/>
      <point x="103" y="562" type="line"/>
      <point x="232" y="531"/>
      <point x="278" y="460"/>
      <point x="287" y="374" type="curve"/>
      <point x="297" y="382"/>
      <point x="315" y="390"/>
      <point x="336" y="390" type="curve" smooth="yes"/>
      <point x="370" y="390"/>
      <point x="407" y="364"/>
      <point x="407" y="294" type="curve" smooth="yes"/>
      <point x="407" y="216"/>
      <point x="357" y="181"/>
      <point x="292" y="181" type="curve" smooth="yes"/>
      <point x="191" y="181"/>
      <point x="110" y="254"/>
      <point x="62" y="483" type="curve"/>
      <point x="7" y="471" type="line"/>
      <point x="58" y="184"/>
      <point x="146" y="53"/>
    </contour>
    <contour>
      <point x="804" y="-35" type="line"/>
      <point x="812" y="-33" type="line"/>
      <point x="812" y="550" type="line"/>
      <point x="898" y="550" type="line"/>
      <point x="859" y="622" type="line"/>
      <point x="803" y="622" type="line"/>
      <point x="795" y="677" type="line"/>
      <point x="735" y="713" type="line"/>
      <point x="729" y="710" type="line"/>
      <point x="729" y="644" type="line" smooth="yes"/>
      <point x="729" y="609"/>
      <point x="732" y="568"/>
      <point x="736" y="537" type="curve"/>
      <point x="742" y="538" type="line"/>
      <point x="729" y="600"/>
      <point x="705" y="622"/>
      <point x="669" y="622" type="curve" smooth="yes"/>
      <point x="625" y="622" type="line"/>
      <point x="664" y="550" type="line"/>
      <point x="687" y="550" type="line" smooth="yes"/>
      <point x="705" y="550"/>
      <point x="721" y="523"/>
      <point x="726" y="487" type="curve"/>
      <point x="726" y="1" type="line"/>
    </contour>
  </outline>
</glyph>
<glyph name="i-beng" format="2">
  <advance width="419"/>
  <unicode hex="0987"/>
  <anchor x="278" y="52" name="bottom"/>
  <anchor x="392" y="-84" name="bottom.rakaar"/>
  <anchor x="352" y="48" name="bottom.rvocalic"/>
  <anchor x="269" y="55" name="bottom.virama"/>
  <anchor x="305" y="610" name="top"/>
  <anchor x="257" y="612" name="topright"/>
  <outline>
    <contour>
      <point x="321" y="598" type="curve"/>
      <point x="375" y="598" type="line"/>
      <point x="370" y="748"/>
      <point x="322" y="813"/>
      <point x="236" y="813" type="curve" smooth="yes"/>
      <point x="190" y="813"/>
      <point x="160" y="803"/>
      <point x="115" y="803" type="curve" smooth="yes"/>
      <point x="57" y="803"/>
      <point x="32" y="826"/>
      <point x="32" y="885" type="curve" smooth="yes"/>
      <point x="32" y="898"/>
      <point x="33" y="913"/>
      <point x="35" y="926" type="curve"/>
      <point x="-12" y="932" type="line"/>
      <point x="-17" y="908"/>
      <point x="-19" y="881"/>
      <point x="-19" y="858" type="curve" smooth="yes"/>
      <point x="-19" y="758"/>
      <point x="27" y="696"/>
      <point x="122" y="696" type="curve" smooth="yes"/>
      <point x="176" y="696"/>
      <point x="207" y="706"/>
      <point x="244" y="706" type="curve" smooth="yes"/>
      <point x="288" y="706"/>
      <point x="317" y="682"/>
    </contour>
    <contour>
      <point x="412" y="-93" type="curve"/>
      <point x="447" y="-52" type="line"/>
      <point x="363" y="46"/>
      <point x="260" y="140"/>
      <point x="159" y="166" type="curve"/>
      <point x="121" y="134" type="line"/>
      <point x="137" y="124"/>
      <point x="162" y="121"/>
      <point x="187" y="121" type="curve" smooth="yes"/>
      <point x="322" y="121"/>
      <point x="393" y="196"/>
      <point x="393" y="308" type="curve" smooth="yes"/>
      <point x="393" y="433"/>
      <point x="308" y="500"/>
      <point x="170" y="500" type="curve" smooth="yes"/>
      <point x="91" y="500"/>
      <point x="39" y="458"/>
      <point x="39" y="391" type="curve" smooth="yes"/>
      <point x="39" y="329"/>
      <point x="80" y="291"/>
      <point x="135" y="291" type="curve" smooth="yes"/>
      <point x="193" y="291"/>
      <point x="230" y="335"/>
      <point x="230" y="404" type="curve" smooth="yes"/>
      <point x="230" y="471"/>
      <point x="185" y="535"/>
      <point x="159" y="558" type="curve"/>
      <point x="21" y="558" type="line"/>
      <point x="80" y="541"/>
      <point x="122" y="510"/>
      <point x="158" y="462" type="curve"/>
      <point x="158" y="380" type="line"/>
      <point x="172" y="399"/>
      <point x="201" y="420"/>
      <point x="229" y="420" type="curve" smooth="yes"/>
      <point x="273" y="420"/>
      <point x="304" y="388"/>
      <point x="304" y="334" type="curve" smooth="yes"/>
      <point x="304" y="257"/>
      <point x="248" y="220"/>
      <point x="160" y="220" type="curve" smooth="yes"/>
      <point x="107" y="220"/>
      <point x="65" y="232"/>
      <point x="30" y="256" type="curve"/>
      <point x="59" y="111" type="line"/>
      <point x="167" y="85"/>
      <point x="274" y="37"/>
    </contour>
    <contour>
      <point x="7" y="550" type="line"/>
      <point x="450" y="550" type="line"/>
      <point x="411" y="622" type="line"/>
      <point x="-31" y="622" type="line"/>
    </contour>
  </outline>
</glyph>
<glyph name="ii-beng" format="2">
  <advance width="580"/>
  <unicode hex="0988"/>
  <anchor x="511" y="-22" name="bottom"/>
  <anchor x="514" y="47" name="bottom.rakaar"/>
  <anchor x="505" y="-26" name="bottom.rvocalic"/>
  <anchor x="501" y="-38" name="bottom.virama"/>
  <anchor x="356" y="610" name="top"/>
  <anchor x="315" y="612" name="topright"/>
  <outline>
    <contour>
      <point x="474" y="-65" type="curve"/>
      <point x="523" y="-46" type="line"/>
      <point x="503" y="26"/>
      <point x="496" y="76"/>
      <point x="496" y="138" type="curve" smooth="yes"/>
      <point x="496" y="228"/>
      <point x="519" y="317"/>
      <point x="556" y="391" type="curve"/>
      <point x="442" y="484" type="line"/>
      <point x="375" y="430"/>
      <point x="340" y="360"/>
      <point x="306" y="287" type="curve"/>
      <point x="327" y="251" type="line"/>
      <point x="332" y="271"/>
      <point x="334" y="293"/>
      <point x="334" y="314" type="curve" smooth="yes"/>
      <point x="334" y="412"/>
      <point x="293" y="498"/>
      <point x="163" y="498" type="curve" smooth="yes"/>
      <point x="87" y="498"/>
      <point x="43" y="458"/>
      <point x="43" y="393" type="curve" smooth="yes"/>
      <point x="43" y="329"/>
      <point x="85" y="294"/>
      <point x="136" y="294" type="curve" smooth="yes"/>
      <point x="189" y="294"/>
      <point x="227" y="333"/>
      <point x="226" y="403" type="curve" smooth="yes"/>
      <point x="224" y="468"/>
      <point x="183" y="535"/>
      <point x="158" y="557" type="curve"/>
      <point x="37" y="557" type="line"/>
      <point x="76" y="542"/>
      <point x="121" y="509"/>
      <point x="158" y="460" type="curve"/>
      <point x="140" y="379" type="line"/>
      <point x="154" y="398"/>
      <point x="184" y="408"/>
      <point x="206" y="408" type="curve" smooth="yes"/>
      <point x="251" y="408"/>
      <point x="276" y="376"/>
      <point x="276" y="322" type="curve" smooth="yes"/>
      <point x="276" y="285"/>
      <point x="267" y="243"/>
      <point x="250" y="211" type="curve" smooth="yes"/>
      <point x="233" y="177"/>
      <point x="208" y="156"/>
      <point x="180" y="156" type="curve" smooth="yes"/>
      <point x="143" y="156"/>
      <point x="117" y="186"/>
      <point x="94" y="236" type="curve"/>
      <point x="46" y="213" type="line"/>
      <point x="83" y="107"/>
      <point x="136" y="39"/>
      <point x="212" y="39" type="curve" smooth="yes"/>
      <point x="281" y="39"/>
      <point x="326" y="119"/>
      <point x="373" y="207" type="curve" smooth="yes"/>
      <point x="409" y="272"/>
      <point x="437" y="327"/>
      <point x="483" y="375" type="curve"/>
      <point x="457" y="393" type="line"/>
      <point x="430" y="325"/>
      <point x="418" y="261"/>
      <point x="418" y="182" type="curve" smooth="yes"/>
      <point x="418" y="85"/>
      <point x="444" y="5"/>
    </contour>
    <contour>
      <point x="7" y="550" type="line"/>
      <point x="611" y="550" type="line"/>
      <point x="574" y="622" type="line"/>
      <point x="-31" y="622" type="line"/>
    </contour>
    <contour>
      <point x="441" y="598" type="curve"/>
      <point x="497" y="598" type="line"/>
      <point x="487" y="738"/>
      <point x="446" y="819"/>
      <point x="333" y="819" type="curve" smooth="yes"/>
      <point x="270" y="819"/>
      <point x="251" y="805"/>
      <point x="173" y="805" type="curve" smooth="yes"/>
      <point x="109" y="805"/>
      <point x="83" y="828"/>
      <point x="83" y="892" type="curve" smooth="yes"/>
      <point x="83" y="901"/>
      <point x="84" y="914"/>
      <point x="86" y="926" type="curve"/>
      <point x="40" y="932" type="line"/>
      <point x="35" y="909"/>
      <point x="32" y="885"/>
      <point x="32" y="862" type="curve" smooth="yes"/>
      <point x="32" y="760"/>
      <point x="81" y="695"/>
      <point x="190" y="695" type="curve" smooth="yes"/>
      <point x="261" y="695"/>
      <point x="298" y="711"/>
      <point x="352" y="711" type="curve" smooth="yes"/>
      <point x="411" y="711"/>
      <point x="434" y="681"/>
    </contour>
  </outline>
</glyph>
<glyph name="u-beng" format="2">
  <advance width="506"/>
  <unicode hex="0989"/>
  <anchor x="398" y="1" name="bottom"/>
  <anchor x="450" y="-9" name="bottom.rakaar"/>
  <anchor x="389" y="28" name="bottom.rvocalic"/>
  <anchor x="337" y="1" name="bottom.virama"/>
  <anchor x="329" y="606" name="top"/>
  <anchor x="272" y="613" name="topright"/>
  <anchor x="253" y="0" name="vedic"/>
  <anchor x="273" y="-108" name="nukta"/>
  <outline>
    <contour>
      <point x="397" y="598" type="curve"/>
      <point x="452" y="598" type="line"/>
      <point x="445" y="747"/>
      <point x="395" y="814"/>
      <point x="303" y="814" type="curve" smooth="yes"/>
      <point x="253" y="814"/>
      <point x="221" y="804"/>
      <point x="172" y="804" type="curve" smooth="yes"/>
      <point x="109" y="804"/>
      <point x="85" y="830"/>
      <point x="85" y="884" type="curve" smooth="yes"/>
      <point x="85" y="896"/>
      <point x="86" y="911"/>
      <point x="88" y="926" type="curve"/>
      <point x="40" y="932" type="line"/>
      <point x="35" y="908"/>
      <point x="33" y="883"/>
      <point x="33" y="858" type="curve" smooth="yes"/>
      <point x="33" y="760"/>
      <point x="82" y="696"/>
      <point x="185" y="696" type="curve" smooth="yes"/>
      <point x="242" y="696"/>
      <point x="279" y="707"/>
      <point x="313" y="707" type="curve" smooth="yes"/>
      <point x="362" y="707"/>
      <point x="390" y="682"/>
    </contour>
    <component base="dda-beng"/>
  </outline>
</glyph>
<glyph name="uu-beng" format="2">
  <advance width="595"/>
  <unicode hex="098A"/>
  <anchor x="477" y="-7" name="bottom"/>
  <anchor x="529" y="-15" name="bottom.rakaar"/>
  <anchor x="467" y="20" name="bottom.rvocalic"/>
  <anchor x="414" y="-6" name="bottom.virama"/>
  <anchor x="384" y="608" name="top"/>
  <anchor x="364" y="612" name="topright"/>
  <outline>
    <contour>
      <point x="370" y="5" type="curve" smooth="yes"/>
      <point x="515" y="5"/>
      <point x="581" y="103"/>
      <point x="581" y="242" type="curve" smooth="yes"/>
      <point x="581" y="349"/>
      <point x="542" y="423"/>
      <point x="492" y="472" type="curve"/>
      <point x="452" y="393"/>
      <point x="410" y="350"/>
      <point x="378" y="350" type="curve" smooth="yes"/>
      <point x="366" y="350"/>
      <point x="352" y="358"/>
      <point x="352" y="380" type="curve" smooth="yes"/>
      <point x="352" y="550" type="line"/>
      <point x="626" y="550" type="line"/>
      <point x="586" y="622" type="line"/>
      <point x="-31" y="622" type="line"/>
      <point x="8" y="550" type="line"/>
      <point x="266" y="550" type="line"/>
      <point x="266" y="376" type="line" smooth="yes"/>
      <point x="266" y="331"/>
      <point x="277" y="299"/>
      <point x="301" y="274" type="curve" smooth="yes"/>
      <point x="325" y="249"/>
      <point x="351" y="237"/>
      <point x="388" y="237" type="curve" smooth="yes"/>
      <point x="444" y="237"/>
      <point x="503" y="284"/>
      <point x="536" y="357" type="curve"/>
      <point x="487" y="341" type="line"/>
      <point x="505" y="322"/>
      <point x="516" y="293"/>
      <point x="516" y="259" type="curve" smooth="yes"/>
      <point x="516" y="179"/>
      <point x="465" y="129"/>
      <point x="385" y="129" type="curve" smooth="yes"/>
      <point x="245" y="129"/>
      <point x="206" y="278"/>
      <point x="158" y="493" type="curve"/>
      <point x="108" y="478" type="line"/>
      <point x="131" y="307"/>
      <point x="164" y="195"/>
      <point x="207" y="116" type="curve"/>
      <point x="245" y="122" type="line"/>
      <point x="161" y="155"/>
      <point x="107" y="274"/>
      <point x="52" y="487" type="curve"/>
      <point x="2" y="473" type="line"/>
      <point x="55" y="160"/>
      <point x="171" y="5"/>
    </contour>
    <contour>
      <point x="488" y="598" type="curve"/>
      <point x="544" y="598" type="line"/>
      <point x="534" y="738"/>
      <point x="478" y="821"/>
      <point x="364" y="821" type="curve" smooth="yes"/>
      <point x="297" y="821"/>
      <point x="259" y="804"/>
      <point x="172" y="804" type="curve" smooth="yes"/>
      <point x="110" y="804"/>
      <point x="86" y="830"/>
      <point x="86" y="884" type="curve" smooth="yes"/>
      <point x="86" y="896"/>
      <point x="87" y="911"/>
      <point x="89" y="926" type="curve"/>
      <point x="41" y="932" type="line"/>
      <point x="36" y="908"/>
      <point x="33" y="883"/>
      <point x="33" y="858" type="curve" smooth="yes"/>
      <point x="33" y="760"/>
      <point x="82" y="696"/>
      <point x="191" y="696" type="curve" smooth="yes"/>
      <point x="268" y="696"/>
      <point x="320" y="715"/>
      <point x="381" y="715" type="curve" smooth="yes"/>
      <point x="443" y="715"/>
      <point x="480" y="681"/>
    </contour>
  </outline>
</glyph>
<glyph name="lVocalic-beng" format="2">
  <advance width="451"/>
  <unicode hex="098C"/>
  <anchor x="356" y="550" name="top"/>
  <outline>
    <contour>
      <point x="255" y="-9" type="line"/>
      <point x="337" y="6"/>
      <point x="439" y="90"/>
      <point x="439" y="270" type="curve" smooth="yes"/>
      <point x="439" y="406"/>
      <point x="378" y="469"/>
      <point x="251" y="505" type="curve" smooth="yes"/>
      <point x="171" y="528"/>
      <point x="122" y="541"/>
      <point x="122" y="616" type="curve" smooth="yes"/>
      <point x="122" y="647"/>
      <point x="128" y="671"/>
      <point x="139" y="699" type="curve"/>
      <point x="89" y="715" type="line"/>
      <point x="70" y="678"/>
      <point x="52" y="631"/>
      <point x="52" y="570" type="curve" smooth="yes"/>
      <point x="52" y="458"/>
      <point x="116" y="418"/>
      <point x="220" y="389" type="curve" smooth="yes"/>
      <point x="317" y="362"/>
      <point x="373" y="346"/>
      <point x="373" y="242" type="curve" smooth="yes"/>
      <point x="373" y="167"/>
      <point x="342" y="112"/>
      <point x="294" y="104" type="curve"/>
      <point x="342" y="76" type="line"/>
      <point x="342" y="210"/>
      <point x="282" y="325"/>
      <point x="170" y="325" type="curve" smooth="yes"/>
      <point x="73" y="325"/>
      <point x="27" y="246"/>
      <point x="27" y="159" type="curve" smooth="yes"/>
      <point x="27" y="58"/>
      <point x="74" y="6"/>
      <point x="134" y="6" type="curve" smooth="yes"/>
      <point x="185" y="6"/>
      <point x="207" y="42"/>
      <point x="207" y="89" type="curve" smooth="yes"/>
      <point x="207" y="136"/>
      <point x="180" y="166"/>
      <point x="140" y="166" type="curve" smooth="yes"/>
      <point x="105" y="166"/>
      <point x="78" y="139"/>
      <point x="79" y="104" type="curve"/>
      <point x="129" y="99" type="line"/>
      <point x="112" y="107"/>
      <point x="100" y="126"/>
      <point x="100" y="158" type="curve" smooth="yes"/>
      <point x="100" y="195"/>
      <point x="122" y="224"/>
      <point x="158" y="224" type="curve" smooth="yes"/>
      <point x="228" y="224"/>
      <point x="252" y="125"/>
      <point x="252" y="42" type="curve" smooth="yes"/>
      <point x="252" y="27"/>
      <point x="251" y="12"/>
      <point x="249" y="-4" type="curve"/>
    </contour>
  </outline>
</glyph>
<glyph name="e-beng" format="2">
  <advance width="553"/>
  <unicode hex="098F"/>
  <anchor x="500" y="0" name="bottom"/>
  <anchor x="500" y="-5" name="bottom.rvocalic"/>
  <anchor x="484" y="8" name="bottom.virama"/>
  <anchor x="423" y="550" name="top"/>
  <anchor x="426" y="550" name="topright"/>
  <outline>
    <contour>
      <point x="490" y="-29" type="line"/>
      <point x="499" y="-27" type="line"/>
      <point x="499" y="491" type="line" smooth="yes"/>
      <point x="499" y="576"/>
      <point x="450" y="633"/>
      <point x="370" y="633" type="curve" smooth="yes"/>
      <point x="261" y="633"/>
      <point x="158" y="513"/>
      <point x="158" y="386" type="curve" smooth="yes"/>
      <point x="158" y="304"/>
      <point x="211" y="259"/>
      <point x="270" y="258" type="curve" smooth="yes"/>
      <point x="331" y="257"/>
      <point x="364" y="301"/>
      <point x="364" y="354" type="curve" smooth="yes"/>
      <point x="364" y="403"/>
      <point x="336" y="438"/>
      <point x="296" y="438" type="curve" smooth="yes"/>
      <point x="276" y="438"/>
      <point x="258" y="428"/>
      <point x="247" y="408" type="curve"/>
      <point x="292" y="403" type="line"/>
      <point x="294" y="483"/>
      <point x="343" y="553"/>
      <point x="383" y="553" type="curve" smooth="yes"/>
      <point x="404" y="553"/>
      <point x="413" y="531"/>
      <point x="413" y="503" type="curve" smooth="yes"/>
      <point x="413" y="235" type="line" smooth="yes"/>
      <point x="413" y="191"/>
      <point x="418" y="129"/>
      <point x="425" y="93" type="curve"/>
      <point x="391" y="168"/>
      <point x="345" y="184"/>
      <point x="298" y="184" type="curve" smooth="yes"/>
      <point x="260" y="184"/>
      <point x="230" y="177"/>
      <point x="183" y="177" type="curve" smooth="yes"/>
      <point x="124" y="177"/>
      <point x="87" y="209"/>
      <point x="87" y="292" type="curve" smooth="yes"/>
      <point x="87" y="327"/>
      <point x="91" y="358"/>
      <point x="98" y="387" type="curve"/>
      <point x="45" y="395" type="line"/>
      <point x="33" y="353"/>
      <point x="26" y="304"/>
      <point x="26" y="255" type="curve" smooth="yes"/>
      <point x="26" y="100"/>
      <point x="107" y="50"/>
      <point x="194" y="50" type="curve" smooth="yes"/>
      <point x="255" y="50"/>
      <point x="295" y="66"/>
      <point x="342" y="66" type="curve" smooth="yes"/>
      <point x="380" y="66"/>
      <point x="409" y="51"/>
      <point x="437" y="4" type="curve"/>
    </contour>
  </outline>
</glyph>
<glyph name="ai-beng" format="2">
  <advance width="633"/>
  <unicode hex="0990"/>
  <anchor x="500" y="0" name="bottom"/>
  <anchor x="500" y="-5" name="bottom.rvocalic"/>
  <anchor x="484" y="8" name="bottom.virama"/>
  <anchor x="449" y="603" name="top"/>
  <anchor x="408" y="599" name="topright"/>
  <outline>
    <contour>
      <point x="478" y="308" type="line"/>
      <point x="538" y="371"/>
      <point x="587" y="448"/>
      <point x="587" y="567" type="curve" smooth="yes"/>
      <point x="586" y="732"/>
      <point x="470" y="765"/>
      <point x="361" y="787" type="curve" smooth="yes"/>
      <point x="273" y="805"/>
      <point x="196" y="821"/>
      <point x="196" y="908" type="curve" smooth="yes"/>
      <point x="196" y="938"/>
      <point x="203" y="970"/>
      <point x="214" y="995" type="curve"/>
      <point x="164" y="1012" type="line"/>
      <point x="146" y="969"/>
      <point x="134" y="927"/>
      <point x="134" y="878" type="curve" smooth="yes"/>
      <point x="134" y="744"/>
      <point x="227" y="708"/>
      <point x="344" y="686" type="curve" smooth="yes"/>
      <point x="447" y="667"/>
      <point x="529" y="657"/>
      <point x="529" y="554" type="curve" smooth="yes"/>
      <point x="529" y="487"/>
      <point x="507" y="441"/>
      <point x="457" y="396" type="curve"/>
    </contour>
    <contour>
      <point x="490" y="-29" type="line"/>
      <point x="499" y="-27" type="line"/>
      <point x="499" y="491" type="line" smooth="yes"/>
      <point x="499" y="576"/>
      <point x="450" y="633"/>
      <point x="370" y="633" type="curve" smooth="yes"/>
      <point x="261" y="633"/>
      <point x="158" y="513"/>
      <point x="158" y="386" type="curve" smooth="yes"/>
      <point x="158" y="304"/>
      <point x="211" y="259"/>
      <point x="270" y="258" type="curve" smooth="yes"/>
      <point x="331" y="257"/>
      <point x="364" y="301"/>
      <point x="364" y="354" type="curve" smooth="yes"/>
      <point x="364" y="403"/>
      <point x="336" y="438"/>
      <point x="296" y="438" type="curve" smooth="yes"/>
      <point x="276" y="438"/>
      <point x="258" y="428"/>
      <point x="247" y="408" type="curve"/>
      <point x="292" y="403" type="line"/>
      <point x="294" y="483"/>
      <point x="343" y="553"/>
      <point x="383" y="553" type="curve" smooth="yes"/>
      <point x="404" y="553"/>
      <point x="413" y="531"/>
      <point x="413" y="503" type="curve" smooth="yes"/>
      <point x="413" y="235" type="line" smooth="yes"/>
      <point x="413" y="191"/>
      <point x="418" y="129"/>
      <point x="425" y="93" type="curve"/>
      <point x="391" y="168"/>
      <point x="345" y="184"/>
      <point x="298" y="184" type="curve" smooth="yes"/>
      <point x="260" y="184"/>
      <point x="230" y="177"/>
      <point x="183" y="177" type="curve" smooth="yes"/>
      <point x="124" y="177"/>
      <point x="87" y="209"/>
      <point x="87" y="292" type="curve" smooth="yes"/>
      <point x="87" y="327"/>
      <point x="91" y="358"/>
      <point x="98" y="387" type="curve"/>
      <point x="45" y="395" type="line"/>
      <point x="33" y="353"/>
      <point x="26" y="304"/>
      <point x="26" y="255" type="curve" smooth="yes"/>
      <point x="26" y="100"/>
      <point x="107" y="50"/>
      <point x="194" y="50" type="curve" smooth="yes"/>
      <point x="255" y="50"/>
      <point x="295" y="66"/>
      <point x="342" y="66" type="curve" smooth="yes"/>
      <point x="380" y="66"/>
      <point x="409" y="51"/>
      <point x="437" y="4" type="curve"/>
    </contour>
  </outline>
</glyph>
<glyph name="o-beng" format="2">
  <advance width="591"/>
  <unicode hex="0993"/>
  <anchor x="459" y="7" name="bottom"/>
  <anchor x="509" y="0" name="bottom.rakaar"/>
  <anchor x="451" y="31" name="bottom.rvocalic"/>
  <anchor x="401" y="6" name="bottom.virama"/>
  <anchor x="396" y="528" name="top"/>
  <anchor x="398" y="528" name="topright"/>
  <outline>
    <contour>
      <point x="365" y="31" type="curve" smooth="yes"/>
      <point x="481" y="31"/>
      <point x="557" y="110"/>
      <point x="557" y="222" type="curve" smooth="yes"/>
      <point x="557" y="345"/>
      <point x="451" y="421"/>
      <point x="398" y="421" type="curve" smooth="yes"/>
      <point x="362" y="421"/>
      <point x="327" y="399"/>
      <point x="327" y="344" type="curve" smooth="yes"/>
      <point x="327" y="293"/>
      <point x="357" y="260"/>
      <point x="403" y="260" type="curve" smooth="yes"/>
      <point x="475" y="260"/>
      <point x="534" y="366"/>
      <point x="534" y="469" type="curve" smooth="yes"/>
      <point x="534" y="563"/>
      <point x="475" y="630"/>
      <point x="372" y="630" type="curve" smooth="yes"/>
      <point x="249" y="630"/>
      <point x="147" y="528"/>
      <point x="147" y="420" type="curve" smooth="yes"/>
      <point x="147" y="348"/>
      <point x="186" y="310"/>
      <point x="235" y="310" type="curve" smooth="yes"/>
      <point x="284" y="310"/>
      <point x="313" y="345"/>
      <point x="313" y="397" type="curve" smooth="yes"/>
      <point x="313" y="434"/>
      <point x="289" y="467"/>
      <point x="259" y="467" type="curve" smooth="yes"/>
      <point x="234" y="467"/>
      <point x="218" y="454"/>
      <point x="213" y="440" type="curve"/>
      <point x="263" y="414" type="line"/>
      <point x="273" y="502"/>
      <point x="340" y="557"/>
      <point x="400" y="557" type="curve" smooth="yes"/>
      <point x="434" y="557"/>
      <point x="451" y="536"/>
      <point x="451" y="500" type="curve" smooth="yes"/>
      <point x="451" y="460"/>
      <point x="429" y="416"/>
      <point x="389" y="396" type="curve"/>
      <point x="406" y="336" type="line"/>
      <point x="442" y="337"/>
      <point x="488" y="310"/>
      <point x="488" y="254" type="curve" smooth="yes"/>
      <point x="488" y="188"/>
      <point x="438" y="153"/>
      <point x="363" y="153" type="curve" smooth="yes"/>
      <point x="238" y="153"/>
      <point x="134" y="236"/>
      <point x="71" y="550" type="curve"/>
      <point x="16" y="537" type="line"/>
      <point x="74" y="181"/>
      <point x="194" y="31"/>
    </contour>
  </outline>
</glyph>
<glyph name="au-beng" format="2">
  <advance width="658"/>
  <unicode hex="0994"/>
  <anchor x="569" y="7" name="bottom"/>
  <anchor x="628" y="-1" name="bottom.rakaar"/>
  <anchor x="552" y="33" name="bottom.rvocalic"/>
  <anchor x="489" y="7" name="bottom.virama"/>
  <anchor x="596" y="603" name="top"/>
  <anchor x="535" y="599" name="topright"/>
  <outline>
    <contour>
      <point x="503" y="308" type="line"/>
      <point x="564" y="371"/>
      <point x="613" y="448"/>
      <point x="612" y="567" type="curve" smooth="yes"/>
      <point x="612" y="732"/>
      <point x="496" y="765"/>
      <point x="387" y="787" type="curve" smooth="yes"/>
      <point x="299" y="805"/>
      <point x="222" y="821"/>
      <point x="222" y="908" type="curve" smooth="yes"/>
      <point x="222" y="938"/>
      <point x="229" y="970"/>
      <point x="239" y="995" type="curve"/>
      <point x="189" y="1012" type="line"/>
      <point x="172" y="969"/>
      <point x="160" y="927"/>
      <point x="160" y="878" type="curve" smooth="yes"/>
      <point x="160" y="744"/>
      <point x="253" y="708"/>
      <point x="370" y="686" type="curve" smooth="yes"/>
      <point x="473" y="667"/>
      <point x="555" y="657"/>
      <point x="555" y="554" type="curve" smooth="yes"/>
      <point x="555" y="487"/>
      <point x="533" y="441"/>
      <point x="483" y="396" type="curve"/>
    </contour>
    <contour>
      <point x="365" y="31" type="curve" smooth="yes"/>
      <point x="481" y="31"/>
      <point x="557" y="110"/>
      <point x="557" y="222" type="curve" smooth="yes"/>
      <point x="557" y="345"/>
      <point x="451" y="421"/>
      <point x="398" y="421" type="curve" smooth="yes"/>
      <point x="362" y="421"/>
      <point x="327" y="399"/>
      <point x="327" y="344" type="curve" smooth="yes"/>
      <point x="327" y="293"/>
      <point x="357" y="260"/>
      <point x="403" y="260" type="curve" smooth="yes"/>
      <point x="475" y="260"/>
      <point x="534" y="366"/>
      <point x="534" y="469" type="curve" smooth="yes"/>
      <point x="534" y="563"/>
      <point x="475" y="630"/>
      <point x="372" y="630" type="curve" smooth="yes"/>
      <point x="249" y="630"/>
      <point x="147" y="528"/>
      <point x="147" y="420" type="curve" smooth="yes"/>
      <point x="147" y="348"/>
      <point x="186" y="310"/>
      <point x="235" y="310" type="curve" smooth="yes"/>
      <point x="284" y="310"/>
      <point x="313" y="345"/>
      <point x="313" y="397" type="curve" smooth="yes"/>
      <point x="313" y="434"/>
      <point x="289" y="467"/>
      <point x="259" y="467" type="curve" smooth="yes"/>
      <point x="234" y="467"/>
      <point x="218" y="454"/>
      <point x="213" y="440" type="curve"/>
      <point x="263" y="414" type="line"/>
      <point x="273" y="502"/>
      <point x="340" y="557"/>
      <point x="400" y="557" type="curve" smooth="yes"/>
      <point x="434" y="557"/>
      <point x="451" y="536"/>
      <point x="451" y="500" type="curve" smooth="yes"/>
      <point x="451" y="460"/>
      <point x="429" y="416"/>
      <point x="389" y="396" type="curve"/>
      <point x="406" y="336" type="line"/>
      <point x="442" y="337"/>
      <point x="488" y="310"/>
      <point x="488" y="254" type="curve" smooth="yes"/>
      <point x="488" y="188"/>
      <point x="438" y="153"/>
      <point x="363" y="153" type="curve" smooth="yes"/>
      <point x="238" y="153"/>
      <point x="134" y="236"/>
      <point x="71" y="550" type="curve"/>
      <point x="16" y="537" type="line"/>
      <point x="74" y="181"/>
      <point x="194" y="31"/>
    </contour>
  </outline>
</glyph>
<glyph name="ga-beng" format="2">
  <advance width="525"/>
  <unicode hex="0997"/>
  <anchor x="459" y="71" name="bottom"/>
  <anchor x="471" y="-15" name="bottom.rakaar"/>
  <anchor x="471" y="-3" name="bottom.rvocalic"/>
  <anchor x="433" y="8" name="bottom.virama"/>
  <anchor x="437" y="573" name="top"/>
  <anchor x="426" y="564" name="topright"/>
  <outline>
    <contour>
      <point x="463" y="-35" type="line"/>
      <point x="471" y="-33" type="line"/>
      <point x="471" y="550" type="line"/>
      <point x="556" y="550" type="line"/>
      <point x="518" y="622" type="line"/>
      <point x="462" y="622" type="line"/>
      <point x="454" y="677" type="line"/>
      <point x="394" y="713" type="line"/>
      <point x="387" y="710" type="line"/>
      <point x="387" y="588" type="line" smooth="yes"/>
      <point x="387" y="527"/>
      <point x="391" y="470"/>
      <point x="395" y="430" type="curve"/>
      <point x="406" y="425" type="line"/>
      <point x="361" y="570"/>
      <point x="286" y="634"/>
      <point x="199" y="634" type="curve" smooth="yes"/>
      <point x="117" y="634"/>
      <point x="38" y="568"/>
      <point x="-5" y="428" type="curve"/>
      <point x="101" y="350" type="line"/>
      <point x="120" y="380"/>
      <point x="154" y="403"/>
      <point x="185" y="403" type="curve" smooth="yes"/>
      <point x="215" y="403"/>
      <point x="230" y="386"/>
      <point x="230" y="359" type="curve" smooth="yes"/>
      <point x="230" y="314"/>
      <point x="185" y="280"/>
      <point x="104" y="249" type="curve"/>
      <point x="172" y="133" type="line"/>
      <point x="288" y="190"/>
      <point x="323" y="263"/>
      <point x="323" y="342" type="curve" smooth="yes"/>
      <point x="323" y="416"/>
      <point x="280" y="473"/>
      <point x="209" y="473" type="curve" smooth="yes"/>
      <point x="170" y="473"/>
      <point x="139" y="459"/>
      <point x="117" y="437" type="curve"/>
      <point x="132" y="423" type="line"/>
      <point x="142" y="485"/>
      <point x="183" y="534"/>
      <point x="234" y="534" type="curve" smooth="yes"/>
      <point x="288" y="534"/>
      <point x="345" y="479"/>
      <point x="394" y="323" type="curve"/>
      <point x="385" y="404" type="line"/>
      <point x="385" y="1" type="line"/>
    </contour>
  </outline>
</glyph>
<glyph name="nga-beng" format="2">
  <advance width="501"/>
  <unicode hex="0999"/>
  <anchor x="352" y="4" name="bottom"/>
  <anchor x="456" y="-9" name="bottom.rakaar"/>
  <anchor x="371" y="-15" name="bottom.rvocalic"/>
  <anchor x="342" y="0" name="bottom.virama"/>
  <anchor x="309" y="582" name="top"/>
  <anchor x="306" y="571" name="topright"/>
  <outline>
    <contour>
      <point x="303" y="5" type="curve" smooth="yes"/>
      <point x="434" y="5"/>
      <point x="494" y="106"/>
      <point x="492" y="249" type="curve" smooth="yes"/>
      <point x="491" y="335"/>
      <point x="453" y="406"/>
      <point x="419" y="449" type="curve"/>
      <point x="379" y="367"/>
      <point x="320" y="319"/>
      <point x="282" y="319" type="curve" smooth="yes"/>
      <point x="266" y="319"/>
      <point x="255" y="329"/>
      <point x="255" y="350" type="curve" smooth="yes"/>
      <point x="255" y="465" type="line" smooth="yes"/>
      <point x="255" y="525"/>
      <point x="269" y="564"/>
      <point x="300" y="564" type="curve" smooth="yes"/>
      <point x="319" y="564"/>
      <point x="331" y="550"/>
      <point x="331" y="524" type="curve" smooth="yes"/>
      <point x="331" y="497"/>
      <point x="314" y="471"/>
      <point x="277" y="471" type="curve" smooth="yes"/>
      <point x="202" y="471"/>
      <point x="171" y="519"/>
      <point x="130" y="624" type="curve"/>
      <point x="83" y="604" type="line"/>
      <point x="127" y="485"/>
      <point x="175" y="398"/>
      <point x="281" y="398" type="curve" smooth="yes"/>
      <point x="360" y="398"/>
      <point x="401" y="455"/>
      <point x="401" y="517" type="curve" smooth="yes"/>
      <point x="401" y="583"/>
      <point x="368" y="634"/>
      <point x="296" y="634" type="curve" smooth="yes"/>
      <point x="222" y="634"/>
      <point x="174" y="571"/>
      <point x="174" y="472" type="curve" smooth="yes"/>
      <point x="174" y="336" type="line" smooth="yes"/>
      <point x="174" y="291"/>
      <point x="193" y="260"/>
      <point x="211" y="242" type="curve" smooth="yes"/>
      <point x="234" y="218"/>
      <point x="263" y="209"/>
      <point x="294" y="209" type="curve" smooth="yes"/>
      <point x="353" y="209"/>
      <point x="424" y="261"/>
      <point x="448" y="323" type="curve"/>
      <point x="405" y="335" type="line"/>
      <point x="419" y="310"/>
      <point x="430" y="279"/>
      <point x="430" y="247" type="curve" smooth="yes"/>
      <point x="430" y="171"/>
      <point x="380" y="126"/>
      <point x="297" y="126" type="curve" smooth="yes"/>
      <point x="170" y="126"/>
      <point x="114" y="228"/>
      <point x="65" y="494" type="curve"/>
      <point x="12" y="481" type="line"/>
      <point x="57" y="160"/>
      <point x="135" y="5"/>
    </contour>
  </outline>
</glyph>
<glyph name="ca-beng" format="2">
  <advance width="423"/>
  <unicode hex="099A"/>
  <anchor x="296" y="7" name="bottom"/>
  <anchor x="364" y="0" name="bottom.rakaar"/>
  <anchor x="309" y="3" name="bottom.rvocalic"/>
  <anchor x="235" y="27" name="bottom.virama"/>
  <anchor x="114" y="583" name="top"/>
  <anchor x="115" y="571" name="topright"/>
  <outline>
    <contour>
      <point x="192" y="6" type="curve" smooth="yes"/>
      <point x="331" y="6"/>
      <point x="400" y="195"/>
      <point x="400" y="305" type="curve" smooth="yes"/>
      <point x="400" y="362"/>
      <point x="353" y="401"/>
      <point x="325" y="415" type="curve"/>
      <point x="256" y="420"/>
      <point x="182" y="455"/>
      <point x="136" y="554" type="curve"/>
      <point x="134" y="472" type="line"/>
      <point x="162" y="380"/>
      <point x="228" y="312"/>
      <point x="326" y="304" type="curve"/>
      <point x="286" y="346" type="line"/>
      <point x="278" y="197"/>
      <point x="220" y="103"/>
      <point x="174" y="103" type="curve" smooth="yes"/>
      <point x="154" y="103"/>
      <point x="141" y="116"/>
      <point x="141" y="144" type="curve" smooth="yes"/>
      <point x="141" y="550" type="line"/>
      <point x="454" y="550" type="line"/>
      <point x="417" y="622" type="line"/>
      <point x="-31" y="622" type="line"/>
      <point x="9" y="550" type="line"/>
      <point x="55" y="550" type="line"/>
      <point x="55" y="138" type="line" smooth="yes"/>
      <point x="55" y="56"/>
      <point x="121" y="6"/>
    </contour>
  </outline>
</glyph>
<glyph name="cha-beng" format="2">
  <advance width="474"/>
  <unicode hex="099B"/>
  <anchor x="285" y="13" name="bottom"/>
  <anchor x="391" y="-128" name="bottom.rakaar"/>
  <anchor x="358" y="3" name="bottom.rvocalic"/>
  <anchor x="280" y="10" name="bottom.virama"/>
  <anchor x="98" y="583" name="top"/>
  <anchor x="99" y="571" name="topright"/>
  <outline>
    <contour>
      <point x="447" y="-138" type="curve"/>
      <point x="482" y="-97" type="line"/>
      <point x="398" y="0"/>
      <point x="294" y="94"/>
      <point x="194" y="121" type="curve"/>
      <point x="156" y="89" type="line"/>
      <point x="171" y="79"/>
      <point x="196" y="76"/>
      <point x="222" y="76" type="curve" smooth="yes"/>
      <point x="357" y="76"/>
      <point x="447" y="155"/>
      <point x="447" y="290" type="curve" smooth="yes"/>
      <point x="447" y="419"/>
      <point x="356" y="489"/>
      <point x="252" y="489" type="curve" smooth="yes"/>
      <point x="198" y="489"/>
      <point x="142" y="506"/>
      <point x="119" y="551" type="curve"/>
      <point x="115" y="503" type="line"/>
      <point x="140" y="443"/>
      <point x="190" y="414"/>
      <point x="228" y="408" type="curve"/>
      <point x="206" y="450" type="line"/>
      <point x="201" y="366"/>
      <point x="176" y="304"/>
      <point x="147" y="304" type="curve" smooth="yes"/>
      <point x="133" y="304"/>
      <point x="124" y="314"/>
      <point x="124" y="332" type="curve" smooth="yes"/>
      <point x="124" y="550" type="line"/>
      <point x="505" y="550" type="line"/>
      <point x="465" y="622" type="line"/>
      <point x="-31" y="622" type="line"/>
      <point x="7" y="550" type="line"/>
      <point x="41" y="550" type="line"/>
      <point x="41" y="331" type="line" smooth="yes"/>
      <point x="41" y="271"/>
      <point x="97" y="218"/>
      <point x="168" y="218" type="curve" smooth="yes"/>
      <point x="248" y="218"/>
      <point x="302" y="284"/>
      <point x="315" y="444" type="curve"/>
      <point x="277" y="417" type="line"/>
      <point x="318" y="417"/>
      <point x="357" y="389"/>
      <point x="357" y="311" type="curve" smooth="yes"/>
      <point x="357" y="214"/>
      <point x="288" y="175"/>
      <point x="195" y="175" type="curve" smooth="yes"/>
      <point x="142" y="175"/>
      <point x="99" y="187"/>
      <point x="64" y="211" type="curve"/>
      <point x="94" y="66" type="line"/>
      <point x="201" y="39"/>
      <point x="309" y="-8"/>
    </contour>
  </outline>
</glyph>
<glyph name="tta-beng" format="2">
  <advance width="444"/>
  <unicode hex="099F"/>
  <anchor x="300" y="7" name="bottom"/>
  <anchor x="368" y="0" name="bottom.rakaar"/>
  <anchor x="313" y="3" name="bottom.rvocalic"/>
  <anchor x="239" y="27" name="bottom.virama"/>
  <anchor x="196" y="-100" name="nukta"/>
  <anchor x="220" y="654" name="top"/>
  <anchor x="167" y="638" name="topright"/>
  <outline>
    <contour>
      <point x="329" y="598" type="curve"/>
      <point x="383" y="598" type="line"/>
      <point x="379" y="748"/>
      <point x="331" y="813"/>
      <point x="244" y="813" type="curve" smooth="yes"/>
      <point x="199" y="813"/>
      <point x="168" y="803"/>
      <point x="123" y="803" type="curve" smooth="yes"/>
      <point x="66" y="803"/>
      <point x="40" y="826"/>
      <point x="40" y="885" type="curve" smooth="yes"/>
      <point x="40" y="898"/>
      <point x="41" y="913"/>
      <point x="43" y="926" type="curve"/>
      <point x="-3" y="932" type="line"/>
      <point x="-8" y="908"/>
      <point x="-10" y="881"/>
      <point x="-10" y="858" type="curve" smooth="yes"/>
      <point x="-10" y="758"/>
      <point x="35" y="696"/>
      <point x="130" y="696" type="curve" smooth="yes"/>
      <point x="185" y="696"/>
      <point x="215" y="706"/>
      <point x="253" y="706" type="curve" smooth="yes"/>
      <point x="296" y="706"/>
      <point x="325" y="682"/>
    </contour>
    <contour>
      <point x="193" y="6" type="curve" smooth="yes"/>
      <point x="323" y="6"/>
      <point x="415" y="177"/>
      <point x="415" y="318" type="curve" smooth="yes"/>
      <point x="415" y="417"/>
      <point x="363" y="460"/>
      <point x="307" y="460" type="curve" smooth="yes"/>
      <point x="247" y="460"/>
      <point x="209" y="417"/>
      <point x="209" y="360" type="curve" smooth="yes"/>
      <point x="209" y="305"/>
      <point x="240" y="265"/>
      <point x="294" y="265" type="curve" smooth="yes"/>
      <point x="312" y="265"/>
      <point x="333" y="278"/>
      <point x="349" y="299" type="curve"/>
      <point x="302" y="332" type="line"/>
      <point x="295" y="199"/>
      <point x="220" y="103"/>
      <point x="174" y="103" type="curve" smooth="yes"/>
      <point x="153" y="103"/>
      <point x="141" y="117"/>
      <point x="141" y="145" type="curve" smooth="yes"/>
      <point x="141" y="550" type="line"/>
      <point x="475" y="550" type="line"/>
      <point x="439" y="622" type="line"/>
      <point x="-31" y="622" type="line"/>
      <point x="9" y="550" type="line"/>
      <point x="55" y="550" type="line"/>
      <point x="55" y="139" type="line" smooth="yes"/>
      <point x="55" y="56"/>
      <point x="122" y="6"/>
    </contour>
  </outline>
</glyph>
<glyph name="dda-beng" format="2">
  <advance width="506"/>
  <unicode hex="09A1"/>
  <anchor x="371" y="-1" name="bottom"/>
  <anchor x="453" y="-9" name="bottom.rakaar"/>
  <anchor x="375" y="3" name="bottom.rvocalic"/>
  <anchor x="339" y="-1" name="bottom.virama"/>
  <anchor x="273" y="-108" name="nukta"/>
  <anchor x="236" y="583" name="top"/>
  <anchor x="237" y="571" name="topright"/>
  <outline>
    <contour>
      <point x="294" y="5" type="curve" smooth="yes"/>
      <point x="426" y="5"/>
      <point x="492" y="103"/>
      <point x="492" y="242" type="curve" smooth="yes"/>
      <point x="492" y="349"/>
      <point x="452" y="423"/>
      <point x="403" y="472" type="curve"/>
      <point x="363" y="393"/>
      <point x="320" y="350"/>
      <point x="289" y="350" type="curve" smooth="yes"/>
      <point x="276" y="350"/>
      <point x="263" y="358"/>
      <point x="263" y="380" type="curve" smooth="yes"/>
      <point x="263" y="550" type="line"/>
      <point x="537" y="550" type="line"/>
      <point x="497" y="622" type="line"/>
      <point x="-31" y="622" type="line"/>
      <point x="8" y="550" type="line"/>
      <point x="177" y="550" type="line"/>
      <point x="177" y="376" type="line" smooth="yes"/>
      <point x="177" y="331"/>
      <point x="187" y="299"/>
      <point x="211" y="274" type="curve" smooth="yes"/>
      <point x="235" y="249"/>
      <point x="262" y="237"/>
      <point x="299" y="237" type="curve" smooth="yes"/>
      <point x="355" y="237"/>
      <point x="414" y="284"/>
      <point x="447" y="357" type="curve"/>
      <point x="398" y="341" type="line"/>
      <point x="415" y="322"/>
      <point x="427" y="293"/>
      <point x="427" y="259" type="curve" smooth="yes"/>
      <point x="427" y="179"/>
      <point x="376" y="129"/>
      <point x="295" y="129" type="curve" smooth="yes"/>
      <point x="156" y="129"/>
      <point x="96" y="251"/>
      <point x="63" y="480" type="curve"/>
      <point x="7" y="470" type="line"/>
      <point x="41" y="157"/>
      <point x="122" y="5"/>
    </contour>
  </outline>
</glyph>
<glyph name="ddha-beng" format="2">
  <advance width="444"/>
  <unicode hex="09A2"/>
  <anchor x="300" y="7" name="bottom"/>
  <anchor x="368" y="0" name="bottom.rakaar"/>
  <anchor x="313" y="3" name="bottom.rvocalic"/>
  <anchor x="239" y="27" name="bottom.virama"/>
  <anchor x="196" y="-100" name="nukta"/>
  <anchor x="118" y="583" name="top"/>
  <anchor x="119" y="571" name="topright"/>
  <outline>
    <contour>
      <point x="193" y="6" type="curve" smooth="yes"/>
      <point x="323" y="6"/>
      <point x="415" y="177"/>
      <point x="415" y="318" type="curve" smooth="yes"/>
      <point x="415" y="417"/>
      <point x="363" y="460"/>
      <point x="307" y="460" type="curve" smooth="yes"/>
      <point x="247" y="460"/>
      <point x="209" y="417"/>
      <point x="209" y="360" type="curve" smooth="yes"/>
      <point x="209" y="305"/>
      <point x="240" y="265"/>
      <point x="294" y="265" type="curve" smooth="yes"/>
      <point x="312" y="265"/>
      <point x="333" y="278"/>
      <point x="349" y="299" type="curve"/>
      <point x="302" y="332" type="line"/>
      <point x="295" y="199"/>
      <point x="220" y="103"/>
      <point x="174" y="103" type="curve" smooth="yes"/>
      <point x="153" y="103"/>
      <point x="141" y="117"/>
      <point x="141" y="145" type="curve" smooth="yes"/>
      <point x="141" y="550" type="line"/>
      <point x="475" y="550" type="line"/>
      <point x="439" y="622" type="line"/>
      <point x="-31" y="622" type="line"/>
      <point x="9" y="550" type="line"/>
      <point x="55" y="550" type="line"/>
      <point x="55" y="139" type="line" smooth="yes"/>
      <point x="55" y="56"/>
      <point x="122" y="6"/>
    </contour>
  </outline>
</glyph>
<glyph name="nna-beng" format="2">
  <advance width="511"/>
  <unicode hex="09A3"/>
  <anchor x="444" y="71" name="bottom"/>
  <anchor x="456" y="-15" name="bottom.rakaar"/>
  <anchor x="456" y="-3" name="bottom.rvocalic"/>
  <anchor x="418" y="8" name="bottom.virama"/>
  <anchor x="423" y="573" name="top"/>
  <anchor x="411" y="564" name="topright"/>
  <outline>
    <contour>
      <point x="448" y="-35" type="line"/>
      <point x="456" y="-33" type="line"/>
      <point x="456" y="550" type="line"/>
      <point x="542" y="550" type="line"/>
      <point x="503" y="622" type="line"/>
      <point x="447" y="622" type="line"/>
      <point x="439" y="677" type="line"/>
      <point x="380" y="713" type="line"/>
      <point x="373" y="710" type="line"/>
      <point x="373" y="570" type="line" smooth="yes"/>
      <point x="373" y="509"/>
      <point x="376" y="435"/>
      <point x="380" y="395" type="curve"/>
      <point x="389" y="397" type="line"/>
      <point x="347" y="549"/>
      <point x="276" y="629"/>
      <point x="183" y="629" type="curve" smooth="yes"/>
      <point x="98" y="629"/>
      <point x="28" y="560"/>
      <point x="28" y="437" type="curve" smooth="yes"/>
      <point x="28" y="296"/>
      <point x="122" y="228"/>
      <point x="200" y="228" type="curve" smooth="yes"/>
      <point x="266" y="228"/>
      <point x="302" y="269"/>
      <point x="302" y="331" type="curve" smooth="yes"/>
      <point x="302" y="386"/>
      <point x="269" y="429"/>
      <point x="216" y="429" type="curve" smooth="yes"/>
      <point x="171" y="429"/>
      <point x="140" y="395"/>
      <point x="140" y="345" type="curve" smooth="yes"/>
      <point x="140" y="325"/>
      <point x="145" y="306"/>
      <point x="154" y="296" type="curve"/>
      <point x="192" y="332" type="line"/>
      <point x="182" y="328"/>
      <point x="170" y="325"/>
      <point x="159" y="325" type="curve" smooth="yes"/>
      <point x="132" y="325"/>
      <point x="108" y="355"/>
      <point x="108" y="409" type="curve" smooth="yes"/>
      <point x="108" y="470"/>
      <point x="142" y="513"/>
      <point x="206" y="513" type="curve" smooth="yes"/>
      <point x="281" y="513"/>
      <point x="332" y="458"/>
      <point x="380" y="294" type="curve"/>
      <point x="370" y="368" type="line"/>
      <point x="370" y="1" type="line"/>
    </contour>
  </outline>
</glyph>
<glyph name="ta-beng" format="2">
  <advance width="524"/>
  <unicode hex="09A4"/>
  <anchor x="399" y="9" name="bottom"/>
  <anchor x="476" y="0" name="bottom.rakaar"/>
  <anchor x="407" y="12" name="bottom.rvocalic"/>
  <anchor x="334" y="9" name="bottom.virama"/>
  <anchor x="315" y="583" name="top"/>
  <anchor x="316" y="571" name="topright"/>
  <outline>
    <contour>
      <point x="314" y="15" type="curve" smooth="yes"/>
      <point x="418" y="15"/>
      <point x="510" y="85"/>
      <point x="510" y="250" type="curve" smooth="yes"/>
      <point x="510" y="400"/>
      <point x="431" y="505"/>
      <point x="301" y="505" type="curve" smooth="yes"/>
      <point x="216" y="505"/>
      <point x="168" y="451"/>
      <point x="168" y="373" type="curve" smooth="yes"/>
      <point x="168" y="306"/>
      <point x="208" y="253"/>
      <point x="279" y="253" type="curve" smooth="yes"/>
      <point x="343" y="253"/>
      <point x="376" y="300"/>
      <point x="376" y="356" type="curve" smooth="yes"/>
      <point x="376" y="397"/>
      <point x="354" y="431"/>
      <point x="340" y="447" type="curve"/>
      <point x="304" y="374" type="line"/>
      <point x="314" y="380"/>
      <point x="334" y="388"/>
      <point x="355" y="388" type="curve" smooth="yes"/>
      <point x="404" y="388"/>
      <point x="436" y="354"/>
      <point x="436" y="278" type="curve" smooth="yes"/>
      <point x="436" y="189"/>
      <point x="386" y="140"/>
      <point x="308" y="140" type="curve" smooth="yes"/>
      <point x="190" y="140"/>
      <point x="116" y="225"/>
      <point x="62" y="491" type="curve"/>
      <point x="7" y="478" type="line"/>
      <point x="61" y="147"/>
      <point x="149" y="15"/>
    </contour>
    <contour>
      <point x="7" y="550" type="line"/>
      <point x="555" y="550" type="line"/>
      <point x="516" y="622" type="line"/>
      <point x="-31" y="622" type="line"/>
    </contour>
  </outline>
</glyph>
<glyph name="tha-beng" format="2">
  <advance width="482"/>
  <unicode hex="09A5"/>
  <anchor x="423" y="34" name="bottom"/>
  <anchor x="427" y="87" name="bottom.rakaar"/>
  <anchor x="427" y="9" name="bottom.rvocalic"/>
  <anchor x="409" y="14" name="bottom.virama"/>
  <anchor x="391" y="573" name="top"/>
  <anchor x="380" y="564" name="topright"/>
  <outline>
    <contour>
      <point x="419" y="-24" type="line"/>
      <point x="427" y="-22" type="line"/>
      <point x="427" y="550" type="line"/>
      <point x="513" y="550" type="line"/>
      <point x="475" y="622" type="line"/>
      <point x="419" y="622" type="line"/>
      <point x="411" y="677" type="line"/>
      <point x="348" y="713" type="line"/>
      <point x="342" y="710" type="line"/>
      <point x="342" y="97" type="line"/>
      <point x="358" y="99" type="line"/>
      <point x="324" y="197"/>
      <point x="251" y="257"/>
      <point x="184" y="285" type="curve"/>
      <point x="189" y="261" type="line"/>
      <point x="269" y="284"/>
      <point x="309" y="344"/>
      <point x="309" y="439" type="curve" smooth="yes"/>
      <point x="309" y="561"/>
      <point x="237" y="627"/>
      <point x="143" y="627" type="curve" smooth="yes"/>
      <point x="68" y="627"/>
      <point x="8" y="569"/>
      <point x="8" y="497" type="curve" smooth="yes"/>
      <point x="8" y="435"/>
      <point x="47" y="404"/>
      <point x="89" y="404" type="curve" smooth="yes"/>
      <point x="135" y="404"/>
      <point x="163" y="433"/>
      <point x="163" y="476" type="curve" smooth="yes"/>
      <point x="163" y="510"/>
      <point x="151" y="529"/>
      <point x="129" y="537" type="curve"/>
      <point x="132" y="505" type="line"/>
      <point x="139" y="526"/>
      <point x="155" y="542"/>
      <point x="178" y="542" type="curve" smooth="yes"/>
      <point x="210" y="542"/>
      <point x="230" y="511"/>
      <point x="230" y="464" type="curve" smooth="yes"/>
      <point x="230" y="381"/>
      <point x="159" y="349"/>
      <point x="49" y="347" type="curve"/>
      <point x="95" y="207" type="line"/>
      <point x="208" y="189"/>
      <point x="299" y="124"/>
      <point x="359" y="17" type="curve"/>
    </contour>
  </outline>
</glyph>
<glyph name="da-beng" format="2">
  <advance width="454"/>
  <unicode hex="09A6"/>
  <anchor x="386" y="64" name="bottom"/>
  <anchor x="397" y="58" name="bottom.rakaar"/>
  <anchor x="397" y="-29" name="bottom.rvocalic"/>
  <anchor x="384" y="-26" name="bottom.virama"/>
  <anchor x="111" y="583" name="top"/>
  <anchor x="112" y="571" name="topright"/>
  <outline>
    <contour>
      <point x="348" y="-58" type="curve"/>
      <point x="397" y="-40" type="line"/>
      <point x="377" y="32"/>
      <point x="370" y="82"/>
      <point x="370" y="145" type="curve" smooth="yes"/>
      <point x="370" y="235"/>
      <point x="393" y="323"/>
      <point x="430" y="398" type="curve"/>
      <point x="323" y="491" type="line"/>
      <point x="247" y="436"/>
      <point x="167" y="358"/>
      <point x="116" y="288" type="curve"/>
      <point x="137" y="252" type="line"/>
      <point x="137" y="550" type="line"/>
      <point x="485" y="550" type="line"/>
      <point x="447" y="622" type="line"/>
      <point x="-31" y="622" type="line"/>
      <point x="8" y="550" type="line"/>
      <point x="51" y="550" type="line"/>
      <point x="51" y="200" type="line"/>
      <point x="136" y="137" type="line"/>
      <point x="207" y="230"/>
      <point x="281" y="312"/>
      <point x="358" y="375" type="curve"/>
      <point x="330" y="399" type="line"/>
      <point x="304" y="331"/>
      <point x="292" y="267"/>
      <point x="292" y="188" type="curve" smooth="yes"/>
      <point x="292" y="92"/>
      <point x="318" y="11"/>
    </contour>
  </outline>
</glyph>
<glyph name="pa-beng" format="2">
  <advance width="552"/>
  <unicode hex="09AA"/>
  <anchor x="485" y="71" name="bottom"/>
  <anchor x="497" y="-15" name="bottom.rakaar"/>
  <anchor x="497" y="-3" name="bottom.rvocalic"/>
  <anchor x="459" y="8" name="bottom.virama"/>
  <anchor x="463" y="573" name="top"/>
  <anchor x="452" y="564" name="topright"/>
  <outline>
    <contour>
      <point x="489" y="-35" type="line"/>
      <point x="497" y="-33" type="line"/>
      <point x="497" y="550" type="line"/>
      <point x="583" y="550" type="line"/>
      <point x="544" y="622" type="line"/>
      <point x="488" y="622" type="line"/>
      <point x="480" y="677" type="line"/>
      <point x="420" y="713" type="line"/>
      <point x="414" y="710" type="line"/>
      <point x="414" y="501" type="line" smooth="yes"/>
      <point x="414" y="452"/>
      <point x="417" y="413"/>
      <point x="421" y="376" type="curve"/>
      <point x="428" y="391" type="line"/>
      <point x="380" y="538"/>
      <point x="308" y="629"/>
      <point x="210" y="629" type="curve" smooth="yes"/>
      <point x="109" y="629"/>
      <point x="33" y="533"/>
      <point x="3" y="410" type="curve"/>
      <point x="92" y="336" type="line"/>
      <point x="104" y="353"/>
      <point x="122" y="362"/>
      <point x="140" y="362" type="curve" smooth="yes"/>
      <point x="163" y="362"/>
      <point x="177" y="346"/>
      <point x="177" y="320" type="curve" smooth="yes"/>
      <point x="177" y="293"/>
      <point x="162" y="265"/>
      <point x="138" y="241" type="curve"/>
      <point x="224" y="169" type="line"/>
      <point x="393" y="407" type="line"/>
      <point x="327" y="496" type="line"/>
      <point x="201" y="307" type="line"/>
      <point x="212" y="294" type="line"/>
      <point x="222" y="314"/>
      <point x="229" y="336"/>
      <point x="229" y="362" type="curve" smooth="yes"/>
      <point x="229" y="402"/>
      <point x="205" y="435"/>
      <point x="164" y="435" type="curve" smooth="yes"/>
      <point x="143" y="435"/>
      <point x="121" y="428"/>
      <point x="107" y="412" type="curve"/>
      <point x="130" y="392" type="line"/>
      <point x="135" y="461"/>
      <point x="180" y="532"/>
      <point x="237" y="532" type="curve" smooth="yes"/>
      <point x="313" y="532"/>
      <point x="379" y="415"/>
      <point x="418" y="267" type="curve"/>
      <point x="411" y="346" type="line"/>
      <point x="411" y="1" type="line"/>
    </contour>
  </outline>
</glyph>
<glyph name="pha-beng" format="2">
  <advance width="600"/>
  <unicode hex="09AB"/>
  <anchor x="402" y="34" name="bottom"/>
  <anchor x="403" y="87" name="bottom.rakaar"/>
  <anchor x="406" y="7" name="bottom.rvocalic"/>
  <anchor x="390" y="14" name="bottom.virama"/>
  <anchor x="378" y="583" name="top"/>
  <anchor x="379" y="571" name="topright"/>
  <outline>
    <contour>
      <point x="397" y="-24" type="line"/>
      <point x="406" y="-22" type="line"/>
      <point x="406" y="425" type="line"/>
      <point x="392" y="396" type="line"/>
      <point x="408" y="402"/>
      <point x="420" y="403"/>
      <point x="436" y="403" type="curve" smooth="yes"/>
      <point x="504" y="403"/>
      <point x="541" y="359"/>
      <point x="541" y="307" type="curve" smooth="yes"/>
      <point x="541" y="292"/>
      <point x="538" y="280"/>
      <point x="532" y="269" type="curve"/>
      <point x="553" y="264" type="line"/>
      <point x="550" y="306"/>
      <point x="528" y="327"/>
      <point x="492" y="327" type="curve" smooth="yes"/>
      <point x="455" y="327"/>
      <point x="426" y="298"/>
      <point x="426" y="252" type="curve" smooth="yes"/>
      <point x="426" y="207"/>
      <point x="452" y="169"/>
      <point x="500" y="169" type="curve" smooth="yes"/>
      <point x="555" y="169"/>
      <point x="592" y="220"/>
      <point x="592" y="304" type="curve" smooth="yes"/>
      <point x="592" y="439"/>
      <point x="499" y="516"/>
      <point x="378" y="516" type="curve" smooth="yes"/>
      <point x="354" y="516"/>
      <point x="341" y="515"/>
      <point x="320" y="512" type="curve"/>
      <point x="320" y="79" type="line"/>
      <point x="338" y="94" type="line"/>
      <point x="304" y="201"/>
      <point x="229" y="259"/>
      <point x="155" y="282" type="curve"/>
      <point x="153" y="257" type="line"/>
      <point x="190" y="292"/>
      <point x="241" y="326"/>
      <point x="296" y="361" type="curve"/>
      <point x="248" y="455"/>
      <point x="202" y="515"/>
      <point x="111" y="572" type="curve"/>
      <point x="101" y="550" type="line"/>
      <point x="630" y="550" type="line"/>
      <point x="593" y="622" type="line"/>
      <point x="-31" y="622" type="line"/>
      <point x="44" y="468" type="line"/>
      <point x="103" y="457"/>
      <point x="160" y="436"/>
      <point x="190" y="397" type="curve"/>
      <point x="196" y="431" type="line"/>
      <point x="157" y="410"/>
      <point x="69" y="357"/>
      <point x="32" y="325" type="curve"/>
      <point x="94" y="193" type="line"/>
      <point x="195" y="173"/>
      <point x="280" y="121"/>
      <point x="338" y="14" type="curve"/>
    </contour>
  </outline>
</glyph>
<glyph name="bha-beng" format="2">
  <advance width="533"/>
  <unicode hex="09AD"/>
  <anchor x="387" y="12" name="bottom"/>
  <anchor x="469" y="4" name="bottom.rakaar"/>
  <anchor x="406" y="14" name="bottom.rvocalic"/>
  <anchor x="354" y="13" name="bottom.virama"/>
  <anchor x="309" y="583" name="top"/>
  <anchor x="310" y="571" name="topright"/>
  <outline>
    <contour>
      <point x="318" y="19" type="curve" smooth="yes"/>
      <point x="434" y="19"/>
      <point x="519" y="101"/>
      <point x="519" y="266" type="curve" smooth="yes"/>
      <point x="519" y="386"/>
      <point x="468" y="461"/>
      <point x="424" y="500" type="curve"/>
      <point x="380" y="402"/>
      <point x="330" y="359"/>
      <point x="274" y="354" type="curve"/>
      <point x="296" y="332" type="line"/>
      <point x="312" y="349"/>
      <point x="323" y="372"/>
      <point x="323" y="400" type="curve" smooth="yes"/>
      <point x="323" y="452"/>
      <point x="289" y="485"/>
      <point x="242" y="485" type="curve" smooth="yes"/>
      <point x="188" y="485"/>
      <point x="155" y="440"/>
      <point x="155" y="386" type="curve" smooth="yes"/>
      <point x="155" y="309"/>
      <point x="209" y="250"/>
      <point x="292" y="250" type="curve" smooth="yes"/>
      <point x="354" y="250"/>
      <point x="423" y="290"/>
      <point x="470" y="376" type="curve"/>
      <point x="430" y="371" type="line"/>
      <point x="446" y="348"/>
      <point x="456" y="322"/>
      <point x="456" y="283" type="curve" smooth="yes"/>
      <point x="456" y="199"/>
      <point x="402" y="143"/>
      <point x="314" y="143" type="curve" smooth="yes"/>
      <point x="197" y="143"/>
      <point x="118" y="228"/>
      <point x="63" y="492" type="curve"/>
      <point x="7" y="479" type="line"/>
      <point x="65" y="149"/>
      <point x="149" y="19"/>
    </contour>
    <contour>
      <point x="7" y="550" type="line"/>
      <point x="564" y="550" type="line"/>
      <point x="524" y="622" type="line"/>
      <point x="-31" y="622" type="line"/>
    </contour>
  </outline>
</glyph>
<glyph name="la-beng" format="2">
  <advance width="561"/>
  <unicode hex="09B2"/>
  <anchor x="493" y="71" name="bottom"/>
  <anchor x="505" y="-15" name="bottom.rakaar"/>
  <anchor x="505" y="-3" name="bottom.rvocalic"/>
  <anchor x="467" y="8" name="bottom.virama"/>
  <anchor x="480" y="582" name="top"/>
  <anchor x="482" y="571" name="topright"/>
  <outline>
    <contour>
      <point x="497" y="-35" type="line"/>
      <point x="505" y="-33" type="line"/>
      <point x="505" y="550" type="line"/>
      <point x="591" y="550" type="line"/>
      <point x="552" y="622" type="line"/>
      <point x="-31" y="622" type="line"/>
      <point x="7" y="550" type="line"/>
      <point x="419" y="550" type="line"/>
      <point x="419" y="458" type="line" smooth="yes"/>
      <point x="419" y="403"/>
      <point x="423" y="361"/>
      <point x="429" y="309" type="curve"/>
      <point x="436" y="316" type="line"/>
      <point x="412" y="416"/>
      <point x="376" y="478"/>
      <point x="321" y="478" type="curve" smooth="yes"/>
      <point x="281" y="478"/>
      <point x="248" y="430"/>
      <point x="246" y="349" type="curve"/>
      <point x="271" y="348" type="line"/>
      <point x="254" y="424"/>
      <point x="206" y="486"/>
      <point x="136" y="486" type="curve" smooth="yes"/>
      <point x="60" y="486"/>
      <point x="5" y="421"/>
      <point x="5" y="307" type="curve" smooth="yes"/>
      <point x="5" y="178"/>
      <point x="78" y="94"/>
      <point x="171" y="94" type="curve" smooth="yes"/>
      <point x="230" y="94"/>
      <point x="265" y="130"/>
      <point x="265" y="188" type="curve" smooth="yes"/>
      <point x="265" y="242"/>
      <point x="235" y="279"/>
      <point x="186" y="279" type="curve" smooth="yes"/>
      <point x="144" y="279"/>
      <point x="115" y="247"/>
      <point x="115" y="199" type="curve" smooth="yes"/>
      <point x="115" y="179"/>
      <point x="119" y="159"/>
      <point x="136" y="146" type="curve"/>
      <point x="166" y="190" type="line"/>
      <point x="157" y="184"/>
      <point x="147" y="181"/>
      <point x="133" y="181" type="curve" smooth="yes"/>
      <point x="107" y="181"/>
      <point x="84" y="212"/>
      <point x="84" y="263" type="curve" smooth="yes"/>
      <point x="84" y="323"/>
      <point x="119" y="357"/>
      <point x="170" y="357" type="curve" smooth="yes"/>
      <point x="222" y="357"/>
      <point x="262" y="326"/>
      <point x="280" y="264" type="curve"/>
      <point x="305" y="256" type="line"/>
      <point x="305" y="317"/>
      <point x="321" y="349"/>
      <point x="349" y="349" type="curve" smooth="yes"/>
      <point x="377" y="349"/>
      <point x="406" y="314"/>
      <point x="424" y="228" type="curve"/>
      <point x="419" y="275" type="line"/>
      <point x="419" y="1" type="line"/>
    </contour>
  </outline>
</glyph>
<glyph name="ssa-beng" format="2">
  <advance width="475"/>
  <unicode hex="09B7"/>
  <anchor x="405" y="34" name="bottom"/>
  <anchor x="407" y="87" name="bottom.rakaar"/>
  <anchor x="409" y="7" name="bottom.rvocalic"/>
  <anchor x="393" y="3" name="bottom.virama"/>
  <anchor x="381" y="583" name="top"/>
  <anchor x="383" y="571" name="topright"/>
  <outline>
    <contour>
      <point x="401" y="-24" type="line"/>
      <point x="409" y="-22" type="line"/>
      <point x="409" y="550" type="line"/>
      <point x="505" y="550" type="line"/>
      <point x="466" y="622" type="line"/>
      <point x="-31" y="622" type="line"/>
      <point x="44" y="468" type="line"/>
      <point x="160" y="455"/>
      <point x="267" y="375"/>
      <point x="352" y="270" type="curve"/>
      <point x="378" y="317" type="line"/>
      <point x="335" y="382"/>
      <point x="205" y="523"/>
      <point x="93" y="578" type="curve"/>
      <point x="89" y="550" type="line"/>
      <point x="324" y="550" type="line"/>
      <point x="324" y="79" type="line"/>
      <point x="341" y="94" type="line"/>
      <point x="308" y="201"/>
      <point x="229" y="259"/>
      <point x="155" y="282" type="curve"/>
      <point x="166" y="253" type="line"/>
      <point x="200" y="286"/>
      <point x="246" y="324"/>
      <point x="294" y="359" type="curve"/>
      <point x="190" y="431" type="line"/>
      <point x="147" y="401"/>
      <point x="84" y="356"/>
      <point x="33" y="309" type="curve"/>
      <point x="95" y="193" type="line"/>
      <point x="195" y="173"/>
      <point x="283" y="121"/>
      <point x="341" y="14" type="curve"/>
    </contour>
  </outline>
</glyph>
<glyph name="ha-beng" format="2">
  <advance width="419"/>
  <unicode hex="09B9"/>
  <anchor x="251" y="58" name="bottom"/>
  <anchor x="356" y="-83" name="bottom.rakaar"/>
  <anchor x="323" y="48" name="bottom.rvocalic"/>
  <anchor x="245" y="55" name="bottom.virama"/>
  <anchor x="210" y="583" name="top"/>
  <anchor x="208" y="571" name="topright"/>
  <outline>
    <contour>
      <point x="412" y="-93" type="curve"/>
      <point x="447" y="-52" type="line"/>
      <point x="363" y="46"/>
      <point x="260" y="140"/>
      <point x="159" y="166" type="curve"/>
      <point x="121" y="134" type="line"/>
      <point x="137" y="124"/>
      <point x="162" y="121"/>
      <point x="187" y="121" type="curve" smooth="yes"/>
      <point x="322" y="121"/>
      <point x="393" y="196"/>
      <point x="393" y="308" type="curve" smooth="yes"/>
      <point x="393" y="433"/>
      <point x="308" y="500"/>
      <point x="170" y="500" type="curve" smooth="yes"/>
      <point x="91" y="500"/>
      <point x="39" y="458"/>
      <point x="39" y="391" type="curve" smooth="yes"/>
      <point x="39" y="329"/>
      <point x="80" y="291"/>
      <point x="135" y="291" type="curve" smooth="yes"/>
      <point x="193" y="291"/>
      <point x="230" y="335"/>
      <point x="230" y="404" type="curve" smooth="yes"/>
      <point x="230" y="471"/>
      <point x="185" y="535"/>
      <point x="159" y="558" type="curve"/>
      <point x="21" y="558" type="line"/>
      <point x="80" y="541"/>
      <point x="122" y="510"/>
      <point x="158" y="462" type="curve"/>
      <point x="158" y="380" type="line"/>
      <point x="172" y="399"/>
      <point x="201" y="420"/>
      <point x="229" y="420" type="curve" smooth="yes"/>
      <point x="273" y="420"/>
      <point x="304" y="388"/>
      <point x="304" y="334" type="curve" smooth="yes"/>
      <point x="304" y="257"/>
      <point x="248" y="220"/>
      <point x="160" y="220" type="curve" smooth="yes"/>
      <point x="107" y="220"/>
      <point x="65" y="232"/>
      <point x="30" y="256" type="curve"/>
      <point x="59" y="111" type="line"/>
      <point x="167" y="85"/>
      <point x="274" y="37"/>
    </contour>
    <contour>
      <point x="7" y="550" type="line"/>
      <point x="450" y="550" type="line"/>
      <point x="411" y="622" type="line"/>
      <point x="-31" y="622" type="line"/>
    </contour>
  </outline>
</glyph>
<glyph name="nukta-beng" format="2">
  <unicode hex="09BC"/>
  <anchor x="0" y="-132" name="_nukta"/>
  <outline>
    <contour>
      <point x="0" y="-202" type="curve" smooth="yes"/>
      <point x="39" y="-202"/>
      <point x="63" y="-175"/>
      <point x="63" y="-132" type="curve" smooth="yes"/>
      <point x="63" y="-88"/>
      <point x="39" y="-61"/>
      <point x="0" y="-61" type="curve" smooth="yes"/>
      <point x="-40" y="-61"/>
      <point x="-65" y="-88"/>
      <point x="-65" y="-132" type="curve" smooth="yes"/>
      <point x="-65" y="-175"/>
      <point x="-40" y="-202"/>
    </contour>
  </outline>
</glyph>
<glyph name="avagraha-beng" format="2">
  <advance width="449"/>
  <unicode hex="09BD"/>
  <anchor x="197" y="583" name="top"/>
  <anchor x="196" y="571" name="topright"/>
  <outline>
    <contour>
      <point x="420" y="-93" type="curve"/>
      <point x="454" y="-52" type="line"/>
      <point x="371" y="46"/>
      <point x="267" y="140"/>
      <point x="167" y="166" type="curve"/>
      <point x="128" y="134" type="line"/>
      <point x="144" y="124"/>
      <point x="169" y="121"/>
      <point x="195" y="121" type="curve" smooth="yes"/>
      <point x="330" y="121"/>
      <point x="401" y="196"/>
      <point x="401" y="308" type="curve" smooth="yes"/>
      <point x="401" y="433"/>
      <point x="316" y="500"/>
      <point x="178" y="500" type="curve" smooth="yes"/>
      <point x="99" y="500"/>
      <point x="47" y="458"/>
      <point x="47" y="391" type="curve" smooth="yes"/>
      <point x="47" y="329"/>
      <point x="87" y="291"/>
      <point x="143" y="291" type="curve" smooth="yes"/>
      <point x="201" y="291"/>
      <point x="238" y="335"/>
      <point x="238" y="404" type="curve" smooth="yes"/>
      <point x="238" y="480"/>
      <point x="187" y="565"/>
      <point x="115" y="622" type="curve"/>
      <point x="-32" y="622" type="line"/>
      <point x="7" y="550" type="line"/>
      <point x="119" y="550" type="line"/>
      <point x="73" y="557" type="line"/>
      <point x="108" y="540"/>
      <point x="139" y="508"/>
      <point x="166" y="462" type="curve"/>
      <point x="166" y="380" type="line"/>
      <point x="180" y="399"/>
      <point x="209" y="420"/>
      <point x="237" y="420" type="curve" smooth="yes"/>
      <point x="281" y="420"/>
      <point x="311" y="388"/>
      <point x="311" y="334" type="curve" smooth="yes"/>
      <point x="311" y="257"/>
      <point x="255" y="220"/>
      <point x="168" y="220" type="curve" smooth="yes"/>
      <point x="114" y="220"/>
      <point x="72" y="232"/>
      <point x="37" y="256" type="curve"/>
      <point x="66" y="111" type="line"/>
      <point x="174" y="85"/>
      <point x="282" y="37"/>
    </contour>
  </outline>
</glyph>
<glyph name="aaMatra-beng" format="2">
  <advance width="195"/>
  <unicode hex="09BE"/>
  <outline>
    <contour>
      <point x="133" y="-35" type="line"/>
      <point x="141" y="-33" type="line"/>
      <point x="141" y="550" type="line"/>
      <point x="226" y="550" type="line"/>
      <point x="188" y="622" type="line"/>
      <point x="132" y="622" type="line"/>
      <point x="124" y="677" type="line"/>
      <point x="64" y="713" type="line"/>
      <point x="57" y="710" type="line"/>
      <point x="57" y="644" type="line" smooth="yes"/>
      <point x="57" y="609"/>
      <point x="61" y="568"/>
      <point x="65" y="537" type="curve"/>
      <point x="71" y="538" type="line"/>
      <point x="58" y="600"/>
      <point x="33" y="622"/>
      <point x="-3" y="622" type="curve" smooth="yes"/>
      <point x="-31" y="622" type="line"/>
      <point x="8" y="550" type="line"/>
      <point x="16" y="550" type="line" smooth="yes"/>
      <point x="34" y="550"/>
      <point x="49" y="523"/>
      <point x="55" y="487" type="curve"/>
      <point x="55" y="1" type="line"/>
    </contour>
  </outline>
</glyph>
<glyph name="iiMatra-beng" format="2">
  <advance width="195"/>
  <unicode hex="09C0"/>
  <anchor x="116" y="679" name="top"/>
  <anchor x="-6" y="613" name="topright"/>
  <outline>
    <contour>
      <point x="133" y="-35" type="line"/>
      <point x="141" y="-33" type="line"/>
      <point x="141" y="550" type="line"/>
      <point x="226" y="550" type="line"/>
      <point x="188" y="622" type="line"/>
      <point x="136" y="622" type="line"/>
      <point x="120" y="816"/>
      <point x="11" y="939"/>
      <point x="-194" y="939" type="curve" smooth="yes"/>
      <point x="-368" y="939"/>
      <point x="-431" y="870"/>
      <point x="-431" y="793" type="curve" smooth="yes"/>
      <point x="-431" y="718"/>
      <point x="-377" y="684"/>
      <point x="-314" y="684" type="curve" smooth="yes"/>
      <point x="-259" y="684"/>
      <point x="-235" y="700"/>
      <point x="-194" y="700" type="curve" smooth="yes"/>
      <point x="-165" y="700"/>
      <point x="-141" y="685"/>
      <point x="-141" y="616" type="curve"/>
      <point x="-56" y="616" type="line"/>
      <point x="-60" y="652" type="line" smooth="yes"/>
      <point x="-69" y="739"/>
      <point x="-132" y="785"/>
      <point x="-211" y="785" type="curve" smooth="yes"/>
      <point x="-259" y="785"/>
      <point x="-296" y="776"/>
      <point x="-332" y="776" type="curve" smooth="yes"/>
      <point x="-356" y="776"/>
      <point x="-367" y="783"/>
      <point x="-367" y="797" type="curve" smooth="yes"/>
      <point x="-367" y="827"/>
      <point x="-321" y="845"/>
      <point x="-200" y="845" type="curve" smooth="yes"/>
      <point x="-39" y="845"/>
      <point x="54" y="799"/>
      <point x="56" y="622" type="curve"/>
      <point x="-31" y="622" type="line"/>
      <point x="8" y="550" type="line"/>
      <point x="55" y="550" type="line"/>
      <point x="55" y="1" type="line"/>
    </contour>
  </outline>
</glyph>
<glyph name="uuMatra-beng" format="2">
  <unicode hex="09C2"/>
  <anchor x="0" y="0" name="_bottom"/>
  <outline>
    <contour>
      <point x="141" y="-306" type="curve"/>
      <point x="171" y="-270" type="line"/>
      <point x="123" y="-209"/>
      <point x="55" y="-163"/>
      <point x="13" y="-140" type="curve"/>
      <point x="-29" y="-182"/>
      <point x="-70" y="-200"/>
      <point x="-107" y="-200" type="curve" smooth="yes"/>
      <point x="-138" y="-200"/>
      <point x="-158" y="-183"/>
      <point x="-158" y="-155" type="curve" smooth="yes"/>
      <point x="-158" y="-128"/>
      <point x="-139" y="-111"/>
      <point x="-106" y="-111" type="curve" smooth="yes"/>
      <point x="-81" y="-111"/>
      <point x="-59" y="-116"/>
      <point x="-34" y="-126" type="curve"/>
      <point x="11" y="-101" type="line"/>
      <point x="10" y="-40"/>
      <point x="-1" y="12"/>
      <point x="-14" y="52" type="curve"/>
      <point x="-80" y="33" type="line"/>
      <point x="-72" y="8"/>
      <point x="-65" y="-39"/>
      <point x="-65" y="-68" type="curve"/>
      <point x="-35" y="-51" type="line"/>
      <point x="-60" y="-40"/>
      <point x="-86" y="-33"/>
      <point x="-118" y="-33" type="curve" smooth="yes"/>
      <point x="-182" y="-33"/>
      <point x="-230" y="-76"/>
      <point x="-230" y="-149" type="curve" smooth="yes"/>
      <point x="-230" y="-224"/>
      <point x="-185" y="-279"/>
      <point x="-100" y="-280" type="curve" smooth="yes"/>
      <point x="-43" y="-281"/>
      <point x="8" y="-256"/>
      <point x="49" y="-206" type="curve"/>
      <point x="-2" y="-204" type="line"/>
      <point x="43" y="-217"/>
      <point x="100" y="-262"/>
    </contour>
  </outline>
</glyph>
<glyph name="rrVocalicMatra-beng" format="2">
  <unicode hex="09C4"/>
  <anchor x="0" y="0" name="_bottom.rvocalic"/>
  <outline>
    <contour>
      <point x="13" y="-271" type="curve"/>
      <point x="41" y="-227" type="line"/>
      <point x="8" y="-186"/>
      <point x="-52" y="-130"/>
      <point x="-130" y="-88" type="curve"/>
      <point x="-120" y="-116" type="line"/>
      <point x="-87" y="-84"/>
      <point x="-38" y="-55"/>
      <point x="0" y="-32" type="curve"/>
      <point x="0" y="-11" type="line"/>
      <point x="-53" y="44" type="line"/>
      <point x="-107" y="15"/>
      <point x="-186" y="-33"/>
      <point x="-245" y="-84" type="curve"/>
      <point x="-193" y="-154" type="line"/>
      <point x="-104" y="-182"/>
      <point x="-40" y="-219"/>
    </contour>
    <contour>
      <point x="18" y="-427" type="curve"/>
      <point x="46" y="-390" type="line"/>
      <point x="21" y="-353"/>
      <point x="-44" y="-288"/>
      <point x="-124" y="-245" type="curve"/>
      <point x="-116" y="-271" type="line"/>
      <point x="-89" y="-245"/>
      <point x="-64" y="-224"/>
      <point x="-29" y="-204" type="curve"/>
      <point x="-117" y="-161" type="line"/>
      <point x="-162" y="-186"/>
      <point x="-197" y="-213"/>
      <point x="-236" y="-245" type="curve"/>
      <point x="-185" y="-308" type="line"/>
      <point x="-98" y="-335"/>
      <point x="-36" y="-374"/>
    </contour>
  </outline>
</glyph>
<glyph name="eMatra-beng" format="2">
  <advance width="336"/>
  <unicode hex="09C7"/>
  <outline>
    <contour>
      <point x="232" y="-26" type="curve" smooth="yes"/>
      <point x="295" y="-26"/>
      <point x="333" y="11"/>
      <point x="333" y="76" type="curve" smooth="yes"/>
      <point x="333" y="127"/>
      <point x="304" y="171"/>
      <point x="249" y="171" type="curve" smooth="yes"/>
      <point x="202" y="171"/>
      <point x="170" y="136"/>
      <point x="170" y="88" type="curve" smooth="yes"/>
      <point x="170" y="54"/>
      <point x="182" y="31"/>
      <point x="197" y="14" type="curve"/>
      <point x="230" y="29" type="line"/>
      <point x="159" y="49"/>
      <point x="125" y="120"/>
      <point x="125" y="246" type="curve" smooth="yes"/>
      <point x="125" y="426"/>
      <point x="233" y="550"/>
      <point x="333" y="550" type="curve" smooth="yes"/>
      <point x="367" y="550" type="line"/>
      <point x="330" y="622" type="line"/>
      <point x="-31" y="622" type="line"/>
      <point x="5" y="550" type="line"/>
      <point x="186" y="550" type="line"/>
      <point x="152" y="581" type="line"/>
      <point x="85" y="534"/>
      <point x="29" y="431"/>
      <point x="29" y="286" type="curve" smooth="yes"/>
      <point x="29" y="90"/>
      <point x="126" y="-26"/>
    </contour>
  </outline>
</glyph>
<glyph name="aiMatra-beng" format="2">
  <advance width="336"/>
  <unicode hex="09C8"/>
  <outline>
    <contour>
      <point x="277" y="598" type="curve"/>
      <point x="333" y="598" type="line"/>
      <point x="331" y="742"/>
      <point x="286" y="812"/>
      <point x="199" y="812" type="curve" smooth="yes"/>
      <point x="159" y="812"/>
      <point x="132" y="806"/>
      <point x="88" y="806" type="curve" smooth="yes"/>
      <point x="37" y="806"/>
      <point x="15" y="832"/>
      <point x="15" y="883" type="curve" smooth="yes"/>
      <point x="15" y="900"/>
      <point x="16" y="917"/>
      <point x="18" y="928" type="curve"/>
      <point x="-32" y="933" type="line"/>
      <point x="-37" y="908"/>
      <point x="-41" y="880"/>
      <point x="-41" y="852" type="curve" smooth="yes"/>
      <point x="-41" y="756"/>
      <point x="0" y="695"/>
      <point x="89" y="695" type="curve" smooth="yes"/>
      <point x="142" y="695"/>
      <point x="169" y="703"/>
      <point x="204" y="703" type="curve" smooth="yes"/>
      <point x="243" y="703"/>
      <point x="275" y="684"/>
    </contour>
    <component base="eMatra-beng"/>
  </outline>
</glyph>
<glyph name="oMatra-beng" format="2">
  <advance width="757"/>
  <unicode hex="09CB"/>
  <outline>
    <contour>
      <point x="419" y="249" type="curve" smooth="yes"/>
      <point x="452" y="249"/>
      <point x="480" y="272"/>
      <point x="480" y="310" type="curve" smooth="yes"/>
      <point x="480" y="346"/>
      <point x="453" y="372"/>
      <point x="419" y="372" type="curve" smooth="yes"/>
      <point x="384" y="372"/>
      <point x="355" y="346"/>
      <point x="355" y="310" type="curve" smooth="yes"/>
      <point x="355" y="274"/>
      <point x="385" y="249"/>
    </contour>
    <contour>
      <point x="232" y="-26" type="curve" smooth="yes"/>
      <point x="295" y="-26"/>
      <point x="333" y="11"/>
      <point x="333" y="76" type="curve" smooth="yes"/>
      <point x="333" y="127"/>
      <point x="304" y="171"/>
      <point x="249" y="171" type="curve" smooth="yes"/>
      <point x="202" y="171"/>
      <point x="170" y="136"/>
      <point x="170" y="88" type="curve" smooth="yes"/>
      <point x="170" y="54"/>
      <point x="182" y="31"/>
      <point x="197" y="14" type="curve"/>
      <point x="230" y="29" type="line"/>
      <point x="159" y="49"/>
      <point x="125" y="120"/>
      <point x="125" y="246" type="curve" smooth="yes"/>
      <point x="125" y="426"/>
      <point x="233" y="550"/>
      <point x="333" y="550" type="curve" smooth="yes"/>
      <point x="367" y="550" type="line"/>
      <point x="330" y="622" type="line"/>
      <point x="-31" y="622" type="line"/>
      <point x="5" y="550" type="line"/>
      <point x="186" y="550" type="line"/>
      <point x="152" y="581" type="line"/>
      <point x="85" y="534"/>
      <point x="29" y="431"/>
      <point x="29" y="286" type="curve" smooth="yes"/>
      <point x="29" y="90"/>
      <point x="126" y="-26"/>
    </contour>
    <contour>
      <point x="695" y="-35" type="line"/>
      <point x="703" y="-33" type="line"/>
      <point x="703" y="550" type="line"/>
      <point x="788" y="550" type="line"/>
      <point x="750" y="622" type="line"/>
      <point x="694" y="622" type="line"/>
      <point x="686" y="677" type="line"/>
      <point x="626" y="713" type="line"/>
      <point x="619" y="710" type="line"/>
      <point x="619" y="644" type="line" smooth="yes"/>
      <point x="619" y="609"/>
      <point x="623" y="568"/>
      <point x="627" y="537" type="curve"/>
      <point x="633" y="538" type="line"/>
      <point x="620" y="600"/>
      <point x="595" y="622"/>
      <point x="559" y="622" type="curve" smooth="yes"/>
      <point x="531" y="622" type="line"/>
      <point x="570" y="550" type="line"/>
      <point x="578" y="550" type="line" smooth="yes"/>
      <point x="596" y="550"/>
      <point x="611" y="523"/>
      <point x="617" y="487" type="curve"/>
      <point x="617" y="1" type="line"/>
    </contour>
  </outline>
</glyph>
<glyph name="auMatra-beng" format="2">
  <advance width="757"/>
  <unicode hex="09CC"/>
  <anchor x="849" y="598" name="top"/>
  <anchor x="552" y="600" name="topright"/>
  <outline>
    <contour>
      <point x="419" y="249" type="curve" smooth="yes"/>
      <point x="452" y="249"/>
      <point x="480" y="272"/>
      <point x="480" y="310" type="curve" smooth="yes"/>
      <point x="480" y="346"/>
      <point x="453" y="372"/>
      <point x="419" y="372" type="curve" smooth="yes"/>
      <point x="384" y="372"/>
      <point x="355" y="346"/>
      <point x="355" y="310" type="curve" smooth="yes"/>
      <point x="355" y="274"/>
      <point x="385" y="249"/>
    </contour>
    <contour>
      <point x="695" y="-35" type="line"/>
      <point x="703" y="-33" type="line"/>
      <point x="703" y="550" type="line"/>
      <point x="788" y="550" type="line"/>
      <point x="750" y="622" type="line"/>
      <point x="531" y="622" type="line"/>
      <point x="570" y="550" type="line"/>
      <point x="617" y="550" type="line"/>
      <point x="617" y="1" type="line"/>
    </contour>
    <contour>
      <point x="618" y="603" type="curve"/>
      <point x="701" y="603" type="line"/>
      <point x="699" y="741"/>
      <point x="621" y="822"/>
      <point x="525" y="822" type="curve" smooth="yes"/>
      <point x="462" y="822"/>
      <point x="412" y="806"/>
      <point x="343" y="806" type="curve" smooth="yes"/>
      <point x="278" y="806"/>
      <point x="242" y="825"/>
      <point x="242" y="888" type="curve" smooth="yes"/>
      <point x="242" y="900"/>
      <point x="243" y="915"/>
      <point x="245" y="928" type="curve"/>
      <point x="195" y="933" type="line"/>
      <point x="191" y="910"/>
      <point x="189" y="885"/>
      <point x="189" y="858" type="curve" smooth="yes"/>
      <point x="189" y="750"/>
      <point x="255" y="694"/>
      <point x="354" y="694" type="curve" smooth="yes"/>
      <point x="431" y="694"/>
      <point x="475" y="716"/>
      <point x="542" y="716" type="curve" smooth="yes"/>
      <point x="602" y="716"/>
      <point x="622" y="680"/>
      <point x="622" y="634" type="curve" smooth="yes"/>
      <point x="622" y="623"/>
      <point x="621" y="613"/>
    </contour>
    <contour>
      <point x="232" y="-26" type="curve" smooth="yes"/>
      <point x="295" y="-26"/>
      <point x="333" y="11"/>
      <point x="333" y="76" type="curve" smooth="yes"/>
      <point x="333" y="127"/>
      <point x="304" y="171"/>
      <point x="249" y="171" type="curve" smooth="yes"/>
      <point x="202" y="171"/>
      <point x="170" y="136"/>
      <point x="170" y="88" type="curve" smooth="yes"/>
      <point x="170" y="54"/>
      <point x="182" y="31"/>
      <point x="197" y="14" type="curve"/>
      <point x="230" y="29" type="line"/>
      <point x="159" y="49"/>
      <point x="125" y="120"/>
      <point x="125" y="246" type="curve" smooth="yes"/>
      <point x="125" y="426"/>
      <point x="233" y="550"/>
      <point x="333" y="550" type="curve" smooth="yes"/>
      <point x="367" y="550" type="line"/>
      <point x="330" y="622" type="line"/>
      <point x="-31" y="622" type="line"/>
      <point x="5" y="550" type="line"/>
      <point x="186" y="550" type="line"/>
      <point x="152" y="581" type="line"/>
      <point x="85" y="534"/>
      <point x="29" y="431"/>
      <point x="29" y="286" type="curve" smooth="yes"/>
      <point x="29" y="90"/>
      <point x="126" y="-26"/>
    </contour>
  </outline>
</glyph>
<glyph name="taKhanda-beng" format="2">
  <advance width="445"/>
  <unicode hex="09CE"/>
  <anchor x="227" y="583" name="top"/>
  <anchor x="230" y="571" name="topright"/>
  <outline>
    <contour>
      <point x="416" y="-72" type="line"/>
      <point x="437" y="-37"/>
      <point x="452" y="7"/>
      <point x="452" y="51" type="curve" smooth="yes"/>
      <point x="452" y="140"/>
      <point x="382" y="198"/>
      <point x="262" y="233" type="curve" smooth="yes"/>
      <point x="143" y="268"/>
      <point x="111" y="309"/>
      <point x="111" y="381" type="curve" smooth="yes"/>
      <point x="111" y="475"/>
      <point x="166" y="510"/>
      <point x="225" y="510" type="curve" smooth="yes"/>
      <point x="275" y="510"/>
      <point x="301" y="492"/>
      <point x="301" y="456" type="curve" smooth="yes"/>
      <point x="301" y="432"/>
      <point x="288" y="414"/>
      <point x="264" y="414" type="curve" smooth="yes"/>
      <point x="232" y="414"/>
      <point x="189" y="443"/>
      <point x="183" y="524" type="curve"/>
      <point x="135" y="503" type="line"/>
      <point x="145" y="392"/>
      <point x="179" y="302"/>
      <point x="256" y="302" type="curve" smooth="yes"/>
      <point x="332" y="302"/>
      <point x="366" y="380"/>
      <point x="366" y="472" type="curve" smooth="yes"/>
      <point x="366" y="559"/>
      <point x="318" y="622"/>
      <point x="229" y="622" type="curve" smooth="yes"/>
      <point x="107" y="622"/>
      <point x="35" y="501"/>
      <point x="35" y="371" type="curve" smooth="yes"/>
      <point x="35" y="239"/>
      <point x="92" y="149"/>
      <point x="230" y="112" type="curve" smooth="yes"/>
      <point x="346" y="82"/>
      <point x="381" y="62"/>
      <point x="381" y="11" type="curve" smooth="yes"/>
      <point x="381" y="-11"/>
      <point x="377" y="-33"/>
      <point x="368" y="-55" type="curve"/>
    </contour>
  </outline>
</glyph>
<glyph name="llVocalic-beng" format="2">
  <advance width="625"/>
  <unicode hex="09E1"/>
  <anchor x="357" y="550" name="top"/>
  <outline>
    <contour>
      <point x="249" y="-4" type="curve"/>
      <point x="368" y="10"/>
      <point x="439" y="119"/>
      <point x="439" y="270" type="curve" smooth="yes"/>
      <point x="439" y="406"/>
      <point x="378" y="469"/>
      <point x="251" y="505" type="curve" smooth="yes"/>
      <point x="171" y="528"/>
      <point x="122" y="541"/>
      <point x="122" y="616" type="curve" smooth="yes"/>
      <point x="122" y="647"/>
      <point x="128" y="671"/>
      <point x="139" y="699" type="curve"/>
      <point x="89" y="715" type="line"/>
      <point x="70" y="678"/>
      <point x="52" y="631"/>
      <point x="52" y="570" type="curve" smooth="yes"/>
      <point x="52" y="458"/>
      <point x="116" y="418"/>
      <point x="220" y="389" type="curve" smooth="yes"/>
      <point x="317" y="362"/>
      <point x="373" y="346"/>
      <point x="373" y="242" type="curve" smooth="yes"/>
      <point x="373" y="167"/>
      <point x="342" y="112"/>
      <point x="294" y="104" type="curve"/>
      <point x="342" y="76" type="line"/>
      <point x="342" y="210"/>
      <point x="282" y="325"/>
      <point x="170" y="325" type="curve" smooth="yes"/>
      <point x="73" y="325"/>
      <point x="27" y="246"/>
      <point x="27" y="159" type="curve" smooth="yes"/>
      <point x="27" y="58"/>
      <point x="74" y="6"/>
      <point x="134" y="6" type="curve" smooth="yes"/>
      <point x="185" y="6"/>
      <point x="207" y="42"/>
      <point x="207" y="89" type="curve" smooth="yes"/>
      <point x="207" y="136"/>
      <point x="180" y="166"/>
      <point x="140" y="166" type="curve" smooth="yes"/>
      <point x="105" y="166"/>
      <point x="78" y="139"/>
      <point x="79" y="104" type="curve"/>
      <point x="129" y="99" type="line"/>
      <point x="112" y="107"/>
      <point x="100" y="126"/>
      <point x="100" y="158" type="curve" smooth="yes"/>
      <point x="100" y="195"/>
      <point x="122" y="224"/>
      <point x="158" y="224" type="curve" smooth="yes"/>
      <point x="228" y="224"/>
      <point x="252" y="125"/>
      <point x="252" y="42" type="curve" smooth="yes"/>
      <point x="252" y="27"/>
      <point x="251" y="12"/>
    </contour>
    <contour>
      <point x="429" y="-226" type="line"/>
      <point x="511" y="-210"/>
      <point x="613" y="-126"/>
      <point x="613" y="53" type="curve" smooth="yes"/>
      <point x="613" y="200"/>
      <point x="545" y="271"/>
      <point x="406" y="311" type="curve"/>
      <point x="401" y="188" type="line"/>
      <point x="494" y="162"/>
      <point x="547" y="128"/>
      <point x="547" y="25" type="curve" smooth="yes"/>
      <point x="547" y="-49"/>
      <point x="516" y="-105"/>
      <point x="468" y="-112" type="curve"/>
      <point x="516" y="-141" type="line"/>
      <point x="516" y="-7"/>
      <point x="456" y="109"/>
      <point x="344" y="109" type="curve" smooth="yes"/>
      <point x="247" y="109"/>
      <point x="201" y="29"/>
      <point x="201" y="-57" type="curve" smooth="yes"/>
      <point x="201" y="-158"/>
      <point x="248" y="-210"/>
      <point x="308" y="-210" type="curve" smooth="yes"/>
      <point x="359" y="-210"/>
      <point x="381" y="-174"/>
      <point x="381" y="-127" type="curve" smooth="yes"/>
      <point x="381" y="-81"/>
      <point x="354" y="-51"/>
      <point x="314" y="-51" type="curve" smooth="yes"/>
      <point x="279" y="-51"/>
      <point x="252" y="-78"/>
      <point x="253" y="-113" type="curve"/>
      <point x="303" y="-117" type="line"/>
      <point x="286" y="-110"/>
      <point x="274" y="-91"/>
      <point x="274" y="-58" type="curve" smooth="yes"/>
      <point x="274" y="-22"/>
      <point x="296" y="7"/>
      <point x="332" y="7" type="curve" smooth="yes"/>
      <point x="402" y="7"/>
      <point x="426" y="-92"/>
      <point x="426" y="-175" type="curve" smooth="yes"/>
      <point x="426" y="-190"/>
      <point x="425" y="-205"/>
      <point x="423" y="-220" type="curve"/>
    </contour>
  </outline>
</glyph>
<glyph name="lVocalicMatra-beng" format="2">
  <unicode hex="09E2"/>
  <anchor x="0" y="29" name="_bottom"/>
  <outline>
    <contour>
      <point x="-86" y="-336" type="line"/>
      <point x="-11" y="-327"/>
      <point x="50" y="-276"/>
      <point x="50" y="-177" type="curve" smooth="yes"/>
      <point x="50" y="-105"/>
      <point x="14" y="-70"/>
      <point x="-49" y="-46" type="curve" smooth="yes"/>
      <point x="-105" y="-25"/>
      <point x="-122" y="-18"/>
      <point x="-122" y="17" type="curve" smooth="yes"/>
      <point x="-122" y="26"/>
      <point x="-119" y="40"/>
      <point x="-113" y="54" type="curve"/>
      <point x="-148" y="67" type="line"/>
      <point x="-168" y="40"/>
      <point x="-179" y="8"/>
      <point x="-179" y="-20" type="curve" smooth="yes"/>
      <point x="-179" y="-70"/>
      <point x="-156" y="-98"/>
      <point x="-85" y="-116" type="curve" smooth="yes"/>
      <point x="-20" y="-134"/>
      <point x="2" y="-154"/>
      <point x="2" y="-194" type="curve" smooth="yes"/>
      <point x="2" y="-231"/>
      <point x="-14" y="-253"/>
      <point x="-28" y="-253" type="curve" smooth="yes"/>
      <point x="-42" y="-253"/>
      <point x="-50" y="-249"/>
      <point x="-55" y="-243" type="curve"/>
      <point x="-20" y="-290" type="line"/>
      <point x="-19" y="-283"/>
      <point x="-19" y="-277"/>
      <point x="-19" y="-271" type="curve" smooth="yes"/>
      <point x="-19" y="-182"/>
      <point x="-71" y="-137"/>
      <point x="-128" y="-137" type="curve" smooth="yes"/>
      <point x="-188" y="-137"/>
      <point x="-223" y="-189"/>
      <point x="-223" y="-245" type="curve" smooth="yes"/>
      <point x="-223" y="-300"/>
      <point x="-194" y="-321"/>
      <point x="-164" y="-321" type="curve" smooth="yes"/>
      <point x="-131" y="-321"/>
      <point x="-116" y="-295"/>
      <point x="-116" y="-267" type="curve" smooth="yes"/>
      <point x="-116" y="-237"/>
      <point x="-133" y="-218"/>
      <point x="-160" y="-218" type="curve" smooth="yes"/>
      <point x="-179" y="-218"/>
      <point x="-196" y="-234"/>
      <point x="-196" y="-253" type="curve"/>
      <point x="-175" y="-257" type="line"/>
      <point x="-179" y="-252"/>
      <point x="-178" y="-247"/>
      <point x="-178" y="-241" type="curve" smooth="yes"/>
      <point x="-178" y="-213"/>
      <point x="-160" y="-199"/>
      <point x="-139" y="-199" type="curve" smooth="yes"/>
      <point x="-102" y="-199"/>
      <point x="-85" y="-238"/>
      <point x="-85" y="-294" type="curve" smooth="yes"/>
      <point x="-85" y="-309"/>
      <point x="-87" y="-321"/>
      <point x="-89" y="-331" type="curve"/>
    </contour>
  </outline>
</glyph>
<glyph name="llVocalicMatra-beng" format="2">
  <unicode hex="09E3"/>
  <anchor x="0" y="29" name="_bottom"/>
  <outline>
    <contour>
      <point x="-89" y="-325" type="curve"/>
      <point x="1" y="-320"/>
      <point x="50" y="-265"/>
      <point x="50" y="-177" type="curve" smooth="yes"/>
      <point x="50" y="-105"/>
      <point x="14" y="-70"/>
      <point x="-49" y="-46" type="curve" smooth="yes"/>
      <point x="-105" y="-25"/>
      <point x="-122" y="-18"/>
      <point x="-122" y="17" type="curve" smooth="yes"/>
      <point x="-122" y="26"/>
      <point x="-119" y="40"/>
      <point x="-113" y="54" type="curve"/>
      <point x="-148" y="67" type="line"/>
      <point x="-168" y="40"/>
      <point x="-179" y="8"/>
      <point x="-179" y="-20" type="curve" smooth="yes"/>
      <point x="-179" y="-70"/>
      <point x="-156" y="-98"/>
      <point x="-85" y="-116" type="curve" smooth="yes"/>
      <point x="-20" y="-134"/>
      <point x="2" y="-154"/>
      <point x="2" y="-194" type="curve" smooth="yes"/>
      <point x="2" y="-229"/>
      <point x="-14" y="-250"/>
      <point x="-28" y="-250" type="curve" smooth="yes"/>
      <point x="-42" y="-250"/>
      <point x="-50" y="-246"/>
      <point x="-55" y="-240" type="curve"/>
      <point x="-20" y="-287" type="line"/>
      <point x="-19" y="-280"/>
      <point x="-19" y="-274"/>
      <point x="-19" y="-268" type="curve" smooth="yes"/>
      <point x="-19" y="-182"/>
      <point x="-71" y="-137"/>
      <point x="-128" y="-137" type="curve" smooth="yes"/>
      <point x="-188" y="-137"/>
      <point x="-223" y="-189"/>
      <point x="-223" y="-245" type="curve" smooth="yes"/>
      <point x="-223" y="-300"/>
      <point x="-194" y="-321"/>
      <point x="-164" y="-321" type="curve" smooth="yes"/>
      <point x="-131" y="-321"/>
      <point x="-116" y="-295"/>
      <point x="-116" y="-267" type="curve" smooth="yes"/>
      <point x="-116" y="-237"/>
      <point x="-133" y="-218"/>
      <point x="-160" y="-218" type="curve" smooth="yes"/>
      <point x="-179" y="-218"/>
      <point x="-196" y="-234"/>
      <point x="-196" y="-253" type="curve"/>
      <point x="-175" y="-257" type="line"/>
      <point x="-179" y="-252"/>
      <point x="-178" y="-247"/>
      <point x="-178" y="-241" type="curve" smooth="yes"/>
      <point x="-178" y="-213"/>
      <point x="-160" y="-199"/>
      <point x="-139" y="-199" type="curve" smooth="yes"/>
      <point x="-102" y="-199"/>
      <point x="-85" y="-236"/>
      <point x="-85" y="-288" type="curve" smooth="yes"/>
      <point x="-85" y="-303"/>
      <point x="-87" y="-315"/>
    </contour>
    <contour>
      <point x="29" y="-457" type="line"/>
      <point x="103" y="-449"/>
      <point x="164" y="-398"/>
      <point x="164" y="-299" type="curve" smooth="yes"/>
      <point x="164" y="-226"/>
      <point x="128" y="-194"/>
      <point x="48" y="-162" type="curve"/>
      <point x="25" y="-236" type="line"/>
      <point x="90" y="-249"/>
      <point x="116" y="-271"/>
      <point x="116" y="-316" type="curve" smooth="yes"/>
      <point x="116" y="-353"/>
      <point x="100" y="-375"/>
      <point x="86" y="-375" type="curve" smooth="yes"/>
      <point x="73" y="-375"/>
      <point x="65" y="-371"/>
      <point x="60" y="-365" type="curve"/>
      <point x="94" y="-411" type="line"/>
      <point x="95" y="-405"/>
      <point x="95" y="-399"/>
      <point x="95" y="-392" type="curve" smooth="yes"/>
      <point x="95" y="-304"/>
      <point x="44" y="-259"/>
      <point x="-14" y="-259" type="curve" smooth="yes"/>
      <point x="-74" y="-259"/>
      <point x="-109" y="-311"/>
      <point x="-109" y="-367" type="curve" smooth="yes"/>
      <point x="-109" y="-422"/>
      <point x="-80" y="-443"/>
      <point x="-50" y="-443" type="curve" smooth="yes"/>
      <point x="-16" y="-443"/>
      <point x="-1" y="-416"/>
      <point x="-1" y="-389" type="curve" smooth="yes"/>
      <point x="-1" y="-359"/>
      <point x="-18" y="-339"/>
      <point x="-46" y="-339" type="curve" smooth="yes"/>
      <point x="-65" y="-339"/>
      <point x="-81" y="-355"/>
      <point x="-82" y="-374" type="curve"/>
      <point x="-61" y="-379" type="line"/>
      <point x="-64" y="-374"/>
      <point x="-64" y="-369"/>
      <point x="-64" y="-363" type="curve" smooth="yes"/>
      <point x="-64" y="-335"/>
      <point x="-46" y="-321"/>
      <point x="-25" y="-321" type="curve" smooth="yes"/>
      <point x="13" y="-321"/>
      <point x="29" y="-360"/>
      <point x="29" y="-416" type="curve" smooth="yes"/>
      <point x="29" y="-430"/>
      <point x="28" y="-442"/>
      <point x="26" y="-453" type="curve"/>
    </contour>
  </outline>
</glyph>
<glyph name="zero-beng" format="2">
  <advance width="490"/>
  <unicode hex="09E6"/>
  <outline>
    <contour>
      <point x="246" y="15" type="curve" smooth="yes"/>
      <point x="373" y="15"/>
      <point x="453" y="136"/>
      <point x="453" y="297" type="curve" smooth="yes"/>
      <point x="453" y="447"/>
      <point x="376" y="575"/>
      <point x="248" y="575" type="curve" smooth="yes"/>
      <point x="127" y="575"/>
      <point x="37" y="454"/>
      <point x="37" y="296" type="curve" smooth="yes"/>
      <point x="37" y="130"/>
      <point x="130" y="15"/>
    </contour>
    <contour>
      <point x="218" y="114" type="curve" smooth="yes"/>
      <point x="173" y="114"/>
      <point x="139" y="164"/>
      <point x="139" y="252" type="curve" smooth="yes"/>
      <point x="139" y="366"/>
      <point x="205" y="474"/>
      <point x="277" y="474" type="curve" smooth="yes"/>
      <point x="326" y="474"/>
      <point x="356" y="422"/>
      <point x="356" y="340" type="curve" smooth="yes"/>
      <point x="356" y="229"/>
      <point x="299" y="114"/>
    </contour>
  </outline>
</glyph>
<glyph name="one-beng" format="2">
  <advance width="441"/>
  <unicode hex="09E7"/>
  <outline>
    <contour>
      <point x="249" y="-19" type="curve" smooth="yes"/>
      <point x="357" y="-19"/>
      <point x="424" y="67"/>
      <point x="424" y="183" type="curve" smooth="yes"/>
      <point x="424" y="287"/>
      <point x="382" y="353"/>
      <point x="273" y="407" type="curve" smooth="yes"/>
      <point x="194" y="447"/>
      <point x="169" y="468"/>
      <point x="167" y="506" type="curve"/>
      <point x="122" y="506" type="line"/>
      <point x="129" y="488"/>
      <point x="147" y="480"/>
      <point x="167" y="480" type="curve" smooth="yes"/>
      <point x="208" y="480"/>
      <point x="231" y="509"/>
      <point x="231" y="553" type="curve" smooth="yes"/>
      <point x="231" y="596"/>
      <point x="204" y="633"/>
      <point x="146" y="633" type="curve" smooth="yes"/>
      <point x="88" y="633"/>
      <point x="43" y="584"/>
      <point x="43" y="510" type="curve" smooth="yes"/>
      <point x="43" y="431"/>
      <point x="88" y="370"/>
      <point x="210" y="325" type="curve" smooth="yes"/>
      <point x="298" y="289"/>
      <point x="355" y="257"/>
      <point x="355" y="186" type="curve" smooth="yes"/>
      <point x="355" y="122"/>
      <point x="322" y="81"/>
      <point x="266" y="81" type="curve" smooth="yes"/>
      <point x="237" y="81"/>
      <point x="209" y="93"/>
      <point x="193" y="116" type="curve"/>
      <point x="172" y="77" type="line"/>
      <point x="184" y="71"/>
      <point x="198" y="69"/>
      <point x="206" y="69" type="curve" smooth="yes"/>
      <point x="243" y="69"/>
      <point x="263" y="104"/>
      <point x="263" y="146" type="curve" smooth="yes"/>
      <point x="263" y="193"/>
      <point x="233" y="227"/>
      <point x="186" y="227" type="curve" smooth="yes"/>
      <point x="132" y="227"/>
      <point x="96" y="183"/>
      <point x="96" y="121" type="curve" smooth="yes"/>
      <point x="96" y="26"/>
      <point x="169" y="-19"/>
    </contour>
  </outline>
</glyph>
<glyph name="seven-beng" format="2">
  <advance width="478"/>
  <unicode hex="09ED"/>
  <outline>
    <contour>
      <point x="396" y="-33" type="curve" smooth="yes"/>
      <point x="445" y="-33"/>
      <point x="473" y="-1"/>
      <point x="473" y="47" type="curve" smooth="yes"/>
      <point x="473" y="93"/>
      <point x="443" y="124"/>
      <point x="405" y="124" type="curve" smooth="yes"/>
      <point x="363" y="124"/>
      <point x="348" y="91"/>
      <point x="348" y="62" type="curve"/>
      <point x="385" y="57" type="line"/>
      <point x="385" y="472" type="line" smooth="yes"/>
      <point x="385" y="563"/>
      <point x="322" y="631"/>
      <point x="226" y="631" type="curve" smooth="yes"/>
      <point x="122" y="631"/>
      <point x="36" y="540"/>
      <point x="36" y="416" type="curve" smooth="yes"/>
      <point x="36" y="276"/>
      <point x="142" y="205"/>
      <point x="221" y="205" type="curve" smooth="yes"/>
      <point x="271" y="205"/>
      <point x="293" y="217"/>
      <point x="319" y="233" type="curve"/>
      <point x="320" y="367" type="line"/>
      <point x="289" y="335"/>
      <point x="245" y="314"/>
      <point x="200" y="314" type="curve" smooth="yes"/>
      <point x="151" y="314"/>
      <point x="127" y="343"/>
      <point x="127" y="389" type="curve" smooth="yes"/>
      <point x="127" y="463"/>
      <point x="199" y="538"/>
      <point x="253" y="538" type="curve" smooth="yes"/>
      <point x="285" y="538"/>
      <point x="299" y="518"/>
      <point x="299" y="480" type="curve" smooth="yes"/>
      <point x="299" y="89" type="line" smooth="yes"/>
      <point x="299" y="19"/>
      <point x="335" y="-33"/>
    </contour>
  </outline>
</glyph>
<glyph name="eight-beng" format="2">
  <advance width="558"/>
  <unicode hex="09EE"/>
  <outline>
    <contour>
      <point x="272" y="-21" type="curve" smooth="yes"/>
      <point x="361" y="-21"/>
      <point x="455" y="74"/>
      <point x="455" y="191" type="curve" smooth="yes"/>
      <point x="455" y="252"/>
      <point x="417" y="290"/>
      <point x="368" y="342" type="curve"/>
      <point x="321" y="342" type="line"/>
      <point x="343" y="296"/>
      <point x="353" y="266"/>
      <point x="353" y="225" type="curve" smooth="yes"/>
      <point x="353" y="141"/>
      <point x="301" y="76"/>
      <point x="249" y="76" type="curve" smooth="yes"/>
      <point x="223" y="76"/>
      <point x="209" y="92"/>
      <point x="209" y="127" type="curve" smooth="yes"/>
      <point x="209" y="518" type="line" smooth="yes"/>
      <point x="209" y="583"/>
      <point x="175" y="632"/>
      <point x="112" y="632" type="curve" smooth="yes"/>
      <point x="64" y="632"/>
      <point x="34" y="600"/>
      <point x="34" y="553" type="curve" smooth="yes"/>
      <point x="34" y="505"/>
      <point x="63" y="474"/>
      <point x="106" y="474" type="curve" smooth="yes"/>
      <point x="148" y="474"/>
      <point x="161" y="507"/>
      <point x="162" y="536" type="curve"/>
      <point x="123" y="541" type="line"/>
      <point x="123" y="139" type="line" smooth="yes"/>
      <point x="123" y="47"/>
      <point x="187" y="-21"/>
    </contour>
    <contour>
      <point x="182" y="255" type="line"/>
      <point x="223" y="289"/>
      <point x="299" y="325"/>
      <point x="366" y="325" type="curve" smooth="yes"/>
      <point x="415" y="325"/>
      <point x="436" y="284"/>
      <point x="478" y="284" type="curve" smooth="yes"/>
      <point x="523" y="284"/>
      <point x="548" y="322"/>
      <point x="552" y="428" type="curve"/>
      <point x="507" y="439" type="line"/>
      <point x="493" y="388"/>
      <point x="482" y="373"/>
      <point x="447" y="373" type="curve" smooth="yes"/>
      <point x="387" y="373"/>
      <point x="361" y="406"/>
      <point x="300" y="406" type="curve" smooth="yes"/>
      <point x="262" y="406"/>
      <point x="222" y="394"/>
      <point x="183" y="373" type="curve"/>
    </contour>
  </outline>
</glyph>
<glyph name="nine-beng" format="2">
  <advance width="521"/>
  <unicode hex="09EF"/>
  <outline>
    <contour>
      <point x="272" y="-24" type="line"/>
      <point x="361" y="-13"/>
      <point x="470" y="76"/>
      <point x="470" y="231" type="curve" smooth="yes"/>
      <point x="470" y="332"/>
      <point x="407" y="395"/>
      <point x="311" y="430" type="curve" smooth="yes"/>
      <point x="243" y="455"/>
      <point x="211" y="467"/>
      <point x="209" y="506" type="curve"/>
      <point x="164" y="506" type="line"/>
      <point x="171" y="488"/>
      <point x="189" y="480"/>
      <point x="209" y="480" type="curve" smooth="yes"/>
      <point x="250" y="480"/>
      <point x="273" y="509"/>
      <point x="273" y="553" type="curve" smooth="yes"/>
      <point x="273" y="596"/>
      <point x="246" y="633"/>
      <point x="188" y="633" type="curve" smooth="yes"/>
      <point x="130" y="633"/>
      <point x="85" y="584"/>
      <point x="85" y="513" type="curve" smooth="yes"/>
      <point x="85" y="431"/>
      <point x="137" y="387"/>
      <point x="239" y="354" type="curve" smooth="yes"/>
      <point x="333" y="323"/>
      <point x="393" y="297"/>
      <point x="393" y="209" type="curve" smooth="yes"/>
      <point x="393" y="141"/>
      <point x="365" y="97"/>
      <point x="312" y="89" type="curve"/>
      <point x="360" y="61" type="line"/>
      <point x="360" y="195"/>
      <point x="300" y="310"/>
      <point x="188" y="310" type="curve" smooth="yes"/>
      <point x="91" y="310"/>
      <point x="45" y="231"/>
      <point x="45" y="144" type="curve" smooth="yes"/>
      <point x="45" y="43"/>
      <point x="92" y="-9"/>
      <point x="152" y="-9" type="curve" smooth="yes"/>
      <point x="203" y="-9"/>
      <point x="225" y="27"/>
      <point x="225" y="74" type="curve" smooth="yes"/>
      <point x="225" y="121"/>
      <point x="198" y="151"/>
      <point x="158" y="151" type="curve" smooth="yes"/>
      <point x="123" y="151"/>
      <point x="96" y="124"/>
      <point x="97" y="89" type="curve"/>
      <point x="147" y="84" type="line"/>
      <point x="130" y="92"/>
      <point x="118" y="110"/>
      <point x="118" y="143" type="curve" smooth="yes"/>
      <point x="118" y="180"/>
      <point x="140" y="209"/>
      <point x="176" y="209" type="curve" smooth="yes"/>
      <point x="246" y="209"/>
      <point x="270" y="110"/>
      <point x="270" y="27" type="curve" smooth="yes"/>
      <point x="270" y="11"/>
      <point x="269" y="-3"/>
      <point x="266" y="-19" type="curve"/>
    </contour>
  </outline>
</glyph>
<glyph name="ralowerdiagonal-beng" format="2">
  <advance width="440"/>
  <unicode hex="09F1"/>
  <anchor x="381" y="34" name="bottom"/>
  <anchor x="382" y="87" name="bottom.rakaar"/>
  <anchor x="385" y="7" name="bottom.rvocalic"/>
  <anchor x="375" y="8" name="bottom.virama"/>
  <anchor x="171" y="46" name="nukta"/>
  <anchor x="357" y="583" name="top"/>
  <anchor x="358" y="571" name="topright"/>
  <outline>
    <contour>
      <point x="376" y="-24" type="line"/>
      <point x="385" y="-22" type="line"/>
      <point x="385" y="550" type="line"/>
      <point x="470" y="550" type="line"/>
      <point x="432" y="622" type="line"/>
      <point x="-31" y="622" type="line"/>
      <point x="7" y="550" type="line"/>
      <point x="299" y="550" type="line"/>
      <point x="299" y="469" type="line"/>
      <point x="309" y="517" type="line"/>
      <point x="201" y="476"/>
      <point x="86" y="414"/>
      <point x="2" y="347" type="curve"/>
      <point x="68" y="202" type="line"/>
      <point x="170" y="178"/>
      <point x="259" y="121"/>
      <point x="317" y="14" type="curve"/>
    </contour>
    <contour>
      <point x="299" y="95" type="line"/>
      <point x="317" y="94" type="line"/>
      <point x="283" y="201"/>
      <point x="206" y="265"/>
      <point x="132" y="293" type="curve"/>
      <point x="136" y="274" type="line"/>
      <point x="187" y="321"/>
      <point x="260" y="356"/>
      <point x="314" y="380" type="curve"/>
      <point x="299" y="422" type="line"/>
    </contour>
    <contour>
      <point x="264" y="-40" type="curve"/>
      <point x="292" y="-9" type="line"/>
      <point x="252" y="62"/>
      <point x="185" y="133"/>
      <point x="88" y="155" type="curve"/>
      <point x="89" y="70" type="line"/>
      <point x="165" y="51"/>
      <point x="218" y="17"/>
    </contour>
  </outline>
</glyph>
<glyph name="rupee-beng" format="2">
  <advance width="494"/>
  <unicode hex="09F3"/>
  <outline>
    <contour>
      <point x="255" y="6" type="curve" smooth="yes"/>
      <point x="377" y="6"/>
      <point x="458" y="163"/>
      <point x="458" y="283" type="curve" smooth="yes"/>
      <point x="458" y="377"/>
      <point x="408" y="419"/>
      <point x="353" y="419" type="curve" smooth="yes"/>
      <point x="294" y="419"/>
      <point x="257" y="377"/>
      <point x="257" y="322" type="curve" smooth="yes"/>
      <point x="257" y="269"/>
      <point x="288" y="230"/>
      <point x="341" y="230" type="curve" smooth="yes"/>
      <point x="358" y="230"/>
      <point x="378" y="242"/>
      <point x="394" y="263" type="curve"/>
      <point x="348" y="295" type="line"/>
      <point x="341" y="174"/>
      <point x="285" y="103"/>
      <point x="240" y="103" type="curve" smooth="yes"/>
      <point x="218" y="103"/>
      <point x="206" y="117"/>
      <point x="206" y="145" type="curve" smooth="yes"/>
      <point x="206" y="654" type="line" smooth="yes"/>
      <point x="206" y="727"/>
      <point x="174" y="774"/>
      <point x="113" y="774" type="curve" smooth="yes"/>
      <point x="63" y="774"/>
      <point x="33" y="742"/>
      <point x="33" y="693" type="curve" smooth="yes"/>
      <point x="33" y="645"/>
      <point x="63" y="616"/>
      <point x="102" y="616" type="curve" smooth="yes"/>
      <point x="143" y="616"/>
      <point x="158" y="647"/>
      <point x="160" y="677" type="curve"/>
      <point x="120" y="679" type="line"/>
      <point x="120" y="139" type="line" smooth="yes"/>
      <point x="120" y="56"/>
      <point x="184" y="6"/>
    </contour>
    <contour>
      <point x="52" y="471" type="line"/>
      <point x="466" y="471" type="line"/>
      <point x="435" y="541" type="line"/>
      <point x="19" y="541" type="line"/>
    </contour>
  </outline>
</glyph>
<glyph name="oneNumr-beng" format="2">
  <advance width="408"/>
  <unicode hex="09F4"/>
  <outline>
    <contour>
      <point x="114" y="-3" type="line"/>
      <point x="229" y="100"/>
      <point x="324" y="263"/>
      <point x="371" y="549" type="curve"/>
      <point x="312" y="561" type="line"/>
      <point x="247" y="302"/>
      <point x="130" y="178"/>
      <point x="11" y="83" type="curve"/>
    </contour>
  </outline>
</glyph>
<glyph name="twoNumr-beng" format="2">
  <advance width="566"/>
  <unicode hex="09F5"/>
  <outline>
    <contour>
      <point x="227" y="-6" type="line"/>
      <point x="363" y="98"/>
      <point x="466" y="284"/>
      <point x="524" y="639" type="curve"/>
      <point x="458" y="655" type="line"/>
      <point x="412" y="451"/>
      <point x="358" y="298"/>
      <point x="276" y="213" type="curve"/>
      <point x="305" y="198" type="line"/>
      <point x="312" y="215"/>
      <point x="313" y="236"/>
      <point x="313" y="251" type="curve" smooth="yes"/>
      <point x="313" y="386"/>
      <point x="238" y="446"/>
      <point x="150" y="446" type="curve" smooth="yes"/>
      <point x="74" y="446"/>
      <point x="20" y="385"/>
      <point x="20" y="312" type="curve" smooth="yes"/>
      <point x="20" y="242"/>
      <point x="60" y="207"/>
      <point x="108" y="207" type="curve" smooth="yes"/>
      <point x="161" y="207"/>
      <point x="188" y="244"/>
      <point x="188" y="291" type="curve" smooth="yes"/>
      <point x="188" y="328"/>
      <point x="173" y="353"/>
      <point x="145" y="367" type="curve"/>
      <point x="133" y="334" type="line"/>
      <point x="142" y="348"/>
      <point x="156" y="360"/>
      <point x="178" y="360" type="curve" smooth="yes"/>
      <point x="214" y="360"/>
      <point x="239" y="324"/>
      <point x="239" y="267" type="curve" smooth="yes"/>
      <point x="239" y="166"/>
      <point x="172" y="117"/>
      <point x="112" y="85" type="curve"/>
    </contour>
  </outline>
</glyph>
<glyph name="threeNumr-beng" format="2">
  <advance width="601"/>
  <unicode hex="09F6"/>
  <outline>
    <contour>
      <point x="210" y="-10" type="curve" smooth="yes"/>
      <point x="337" y="-10"/>
      <point x="457" y="93"/>
      <point x="557" y="639" type="curve"/>
      <point x="492" y="656" type="line"/>
      <point x="393" y="219"/>
      <point x="262" y="83"/>
      <point x="179" y="83" type="curve" smooth="yes"/>
      <point x="159" y="83"/>
      <point x="142" y="95"/>
      <point x="142" y="115" type="curve" smooth="yes"/>
      <point x="142" y="139"/>
      <point x="160" y="150"/>
      <point x="220" y="176" type="curve" smooth="yes"/>
      <point x="298" y="209"/>
      <point x="333" y="263"/>
      <point x="333" y="337" type="curve" smooth="yes"/>
      <point x="333" y="451"/>
      <point x="251" y="509"/>
      <point x="164" y="509" type="curve" smooth="yes"/>
      <point x="89" y="509"/>
      <point x="41" y="455"/>
      <point x="41" y="387" type="curve" smooth="yes"/>
      <point x="41" y="325"/>
      <point x="78" y="294"/>
      <point x="122" y="294" type="curve" smooth="yes"/>
      <point x="167" y="294"/>
      <point x="194" y="328"/>
      <point x="194" y="370" type="curve" smooth="yes"/>
      <point x="194" y="401"/>
      <point x="182" y="425"/>
      <point x="157" y="438" type="curve"/>
      <point x="156" y="393" type="line"/>
      <point x="167" y="411"/>
      <point x="183" y="420"/>
      <point x="202" y="420" type="curve" smooth="yes"/>
      <point x="228" y="420"/>
      <point x="250" y="405"/>
      <point x="250" y="369" type="curve" smooth="yes"/>
      <point x="250" y="327"/>
      <point x="219" y="297"/>
      <point x="143" y="269" type="curve" smooth="yes"/>
      <point x="70" y="243"/>
      <point x="34" y="207"/>
      <point x="34" y="147" type="curve" smooth="yes"/>
      <point x="34" y="63"/>
      <point x="123" y="-10"/>
    </contour>
  </outline>
</glyph>
<glyph name="fourNumr-beng" format="2">
  <advance width="297"/>
  <unicode hex="09F7"/>
  <outline>
    <contour>
      <point x="214" y="-27" type="curve" smooth="yes"/>
      <point x="264" y="-27"/>
      <point x="294" y="6"/>
      <point x="294" y="55" type="curve" smooth="yes"/>
      <point x="294" y="102"/>
      <point x="264" y="132"/>
      <point x="225" y="132" type="curve" smooth="yes"/>
      <point x="184" y="132"/>
      <point x="169" y="100"/>
      <point x="166" y="71" type="curve"/>
      <point x="207" y="69" type="line"/>
      <point x="207" y="512" type="line" smooth="yes"/>
      <point x="207" y="586"/>
      <point x="175" y="633"/>
      <point x="114" y="633" type="curve" smooth="yes"/>
      <point x="64" y="633"/>
      <point x="35" y="600"/>
      <point x="35" y="551" type="curve" smooth="yes"/>
      <point x="35" y="504"/>
      <point x="65" y="474"/>
      <point x="103" y="474" type="curve" smooth="yes"/>
      <point x="144" y="474"/>
      <point x="160" y="506"/>
      <point x="162" y="535" type="curve"/>
      <point x="122" y="537" type="line"/>
      <point x="122" y="94" type="line" smooth="yes"/>
      <point x="122" y="20"/>
      <point x="153" y="-27"/>
    </contour>
  </outline>
</glyph>
<glyph name="oneLessNumr-beng" format="2">
  <advance width="532"/>
  <unicode hex="09F8"/>
  <outline>
    <contour>
      <point x="450" y="-5" type="curve" smooth="yes"/>
      <point x="500" y="-5"/>
      <point x="529" y="27"/>
      <point x="529" y="76" type="curve" smooth="yes"/>
      <point x="529" y="124"/>
      <point x="499" y="153"/>
      <point x="461" y="153" type="curve" smooth="yes"/>
      <point x="420" y="153"/>
      <point x="404" y="122"/>
      <point x="402" y="92" type="curve"/>
      <point x="442" y="90" type="line"/>
      <point x="442" y="437" type="line"/>
      <point x="359" y="499" type="line"/>
      <point x="291" y="435"/>
      <point x="230" y="355"/>
      <point x="185" y="281" type="curve"/>
      <point x="200" y="250" type="line"/>
      <point x="204" y="293"/>
      <point x="207" y="342"/>
      <point x="207" y="380" type="curve" smooth="yes"/>
      <point x="207" y="512" type="line" smooth="yes"/>
      <point x="207" y="586"/>
      <point x="175" y="633"/>
      <point x="114" y="633" type="curve" smooth="yes"/>
      <point x="64" y="633"/>
      <point x="35" y="600"/>
      <point x="35" y="551" type="curve" smooth="yes"/>
      <point x="35" y="504"/>
      <point x="65" y="474"/>
      <point x="103" y="474" type="curve" smooth="yes"/>
      <point x="144" y="474"/>
      <point x="160" y="506"/>
      <point x="162" y="535" type="curve"/>
      <point x="122" y="537" type="line"/>
      <point x="122" y="179" type="line"/>
      <point x="207" y="124" type="line"/>
      <point x="270" y="223"/>
      <point x="326" y="297"/>
      <point x="397" y="372" type="curve"/>
      <point x="357" y="404" type="line"/>
      <point x="357" y="115" type="line" smooth="yes"/>
      <point x="357" y="42"/>
      <point x="389" y="-5"/>
    </contour>
  </outline>
</glyph>
<glyph name="sixteenDnom-beng" format="2">
  <advance width="344"/>
  <unicode hex="09F9"/>
  <outline>
    <contour>
      <point x="178" y="124" type="curve" smooth="yes"/>
      <point x="260" y="124"/>
      <point x="321" y="189"/>
      <point x="321" y="295" type="curve" smooth="yes"/>
      <point x="321" y="410"/>
      <point x="261" y="502"/>
      <point x="169" y="502" type="curve" smooth="yes"/>
      <point x="82" y="502"/>
      <point x="23" y="434"/>
      <point x="23" y="329" type="curve" smooth="yes"/>
      <point x="23" y="212"/>
      <point x="88" y="124"/>
    </contour>
    <contour>
      <point x="153" y="222" type="curve" smooth="yes"/>
      <point x="120" y="222"/>
      <point x="99" y="246"/>
      <point x="99" y="288" type="curve" smooth="yes"/>
      <point x="99" y="350"/>
      <point x="149" y="399"/>
      <point x="194" y="399" type="curve" smooth="yes"/>
      <point x="225" y="399"/>
      <point x="244" y="373"/>
      <point x="244" y="332" type="curve" smooth="yes"/>
      <point x="244" y="272"/>
      <point x="194" y="222"/>
    </contour>
  </outline>
</glyph>
<glyph name="ganda-beng" format="2">
  <advance width="298"/>
  <unicode hex="09FB"/>
  <outline>
    <contour>
      <point x="251" y="-89" type="curve"/>
      <point x="303" y="-59" type="line"/>
      <point x="229" y="51"/>
      <point x="157" y="195"/>
      <point x="157" y="299" type="curve" smooth="yes"/>
      <point x="157" y="350"/>
      <point x="171" y="377"/>
      <point x="214" y="405" type="curve"/>
      <point x="154" y="502" type="line"/>
      <point x="84" y="466"/>
      <point x="42" y="416"/>
      <point x="42" y="340" type="curve" smooth="yes"/>
      <point x="42" y="210"/>
      <point x="141" y="69"/>
    </contour>
  </outline>
</glyph>
<glyph name="uni09FC" format="2">
  <advance width="425"/>
  <unicode hex="09FC"/>
  <anchor x="-197" y="0" name="vedic"/>
  <outline>
    <contour>
      <point x="215" y="255" type="curve" smooth="yes"/>
      <point x="308" y="255"/>
      <point x="358" y="322"/>
      <point x="372" y="457" type="curve"/>
      <point x="329" y="471" type="line"/>
      <point x="313" y="399"/>
      <point x="275" y="355"/>
      <point x="213" y="355" type="curve" smooth="yes"/>
      <point x="155" y="355"/>
      <point x="112" y="399"/>
      <point x="97" y="471" type="curve"/>
      <point x="53" y="457" type="line"/>
      <point x="65" y="326"/>
      <point x="122" y="255"/>
    </contour>
    <contour>
      <point x="212" y="399" type="curve" smooth="yes"/>
      <point x="248" y="399"/>
      <point x="272" y="423"/>
      <point x="272" y="463" type="curve" smooth="yes"/>
      <point x="272" y="503"/>
      <point x="248" y="528"/>
      <point x="212" y="528" type="curve" smooth="yes"/>
      <point x="175" y="528"/>
      <point x="150" y="503"/>
      <point x="150" y="463" type="curve" smooth="yes"/>
      <point x="150" y="423"/>
      <point x="175" y="399"/>
    </contour>
    <contour>
      <point x="374" y="-37" type="curve"/>
      <point x="411" y="4" type="line"/>
      <point x="337" y="104"/>
      <point x="249" y="154"/>
      <point x="155" y="183" type="curve"/>
      <point x="124" y="87" type="line"/>
      <point x="216" y="67"/>
      <point x="296" y="33"/>
    </contour>
  </outline>
</glyph>
<glyph name="uni09FE" format="2">
  <unicode hex="09FE"/>
  <outline>
    <contour>
      <point x="131" y="922" type="curve"/>
      <point x="158" y="954" type="line"/>
      <point x="107" y="1001"/>
      <point x="37" y="1043"/>
      <point x="-30" y="1056" type="curve"/>
      <point x="-58" y="1029" type="line"/>
      <point x="-47" y="1024"/>
      <point x="-30" y="1020"/>
      <point x="-13" y="1020" type="curve" smooth="yes"/>
      <point x="68" y="1020"/>
      <point x="117" y="1061"/>
      <point x="117" y="1123" type="curve" smooth="yes"/>
      <point x="117" y="1176"/>
      <point x="77" y="1224"/>
      <point x="-15" y="1224" type="curve" smooth="yes"/>
      <point x="-76" y="1224"/>
      <point x="-106" y="1204"/>
      <point x="-106" y="1166" type="curve" smooth="yes"/>
      <point x="-106" y="1128"/>
      <point x="-81" y="1109"/>
      <point x="-43" y="1109" type="curve" smooth="yes"/>
      <point x="-2" y="1109"/>
      <point x="17" y="1130"/>
      <point x="17" y="1177" type="curve" smooth="yes"/>
      <point x="17" y="1210"/>
      <point x="-8" y="1254"/>
      <point x="-39" y="1273" type="curve"/>
      <point x="-175" y="1273" type="line"/>
      <point x="-155" y="1231" type="line"/>
      <point x="-62" y="1231" type="line"/>
      <point x="-74" y="1244" type="line"/>
      <point x="-109" y="1248" type="line"/>
      <point x="-78" y="1236"/>
      <point x="-52" y="1220"/>
      <point x="-38" y="1196" type="curve"/>
      <point x="-35" y="1156" type="line"/>
      <point x="-25" y="1165"/>
      <point x="-4" y="1175"/>
      <point x="12" y="1175" type="curve" smooth="yes"/>
      <point x="44" y="1175"/>
      <point x="60" y="1158"/>
      <point x="60" y="1135" type="curve" smooth="yes"/>
      <point x="60" y="1100"/>
      <point x="26" y="1082"/>
      <point x="-27" y="1082" type="curve" smooth="yes"/>
      <point x="-59" y="1082"/>
      <point x="-87" y="1087"/>
      <point x="-113" y="1097" type="curve"/>
      <point x="-98" y="1019" type="line"/>
      <point x="-14" y="1009"/>
      <point x="51" y="982"/>
    </contour>
  </outline>
</glyph>
<glyph name="uni1CD0" format="2">
  <unicode hex="1CD0"/>
  <note>
uni1CD0
</note>
  <anchor x="-299" y="-275" name="_vedic"/>
  <outline>
    <contour>
      <point x="-362" y="695" type="line"/>
      <point x="-265" y="835" type="line"/>
      <point x="-299" y="838" type="line"/>
      <point x="-194" y="695" type="line"/>
      <point x="-145" y="729" type="line"/>
      <point x="-305" y="944" type="line"/>
      <point x="-452" y="756" type="line"/>
    </contour>
  </outline>
</glyph>
<glyph name="uni1CD5" format="2">
  <unicode hex="1CD5"/>
  <note>
uni1CD5
</note>
  <anchor x="-299" y="420" name="_vedic"/>
  <outline>
    <contour>
      <point x="-347" y="-295" type="curve" smooth="yes"/>
      <point x="-291" y="-295"/>
      <point x="-251" y="-252"/>
      <point x="-251" y="-183" type="curve" smooth="yes"/>
      <point x="-251" y="-122" type="line"/>
      <point x="-333" y="-87" type="line"/>
      <point x="-333" y="-153" type="line" smooth="yes"/>
      <point x="-333" y="-202"/>
      <point x="-350" y="-230"/>
      <point x="-378" y="-230" type="curve" smooth="yes"/>
      <point x="-396" y="-230"/>
      <point x="-410" y="-217"/>
      <point x="-410" y="-194" type="curve" smooth="yes"/>
      <point x="-410" y="-169"/>
      <point x="-399" y="-141"/>
      <point x="-379" y="-105" type="curve"/>
      <point x="-462" y="-58" type="line"/>
      <point x="-480" y="-86"/>
      <point x="-493" y="-122"/>
      <point x="-493" y="-153" type="curve" smooth="yes"/>
      <point x="-493" y="-223"/>
      <point x="-425" y="-295"/>
    </contour>
    <contour>
      <point x="-195" y="-295" type="curve" smooth="yes"/>
      <point x="-140" y="-295"/>
      <point x="-105" y="-253"/>
      <point x="-105" y="-193" type="curve" smooth="yes"/>
      <point x="-105" y="-147"/>
      <point x="-122" y="-103"/>
      <point x="-160" y="-60" type="curve"/>
      <point x="-202" y="-90" type="line"/>
      <point x="-186" y="-116"/>
      <point x="-176" y="-141"/>
      <point x="-176" y="-170" type="curve" smooth="yes"/>
      <point x="-176" y="-203"/>
      <point x="-194" y="-225"/>
      <point x="-223" y="-225" type="curve" smooth="yes"/>
      <point x="-250" y="-225"/>
      <point x="-271" y="-206"/>
      <point x="-289" y="-172" type="curve"/>
      <point x="-318" y="-190" type="line"/>
      <point x="-298" y="-254"/>
      <point x="-252" y="-295"/>
    </contour>
  </outline>
</glyph>
<glyph name="uni1CD6" format="2">
  <unicode hex="1CD6"/>
  <note>
uni1CD6
</note>
  <anchor x="-299" y="420" name="_vedic"/>
  <outline>
    <contour>
      <point x="-414" y="-262" type="line"/>
      <point x="-118" y="-262" type="line"/>
      <point x="-168" y="-190" type="line"/>
      <point x="-380" y="-190" type="line"/>
      <point x="-380" y="-106" type="line"/>
      <point x="-466" y="-59" type="line"/>
      <point x="-466" y="-199" type="line"/>
    </contour>
  </outline>
</glyph>
<glyph name="uni1CE1" format="2">
  <advance width="489"/>
  <unicode hex="1CE1"/>
  <note>
uni1CE1
</note>
  <outline>
    <contour>
      <point x="161" y="-182" type="curve" smooth="yes"/>
      <point x="256" y="-182"/>
      <point x="304" y="-123"/>
      <point x="304" y="16" type="curve" smooth="yes"/>
      <point x="304" y="188"/>
      <point x="251" y="384"/>
      <point x="251" y="616" type="curve" smooth="yes"/>
      <point x="251" y="714"/>
      <point x="287" y="742"/>
      <point x="327" y="742" type="curve" smooth="yes"/>
      <point x="365" y="742"/>
      <point x="390" y="719"/>
      <point x="415" y="679" type="curve"/>
      <point x="449" y="697" type="line"/>
      <point x="416" y="786"/>
      <point x="374" y="851"/>
      <point x="289" y="851" type="curve" smooth="yes"/>
      <point x="200" y="851"/>
      <point x="152" y="776"/>
      <point x="152" y="666" type="curve" smooth="yes"/>
      <point x="152" y="508"/>
      <point x="205" y="332"/>
      <point x="205" y="74" type="curve" smooth="yes"/>
      <point x="205" y="-35"/>
      <point x="167" y="-69"/>
      <point x="109" y="-69" type="curve" smooth="yes"/>
      <point x="75" y="-69"/>
      <point x="47" y="-61"/>
      <point x="14" y="-36" type="curve"/>
      <point x="0" y="-61" type="line"/>
      <point x="26" y="-135"/>
      <point x="80" y="-182"/>
    </contour>
  </outline>
</glyph>
<glyph name="uni1CEA" format="2">
  <advance width="695"/>
  <unicode hex="1CEA"/>
  <note>
uni1CEA
</note>
  <anchor x="347" y="0" name="vedic"/>
  <outline>
    <contour>
      <point x="384" y="-7" type="curve" smooth="yes"/>
      <point x="524" y="-7"/>
      <point x="610" y="63"/>
      <point x="610" y="155" type="curve" smooth="yes"/>
      <point x="610" y="287"/>
      <point x="486" y="365"/>
      <point x="486" y="468" type="curve" smooth="yes"/>
      <point x="486" y="524"/>
      <point x="521" y="557"/>
      <point x="557" y="557" type="curve" smooth="yes"/>
      <point x="577" y="557"/>
      <point x="587" y="547"/>
      <point x="587" y="531" type="curve" smooth="yes"/>
      <point x="587" y="505"/>
      <point x="554" y="481"/>
      <point x="509" y="464" type="curve"/>
      <point x="557" y="370" type="line"/>
      <point x="619" y="396"/>
      <point x="661" y="433"/>
      <point x="661" y="490" type="curve" smooth="yes"/>
      <point x="661" y="564"/>
      <point x="604" y="634"/>
      <point x="518" y="634" type="curve" smooth="yes"/>
      <point x="444" y="634"/>
      <point x="389" y="582"/>
      <point x="389" y="505" type="curve" smooth="yes"/>
      <point x="389" y="397"/>
      <point x="500" y="322"/>
      <point x="500" y="206" type="curve" smooth="yes"/>
      <point x="500" y="130"/>
      <point x="433" y="80"/>
      <point x="338" y="80" type="curve" smooth="yes"/>
      <point x="254" y="80"/>
      <point x="209" y="110"/>
      <point x="209" y="158" type="curve" smooth="yes"/>
      <point x="209" y="246"/>
      <point x="347" y="323"/>
      <point x="347" y="434" type="curve" smooth="yes"/>
      <point x="347" y="528"/>
      <point x="275" y="632"/>
      <point x="180" y="632" type="curve" smooth="yes"/>
      <point x="116" y="632"/>
      <point x="72" y="588"/>
      <point x="72" y="529" type="curve" smooth="yes"/>
      <point x="72" y="473"/>
      <point x="109" y="421"/>
      <point x="168" y="380" type="curve"/>
      <point x="203" y="416" type="line"/>
      <point x="184" y="437"/>
      <point x="173" y="459"/>
      <point x="173" y="484" type="curve" smooth="yes"/>
      <point x="173" y="515"/>
      <point x="196" y="543"/>
      <point x="225" y="543" type="curve" smooth="yes"/>
      <point x="249" y="543"/>
      <point x="262" y="525"/>
      <point x="262" y="498" type="curve" smooth="yes"/>
      <point x="262" y="382"/>
      <point x="111" y="325"/>
      <point x="111" y="208" type="curve" smooth="yes"/>
      <point x="111" y="97"/>
      <point x="226" y="-7"/>
    </contour>
  </outline>
</glyph>
<glyph name="uni1CED" format="2">
  <unicode hex="1CED"/>
  <note>
uni1CED
</note>
  <anchor x="-299" y="420" name="_vedic"/>
  <outline>
    <contour>
      <point x="-415" y="-113" type="line"/>
      <point x="-223" y="-323" type="line"/>
      <point x="-161" y="-272" type="line"/>
      <point x="-347" y="-57" type="line"/>
    </contour>
  </outline>
</glyph>
<glyph name="uni1CF2" format="2">
  <advance width="434"/>
  <unicode hex="1CF2"/>
  <note>
uni1CF2
</note>
  <anchor x="-197" y="0" name="vedic"/>
  <outline>
    <contour>
      <point x="220" y="298" type="curve" smooth="yes"/>
      <point x="324" y="298"/>
      <point x="382" y="378"/>
      <point x="395" y="492" type="curve"/>
      <point x="289" y="515" type="line"/>
      <point x="282" y="434"/>
      <point x="255" y="390"/>
      <point x="200" y="390" type="curve" smooth="yes"/>
      <point x="144" y="390"/>
      <point x="112" y="437"/>
      <point x="104" y="515" type="curve"/>
      <point x="39" y="501" type="line"/>
      <point x="52" y="385"/>
      <point x="109" y="298"/>
    </contour>
    <contour>
      <point x="145" y="43" type="line"/>
      <point x="152" y="125"/>
      <point x="180" y="169"/>
      <point x="236" y="169" type="curve" smooth="yes"/>
      <point x="290" y="169"/>
      <point x="322" y="122"/>
      <point x="330" y="43" type="curve"/>
      <point x="395" y="57" type="line"/>
      <point x="382" y="174"/>
      <point x="326" y="261"/>
      <point x="216" y="261" type="curve" smooth="yes"/>
      <point x="110" y="261"/>
      <point x="52" y="181"/>
      <point x="39" y="66" type="curve"/>
    </contour>
  </outline>
</glyph>
<glyph name="uni1CF6" format="2">
  <advance width="547"/>
  <unicode hex="1CF6"/>
  <note>
uni1CF6
</note>
  <outline>
    <contour>
      <point x="208" y="124" type="curve" smooth="yes"/>
      <point x="277" y="124"/>
      <point x="327" y="182"/>
      <point x="327" y="290" type="curve" smooth="yes"/>
      <point x="327" y="401" type="line"/>
      <point x="231" y="431" type="line"/>
      <point x="231" y="297" type="line" smooth="yes"/>
      <point x="231" y="238"/>
      <point x="215" y="206"/>
      <point x="181" y="206" type="curve" smooth="yes"/>
      <point x="154" y="206"/>
      <point x="136" y="224"/>
      <point x="136" y="271" type="curve" smooth="yes"/>
      <point x="136" y="315"/>
      <point x="150" y="354"/>
      <point x="179" y="403" type="curve"/>
      <point x="80" y="467" type="line"/>
      <point x="58" y="433"/>
      <point x="40" y="390"/>
      <point x="40" y="341" type="curve" smooth="yes"/>
      <point x="40" y="227"/>
      <point x="119" y="124"/>
    </contour>
    <contour>
      <point x="396" y="125" type="curve" smooth="yes"/>
      <point x="462" y="125"/>
      <point x="507" y="178"/>
      <point x="507" y="268" type="curve" smooth="yes"/>
      <point x="507" y="347"/>
      <point x="474" y="408"/>
      <point x="428" y="464" type="curve"/>
      <point x="372" y="427" type="line"/>
      <point x="398" y="388"/>
      <point x="417" y="353"/>
      <point x="417" y="293" type="curve" smooth="yes"/>
      <point x="417" y="237"/>
      <point x="394" y="212"/>
      <point x="362" y="212" type="curve" smooth="yes"/>
      <point x="327" y="212"/>
      <point x="304" y="241"/>
      <point x="282" y="290" type="curve"/>
      <point x="249" y="270" type="line"/>
      <point x="273" y="177"/>
      <point x="326" y="125"/>
    </contour>
  </outline>
</glyph>
<glyph name="uni1CF7" format="2">
  <advance width="489"/>
  <unicode hex="1CF7"/>
  <note>
uni1CE1
</note>
  <outline>
    <contour>
      <point x="286" y="-182" type="line"/>
      <point x="297" y="-116"/>
      <point x="304" y="-60"/>
      <point x="304" y="28" type="curve" smooth="yes"/>
      <point x="304" y="234"/>
      <point x="232" y="392"/>
      <point x="232" y="607" type="curve" smooth="yes"/>
      <point x="232" y="711"/>
      <point x="270" y="742"/>
      <point x="321" y="742" type="curve" smooth="yes"/>
      <point x="368" y="742"/>
      <point x="390" y="718"/>
      <point x="415" y="679" type="curve"/>
      <point x="449" y="697" type="line"/>
      <point x="416" y="786"/>
      <point x="374" y="851"/>
      <point x="283" y="851" type="curve" smooth="yes"/>
      <point x="189" y="851"/>
      <point x="135" y="775"/>
      <point x="135" y="661" type="curve" smooth="yes"/>
      <point x="135" y="459"/>
      <point x="205" y="337"/>
      <point x="205" y="80" type="curve" smooth="yes"/>
      <point x="205" y="-23"/>
      <point x="194" y="-94"/>
      <point x="174" y="-167" type="curve"/>
    </contour>
  </outline>
</glyph>
<glyph name="quotedblleft" format="2">
  <advance width="392"/>
  <unicode hex="201C"/>
  <outline>
    <contour>
      <point x="282" y="415" type="curve" smooth="yes"/>
      <point x="316" y="415"/>
      <point x="341" y="439"/>
      <point x="341" y="482" type="curve" smooth="yes"/>
      <point x="341" y="556"/>
      <point x="281" y="545"/>
      <point x="281" y="584" type="curve"/>
      <point x="281" y="623"/>
      <point x="306" y="644"/>
      <point x="353" y="665" type="curve"/>
      <point x="353" y="714" type="line"/>
      <point x="245" y="679"/>
      <point x="205" y="603"/>
      <point x="205" y="518" type="curve" smooth="yes"/>
      <point x="205" y="454"/>
      <point x="234" y="415"/>
    </contour>
    <contour>
      <point x="122" y="415" type="curve" smooth="yes"/>
      <point x="156" y="415"/>
      <point x="182" y="439"/>
      <point x="182" y="482" type="curve" smooth="yes"/>
      <point x="182" y="556"/>
      <point x="122" y="545"/>
      <point x="122" y="584" type="curve"/>
      <point x="122" y="623"/>
      <point x="147" y="644"/>
      <point x="193" y="665" type="curve"/>
      <point x="193" y="714" type="line"/>
      <point x="86" y="679"/>
      <point x="45" y="603"/>
      <point x="45" y="518" type="curve" smooth="yes"/>
      <point x="45" y="454"/>
      <point x="74" y="415"/>
    </contour>
  </outline>
</glyph>
<glyph name="quotedblright" format="2">
  <advance width="392"/>
  <unicode hex="201D"/>
  <outline>
    <contour>
      <point x="198" y="415" type="line"/>
      <point x="305" y="450"/>
      <point x="346" y="526"/>
      <point x="346" y="611" type="curve" smooth="yes"/>
      <point x="346" y="675"/>
      <point x="316" y="714"/>
      <point x="269" y="714" type="curve" smooth="yes"/>
      <point x="236" y="714"/>
      <point x="210" y="691"/>
      <point x="210" y="648" type="curve" smooth="yes"/>
      <point x="210" y="573"/>
      <point x="269" y="585"/>
      <point x="269" y="546" type="curve"/>
      <point x="269" y="507"/>
      <point x="245" y="485"/>
      <point x="198" y="464" type="curve"/>
    </contour>
    <contour>
      <point x="39" y="415" type="line"/>
      <point x="147" y="450"/>
      <point x="187" y="526"/>
      <point x="187" y="611" type="curve" smooth="yes"/>
      <point x="187" y="675"/>
      <point x="158" y="714"/>
      <point x="110" y="714" type="curve" smooth="yes"/>
      <point x="76" y="714"/>
      <point x="51" y="691"/>
      <point x="51" y="648" type="curve" smooth="yes"/>
      <point x="51" y="573"/>
      <point x="110" y="585"/>
      <point x="110" y="546" type="curve"/>
      <point x="110" y="507"/>
      <point x="86" y="485"/>
      <point x="39" y="464" type="curve"/>
    </contour>
  </outline>
</glyph>
<glyph name="ellipsis" format="2">
  <advance width="720"/>
  <unicode hex="2026"/>
  <outline>
    <contour>
      <point x="597" y="-8" type="curve" smooth="yes"/>
      <point x="633" y="-8"/>
      <point x="666" y="11"/>
      <point x="666" y="69" type="curve" smooth="yes"/>
      <point x="666" y="126"/>
      <point x="633" y="145"/>
      <point x="597" y="145" type="curve" smooth="yes"/>
      <point x="558" y="145"/>
      <point x="527" y="126"/>
      <point x="527" y="69" type="curve" smooth="yes"/>
      <point x="527" y="11"/>
      <point x="558" y="-8"/>
    </contour>
    <contour>
      <point x="124" y="-8" type="curve" smooth="yes"/>
      <point x="161" y="-8"/>
      <point x="192" y="11"/>
      <point x="192" y="69" type="curve" smooth="yes"/>
      <point x="192" y="126"/>
      <point x="161" y="145"/>
      <point x="124" y="145" type="curve" smooth="yes"/>
      <point x="85" y="145"/>
      <point x="54" y="126"/>
      <point x="54" y="69" type="curve" smooth="yes"/>
      <point x="54" y="11"/>
      <point x="85" y="-8"/>
    </contour>
    <contour>
      <point x="359" y="-8" type="curve" smooth="yes"/>
      <point x="396" y="-8"/>
      <point x="428" y="11"/>
      <point x="428" y="69" type="curve" smooth="yes"/>
      <point x="428" y="126"/>
      <point x="396" y="145"/>
      <point x="359" y="145" type="curve" smooth="yes"/>
      <point x="320" y="145"/>
      <point x="290" y="126"/>
      <point x="290" y="69" type="curve" smooth="yes"/>
      <point x="290" y="11"/>
      <point x="320" y="-8"/>
    </contour>
  </outline>
</glyph>
<glyph name="rupeeIndian" format="2">
  <advance width="518"/>
  <unicode hex="20B9"/>
  <outline>
    <contour>
      <point x="369" y="0" type="curve" smooth="yes"/>
      <point x="421" y="0" type="line"/>
      <point x="421" y="50" type="line"/>
      <point x="410" y="50" type="line" smooth="yes"/>
      <point x="376" y="50"/>
      <point x="344" y="78"/>
      <point x="308" y="133" type="curve" smooth="yes"/>
      <point x="188" y="322" type="line"/>
      <point x="298" y="330"/>
      <point x="361" y="392"/>
      <point x="374" y="485" type="curve"/>
      <point x="467" y="485" type="line"/>
      <point x="467" y="540" type="line"/>
      <point x="377" y="540" type="line"/>
      <point x="374" y="590"/>
      <point x="358" y="632"/>
      <point x="327" y="660" type="curve"/>
      <point x="467" y="660" type="line"/>
      <point x="467" y="714" type="line"/>
      <point x="41" y="714" type="line"/>
      <point x="41" y="660" type="line"/>
      <point x="98" y="660" type="line" smooth="yes"/>
      <point x="184" y="660"/>
      <point x="225" y="621"/>
      <point x="232" y="540" type="curve"/>
      <point x="42" y="540" type="line"/>
      <point x="42" y="485" type="line"/>
      <point x="231" y="485" type="line"/>
      <point x="223" y="399"/>
      <point x="178" y="362"/>
      <point x="88" y="362" type="curve" smooth="yes"/>
      <point x="41" y="362" type="line"/>
      <point x="41" y="320" type="line"/>
      <point x="177" y="96" type="line" smooth="yes"/>
      <point x="220" y="26"/>
      <point x="258" y="0"/>
    </contour>
  </outline>
</glyph>
<glyph name="uniA8F1" format="2">
  <unicode hex="A8F1"/>
  <note>
uniA8F1
</note>
  <outline>
    <contour>
      <point x="-73" y="979" type="curve" smooth="yes"/>
      <point x="-24" y="979"/>
      <point x="2" y="1008"/>
      <point x="2" y="1048" type="curve" smooth="yes"/>
      <point x="2" y="1130"/>
      <point x="-96" y="1164"/>
      <point x="-96" y="1204" type="curve" smooth="yes"/>
      <point x="-96" y="1216"/>
      <point x="-87" y="1224"/>
      <point x="-70" y="1224" type="curve" smooth="yes"/>
      <point x="-9" y="1224" type="line"/>
      <point x="-9" y="1230" type="line"/>
      <point x="-29" y="1273" type="line"/>
      <point x="-103" y="1273" type="line" smooth="yes"/>
      <point x="-142" y="1273"/>
      <point x="-166" y="1252"/>
      <point x="-166" y="1222" type="curve" smooth="yes"/>
      <point x="-166" y="1158"/>
      <point x="-65" y="1117"/>
      <point x="-65" y="1067" type="curve" smooth="yes"/>
      <point x="-65" y="1048"/>
      <point x="-74" y="1036"/>
      <point x="-96" y="1036" type="curve" smooth="yes"/>
      <point x="-122" y="1036"/>
      <point x="-146" y="1066"/>
      <point x="-173" y="1114" type="curve"/>
      <point x="-210" y="1097" type="line"/>
      <point x="-177" y="1024"/>
      <point x="-133" y="979"/>
    </contour>
  </outline>
</glyph>
<glyph name="aiMatra-beng.init" format="2">
  <advance width="336"/>
  <outline>
    <contour>
      <point x="277" y="598" type="curve"/>
      <point x="333" y="598" type="line"/>
      <point x="331" y="742"/>
      <point x="286" y="812"/>
      <point x="199" y="812" type="curve" smooth="yes"/>
      <point x="159" y="812"/>
      <point x="132" y="806"/>
      <point x="88" y="806" type="curve" smooth="yes"/>
      <point x="37" y="806"/>
      <point x="15" y="832"/>
      <point x="15" y="883" type="curve" smooth="yes"/>
      <point x="15" y="900"/>
      <point x="16" y="917"/>
      <point x="18" y="928" type="curve"/>
      <point x="-32" y="933" type="line"/>
      <point x="-37" y="908"/>
      <point x="-41" y="880"/>
      <point x="-41" y="852" type="curve" smooth="yes"/>
      <point x="-41" y="756"/>
      <point x="0" y="695"/>
      <point x="89" y="695" type="curve" smooth="yes"/>
      <point x="142" y="695"/>
      <point x="169" y="703"/>
      <point x="204" y="703" type="curve" smooth="yes"/>
      <point x="243" y="703"/>
      <point x="275" y="684"/>
    </contour>
    <contour>
      <point x="232" y="-26" type="curve" smooth="yes"/>
      <point x="295" y="-26"/>
      <point x="333" y="11"/>
      <point x="333" y="76" type="curve" smooth="yes"/>
      <point x="333" y="127"/>
      <point x="304" y="171"/>
      <point x="249" y="171" type="curve" smooth="yes"/>
      <point x="202" y="171"/>
      <point x="170" y="136"/>
      <point x="170" y="88" type="curve" smooth="yes"/>
      <point x="170" y="54"/>
      <point x="182" y="31"/>
      <point x="197" y="14" type="curve"/>
      <point x="230" y="29" type="line"/>
      <point x="159" y="49"/>
      <point x="125" y="120"/>
      <point x="125" y="250" type="curve" smooth="yes"/>
      <point x="125" y="430"/>
      <point x="230" y="550"/>
      <point x="333" y="550" type="curve" smooth="yes"/>
      <point x="367" y="550" type="line"/>
      <point x="330" y="622" type="line"/>
      <point x="267" y="622" type="line" smooth="yes"/>
      <point x="133" y="622"/>
      <point x="29" y="483"/>
      <point x="29" y="290" type="curve" smooth="yes"/>
      <point x="29" y="90"/>
      <point x="126" y="-26"/>
    </contour>
  </outline>
</glyph>
<glyph name="assacross" format="2">
  <advance width="440"/>
  <anchor x="229" y="47" name="_nukta"/>
  <outline>
    <contour>
      <point x="376" y="177" type="curve"/>
      <point x="395" y="208" type="line"/>
      <point x="364" y="275"/>
      <point x="305" y="326"/>
      <point x="251" y="364" type="curve"/>
      <point x="203" y="324" type="line"/>
      <point x="263" y="299"/>
      <point x="321" y="256"/>
    </contour>
  </outline>
</glyph>
<glyph name="assastroke" format="2">
  <advance width="332"/>
  <anchor x="139" y="46" name="_nukta"/>
  <outline>
    <contour>
      <point x="232" y="-40" type="curve"/>
      <point x="260" y="-9" type="line"/>
      <point x="220" y="62"/>
      <point x="153" y="133"/>
      <point x="56" y="155" type="curve"/>
      <point x="57" y="70" type="line"/>
      <point x="133" y="51"/>
      <point x="186" y="17"/>
    </contour>
  </outline>
</glyph>
<glyph name="auLength-beng.fina" format="2">
  <advance width="180"/>
  <anchor x="287" y="598" name="top"/>
  <anchor x="-10" y="600" name="topright"/>
  <outline>
    <contour>
      <point x="133" y="-35" type="line"/>
      <point x="141" y="-33" type="line"/>
      <point x="141" y="588" type="line" smooth="yes"/>
      <point x="141" y="742"/>
      <point x="58" y="822"/>
      <point x="-37" y="822" type="curve" smooth="yes"/>
      <point x="-100" y="822"/>
      <point x="-150" y="806"/>
      <point x="-219" y="806" type="curve" smooth="yes"/>
      <point x="-284" y="806"/>
      <point x="-320" y="825"/>
      <point x="-320" y="888" type="curve" smooth="yes"/>
      <point x="-320" y="900"/>
      <point x="-319" y="915"/>
      <point x="-317" y="928" type="curve"/>
      <point x="-367" y="933" type="line"/>
      <point x="-371" y="910"/>
      <point x="-373" y="885"/>
      <point x="-373" y="858" type="curve" smooth="yes"/>
      <point x="-373" y="750"/>
      <point x="-307" y="694"/>
      <point x="-208" y="694" type="curve" smooth="yes"/>
      <point x="-131" y="694"/>
      <point x="-87" y="716"/>
      <point x="-20" y="716" type="curve" smooth="yes"/>
      <point x="40" y="716"/>
      <point x="60" y="680"/>
      <point x="60" y="634" type="curve" smooth="yes"/>
      <point x="60" y="623"/>
      <point x="59" y="613"/>
      <point x="56" y="603" type="curve"/>
      <point x="88" y="622" type="line"/>
      <point x="-31" y="622" type="line"/>
      <point x="8" y="550" type="line"/>
      <point x="55" y="550" type="line"/>
      <point x="55" y="1" type="line"/>
    </contour>
  </outline>
</glyph>
<glyph name="b-beng" format="2">
  <advance width="334"/>
  <outline>
    <contour>
      <point x="284" y="124" type="line"/>
      <point x="292" y="125" type="line"/>
      <point x="292" y="550" type="line"/>
      <point x="364" y="550" type="line"/>
      <point x="325" y="622" type="line"/>
      <point x="-31" y="622" type="line"/>
      <point x="7" y="550" type="line"/>
      <point x="214" y="550" type="line"/>
      <point x="214" y="488" type="line"/>
      <point x="222" y="535" type="line"/>
      <point x="141" y="511"/>
      <point x="56" y="465"/>
      <point x="-5" y="412" type="curve"/>
      <point x="41" y="288" type="line"/>
      <point x="109" y="271"/>
      <point x="189" y="236"/>
      <point x="227" y="158" type="curve"/>
    </contour>
    <contour>
      <point x="214" y="206" type="line"/>
      <point x="227" y="219" type="line"/>
      <point x="185" y="332"/>
      <point x="114" y="353"/>
      <point x="62" y="372" type="curve"/>
      <point x="79" y="318" type="line"/>
      <point x="107" y="354"/>
      <point x="178" y="397"/>
      <point x="228" y="415" type="curve"/>
      <point x="214" y="448" type="line"/>
    </contour>
  </outline>
</glyph>
